M48
; DRILL file {KiCad 6.0.0} date Sun 02 Jan 2022 05:58:50 PM CST
; FORMAT={-:-/ absolute / metric / decimal}
; #@! TF.CreationDate,2022-01-02T17:58:50-06:00
; #@! TF.GenerationSoftware,Kicad,Pcbnew,6.0.0
; #@! TF.FileFunction,Plated,1,4,PTH
FMAT,2
METRIC
; #@! TA.AperFunction,Plated,PTH,ViaDrill
T1C0.254
; #@! TA.AperFunction,Plated,PTH,ComponentDrill
T2C0.330
; #@! TA.AperFunction,Plated,PTH,ComponentDrill
T3C0.600
; #@! TA.AperFunction,Plated,PTH,ComponentDrill
T4C0.850
%
G90
G05
T1
X124.587Y-106.934
X124.587Y-108.204
X124.587Y-109.474
X125.222Y-110.744
X125.603Y-100.076
X125.603Y-101.854
X125.73Y-77.47
X125.857Y-83.947
X127.381Y-90.805
X127.508Y-93.472
X127.889Y-90.805
X128.397Y-89.535
X128.397Y-90.805
X128.905Y-100.457
X129.159Y-71.501
X129.159Y-72.39
X129.159Y-73.406
X129.159Y-74.422
X129.159Y-75.438
X129.159Y-76.327
X129.159Y-77.724
X129.159Y-78.613
X129.159Y-79.502
X129.159Y-80.391
X129.159Y-81.28
X129.159Y-82.169
X129.54Y-88.392
X129.54Y-112.395
X130.302Y-71.501
X130.302Y-72.39
X130.302Y-104.775
X130.556Y-95.758
X130.556Y-98.933
X130.937Y-101.727
X131.064Y-104.775
X131.318Y-87.503
X131.318Y-88.265
X131.826Y-100.838
X131.826Y-101.727
X131.826Y-102.616
X132.207Y-87.503
X132.207Y-88.265
X132.461Y-113.792
X132.588Y-80.137
X132.588Y-98.933
X132.715Y-101.727
X133.223Y-106.934
X133.223Y-108.458
X133.35Y-89.662
X133.35Y-90.297
X133.35Y-91.059
X133.35Y-91.694
X133.35Y-93.345
X133.477Y-80.137
X134.366Y-97.917
X134.493Y-105.156
X134.62Y-101.981
X134.62Y-102.743
X135.636Y-71.501
X135.636Y-72.39
X135.636Y-105.41
X135.763Y-109.474
X136.271Y-113.792
X136.525Y-96.266
X136.525Y-98.171
X136.525Y-98.806
X136.525Y-99.822
X136.525Y-101.346
X136.652Y-71.501
X136.652Y-72.39
X136.906Y-93.345
X137.033Y-83.947
X137.287Y-86.995
X137.414Y-106.045
X137.414Y-109.474
X137.668Y-73.406
X137.668Y-74.168
X137.922Y-85.09
X137.922Y-86.106
X138.43Y-104.775
X138.557Y-73.406
X138.557Y-74.168
X139.065Y-86.614
X139.446Y-73.406
X139.446Y-74.168
X139.573Y-101.346
X139.954Y-104.775
X140.208Y-112.268
X140.335Y-101.346
X140.589Y-92.075
X140.843Y-111.633
X141.097Y-92.71
X141.351Y-90.297
X141.42Y-74.422
X141.42Y-83.185
X141.859Y-106.045
X141.859Y-106.934
X141.859Y-108.077
X141.859Y-109.093
X141.986Y-92.583
X142.494Y-83.185
X143.129Y-90.043
X144.272Y-106.045
X144.272Y-106.934
X144.272Y-108.077
X144.272Y-109.093
X144.653Y-86.614
X144.78Y-116.332
X145.161Y-99.695
X145.796Y-78.867
X146.022Y-95.278
X146.177Y-86.614
X146.177Y-97.409
X146.177Y-100.838
X146.685Y-103.124
X147.32Y-110.236
X147.955Y-77.597
X148.336Y-92.837
X148.463Y-89.281
X148.59Y-100.584
X148.844Y-102.489
X149.225Y-96.52
X149.479Y-78.232
X149.479Y-78.867
X149.733Y-81.407
X149.86Y-110.744
X150.114Y-80.518
X150.368Y-100.711
X150.622Y-78.232
X150.622Y-89.281
X151.003Y-92.456
X151.511Y-79.248
X151.511Y-83.058
X151.638Y-95.631
X151.638Y-96.266
X151.638Y-97.028
X151.638Y-97.663
X151.638Y-98.298
X151.638Y-98.933
X151.638Y-99.568
X151.638Y-100.203
X152.019Y-74.803
X152.146Y-88.601
X152.4Y-114.046
X153.572Y-84.644
X153.572Y-85.279
X153.924Y-80.137
X153.924Y-115.062
X153.953Y-88.581
X154.051Y-100.838
X154.461Y-84.644
X154.461Y-85.279
X154.94Y-83.058
X155.067Y-94.996
X155.194Y-86.995
X155.448Y-77.216
X155.477Y-84.644
X155.477Y-85.279
X155.575Y-78.232
X156.083Y-81.534
X156.083Y-93.218
X156.083Y-101.981
X156.337Y-111.633
X156.366Y-84.644
X156.366Y-85.279
X156.591Y-80.264
X156.972Y-95.885
X158.017Y-84.644
X158.017Y-85.279
X158.652Y-89.47
X158.906Y-84.644
X158.906Y-85.279
X159.004Y-112.268
X159.258Y-101.727
X159.639Y-88.011
X159.639Y-107.061
X159.795Y-84.644
X159.795Y-85.279
X160.02Y-96.266
X160.401Y-100.838
X160.528Y-82.677
X160.655Y-104.902
X160.684Y-84.644
X160.684Y-85.279
X160.684Y-88.581
X160.909Y-101.981
X162.179Y-82.677
X162.179Y-84.836
X162.56Y-117.094
X164.465Y-80.137
X164.465Y-83.312
X164.465Y-88.646
X164.592Y-104.775
X165.1Y-92.71
X165.481Y-107.061
X165.608Y-108.585
X167.005Y-101.981
X167.132Y-80.137
X167.259Y-102.997
X167.259Y-104.013
X167.259Y-105.537
X168.275Y-92.71
X169.291Y-102.616
X169.291Y-103.378
X169.291Y-104.521
X169.799Y-105.029
X170.053Y-82.931
X170.053Y-84.074
X170.053Y-85.09
X170.053Y-87.376
X170.053Y-88.392
X170.053Y-89.535
X170.053Y-90.678
X170.053Y-86.233
X170.053Y-98.552
X170.053Y-108.966
X170.561Y-104.013
X170.561Y-80.01
X170.561Y-102.997
X170.815Y-112.522
X171.196Y-104.013
X171.196Y-102.997
X171.831Y-104.013
X171.831Y-102.997
T2
X139.043Y-95.228
X139.043Y-96.428
X139.043Y-97.628
X139.043Y-98.828
X140.243Y-95.228
X140.243Y-96.428
X140.243Y-97.628
X140.243Y-98.828
X141.443Y-95.228
X141.443Y-96.428
X141.443Y-97.628
X141.443Y-98.828
X142.643Y-95.228
X142.643Y-96.428
X142.643Y-97.628
X142.643Y-98.828
T4
X126.176Y-89.575
X126.176Y-94.575
T3
X123.126Y-88.575G85X123.826Y-88.575
G05
X123.826Y-95.575G85X123.126Y-95.575
G05
T0
M30
