%TF.GenerationSoftware,KiCad,Pcbnew,6.0.0*%
%TF.CreationDate,2022-01-02T17:56:43-06:00*%
%TF.ProjectId,sd-card-mux,73642d63-6172-4642-9d6d-75782e6b6963,rev?*%
%TF.SameCoordinates,Original*%
%TF.FileFunction,Soldermask,Bot*%
%TF.FilePolarity,Negative*%
%FSLAX46Y46*%
G04 Gerber Fmt 4.6, Leading zero omitted, Abs format (unit mm)*
G04 Created by KiCad (PCBNEW 6.0.0) date 2022-01-02 17:56:43*
%MOMM*%
%LPD*%
G01*
G04 APERTURE LIST*
%ADD10C,0.150000*%
%ADD11C,3.200000*%
%ADD12C,0.660000*%
%ADD13C,1.450000*%
%ADD14O,1.900000X1.200000*%
%ADD15R,2.900000X0.800000*%
%ADD16R,3.200000X0.800000*%
G04 APERTURE END LIST*
D10*
X138684000Y-94869000D02*
X143002000Y-94869000D01*
X143002000Y-94869000D02*
X143002000Y-99187000D01*
X143002000Y-99187000D02*
X138684000Y-99187000D01*
X138684000Y-99187000D02*
X138684000Y-94869000D01*
G36*
X138684000Y-94869000D02*
G01*
X143002000Y-94869000D01*
X143002000Y-99187000D01*
X138684000Y-99187000D01*
X138684000Y-94869000D01*
G37*
D11*
%TO.C,H2*%
X125349000Y-73279000D03*
%TD*%
D12*
%TO.C,U2*%
X142643000Y-98828000D03*
X140243000Y-98828000D03*
X140243000Y-95228000D03*
X139043000Y-98828000D03*
X141443000Y-96428000D03*
X142643000Y-95228000D03*
X141443000Y-97628000D03*
X140243000Y-96428000D03*
X141443000Y-98828000D03*
X142643000Y-97628000D03*
X139043000Y-95228000D03*
X142643000Y-96428000D03*
X139043000Y-97628000D03*
X141443000Y-95228000D03*
X139043000Y-96428000D03*
X140243000Y-97628000D03*
%TD*%
D13*
%TO.C,J1*%
X126176500Y-94575000D03*
X126176500Y-89575000D03*
D14*
X123476500Y-95575000D03*
X123476500Y-88575000D03*
%TD*%
D11*
%TO.C,H3*%
X125349000Y-117221000D03*
%TD*%
%TO.C,H1*%
X169291000Y-117221000D03*
%TD*%
%TO.C,H4*%
X169291000Y-73279000D03*
%TD*%
D15*
%TO.C,J5*%
X190170000Y-106900000D03*
X190170000Y-105800000D03*
X190170000Y-104700000D03*
D16*
X190320000Y-103600000D03*
D15*
X190170000Y-102500000D03*
D16*
X190320000Y-101400000D03*
D15*
X190170000Y-100300000D03*
X190170000Y-99200000D03*
%TD*%
M02*
