%FSLAX45Y45*%
G04 Gerber Fmt 4.5, Leading zero omitted, Abs format (unit mm)*
G04 Created by KiCad (PCBNEW 6.0.0) date 2022-01-02 17:59:28*
%MOMM*%
%LPD*%
G01*
G04 APERTURE LIST*
%TA.AperFunction,Profile*%
%ADD10C,0.100000*%
%TD*%
%ADD11C,0.200000*%
%ADD12C,0.320000*%
G04 APERTURE END LIST*
D10*
X17272000Y-6985000D02*
X12192000Y-6985000D01*
X18482000Y-10875000D02*
X18482000Y-10925000D01*
X19272000Y-9905000D02*
G75*
G03*
X19192000Y-9825000I-80000J0D01*
G01*
X17272000Y-12065000D02*
X17272000Y-11005000D01*
X17352000Y-10925000D02*
X18292000Y-10925000D01*
X19192000Y-10795000D02*
G75*
G03*
X19272000Y-10715000I0J80000D01*
G01*
X19272000Y-10715000D02*
X19272000Y-9905000D01*
X18482000Y-10875000D02*
G75*
G03*
X18462000Y-10855000I-20000J0D01*
G01*
X12192000Y-6985000D02*
X12192000Y-12065000D01*
X18632000Y-10925000D02*
X18762000Y-10795000D01*
X19192000Y-9825000D02*
X17352000Y-9825000D01*
X17272000Y-12065000D02*
X12192000Y-12065000D01*
X17272000Y-9745000D02*
G75*
G03*
X17352000Y-9825000I80000J0D01*
G01*
X19192000Y-10795000D02*
X18762000Y-10795000D01*
X18482000Y-10925000D02*
X18632000Y-10925000D01*
X17352000Y-10925000D02*
G75*
G03*
X17272000Y-11005000I0J-80000D01*
G01*
X17272000Y-9715500D02*
X17272000Y-6985000D01*
X18362000Y-10855000D02*
X18462000Y-10855000D01*
X18362000Y-10855000D02*
X18292000Y-10925000D01*
X17272000Y-9745000D02*
X17272000Y-9715500D01*
D11*
D12*
X12374900Y-7167900D02*
X12694900Y-7487900D01*
X12694900Y-7167900D02*
X12374900Y-7487900D01*
X12374900Y-11562100D02*
X12694900Y-11882100D01*
X12694900Y-11562100D02*
X12374900Y-11882100D01*
X16769100Y-7167900D02*
X17089100Y-7487900D01*
X17089100Y-7167900D02*
X16769100Y-7487900D01*
X16769100Y-11562100D02*
X17089100Y-11882100D01*
X17089100Y-11562100D02*
X16769100Y-11882100D01*
D11*
X12444619Y-12380476D02*
X12444619Y-12180476D01*
X12492238Y-12180476D01*
X12520809Y-12190000D01*
X12539857Y-12209048D01*
X12549381Y-12228095D01*
X12558905Y-12266190D01*
X12558905Y-12294762D01*
X12549381Y-12332857D01*
X12539857Y-12351905D01*
X12520809Y-12370952D01*
X12492238Y-12380476D01*
X12444619Y-12380476D01*
X12644619Y-12380476D02*
X12644619Y-12247143D01*
X12644619Y-12285238D02*
X12654143Y-12266190D01*
X12663667Y-12256667D01*
X12682714Y-12247143D01*
X12701762Y-12247143D01*
X12768428Y-12380476D02*
X12768428Y-12247143D01*
X12768428Y-12180476D02*
X12758905Y-12190000D01*
X12768428Y-12199524D01*
X12777952Y-12190000D01*
X12768428Y-12180476D01*
X12768428Y-12199524D01*
X12892238Y-12380476D02*
X12873190Y-12370952D01*
X12863667Y-12351905D01*
X12863667Y-12180476D01*
X12997000Y-12380476D02*
X12977952Y-12370952D01*
X12968428Y-12351905D01*
X12968428Y-12180476D01*
X13225571Y-12380476D02*
X13225571Y-12180476D01*
X13292238Y-12323333D01*
X13358905Y-12180476D01*
X13358905Y-12380476D01*
X13539857Y-12380476D02*
X13539857Y-12275714D01*
X13530333Y-12256667D01*
X13511286Y-12247143D01*
X13473190Y-12247143D01*
X13454143Y-12256667D01*
X13539857Y-12370952D02*
X13520809Y-12380476D01*
X13473190Y-12380476D01*
X13454143Y-12370952D01*
X13444619Y-12351905D01*
X13444619Y-12332857D01*
X13454143Y-12313809D01*
X13473190Y-12304286D01*
X13520809Y-12304286D01*
X13539857Y-12294762D01*
X13635095Y-12247143D02*
X13635095Y-12447143D01*
X13635095Y-12256667D02*
X13654143Y-12247143D01*
X13692238Y-12247143D01*
X13711286Y-12256667D01*
X13720809Y-12266190D01*
X13730333Y-12285238D01*
X13730333Y-12342381D01*
X13720809Y-12361428D01*
X13711286Y-12370952D01*
X13692238Y-12380476D01*
X13654143Y-12380476D01*
X13635095Y-12370952D01*
X13816048Y-12361428D02*
X13825571Y-12370952D01*
X13816048Y-12380476D01*
X13806524Y-12370952D01*
X13816048Y-12361428D01*
X13816048Y-12380476D01*
X13816048Y-12256667D02*
X13825571Y-12266190D01*
X13816048Y-12275714D01*
X13806524Y-12266190D01*
X13816048Y-12256667D01*
X13816048Y-12275714D01*
X11987000Y-12610000D02*
X12187000Y-12810000D01*
X12187000Y-12610000D02*
X11987000Y-12810000D01*
X12425571Y-12600476D02*
X12549381Y-12600476D01*
X12482714Y-12676667D01*
X12511286Y-12676667D01*
X12530333Y-12686190D01*
X12539857Y-12695714D01*
X12549381Y-12714762D01*
X12549381Y-12762381D01*
X12539857Y-12781428D01*
X12530333Y-12790952D01*
X12511286Y-12800476D01*
X12454143Y-12800476D01*
X12435095Y-12790952D01*
X12425571Y-12781428D01*
X12635095Y-12781428D02*
X12644619Y-12790952D01*
X12635095Y-12800476D01*
X12625571Y-12790952D01*
X12635095Y-12781428D01*
X12635095Y-12800476D01*
X12720809Y-12619524D02*
X12730333Y-12610000D01*
X12749381Y-12600476D01*
X12797000Y-12600476D01*
X12816048Y-12610000D01*
X12825571Y-12619524D01*
X12835095Y-12638571D01*
X12835095Y-12657619D01*
X12825571Y-12686190D01*
X12711286Y-12800476D01*
X12835095Y-12800476D01*
X12958905Y-12600476D02*
X12977952Y-12600476D01*
X12997000Y-12610000D01*
X13006524Y-12619524D01*
X13016048Y-12638571D01*
X13025571Y-12676667D01*
X13025571Y-12724286D01*
X13016048Y-12762381D01*
X13006524Y-12781428D01*
X12997000Y-12790952D01*
X12977952Y-12800476D01*
X12958905Y-12800476D01*
X12939857Y-12790952D01*
X12930333Y-12781428D01*
X12920809Y-12762381D01*
X12911286Y-12724286D01*
X12911286Y-12676667D01*
X12920809Y-12638571D01*
X12930333Y-12619524D01*
X12939857Y-12610000D01*
X12958905Y-12600476D01*
X13149381Y-12600476D02*
X13168428Y-12600476D01*
X13187476Y-12610000D01*
X13197000Y-12619524D01*
X13206524Y-12638571D01*
X13216048Y-12676667D01*
X13216048Y-12724286D01*
X13206524Y-12762381D01*
X13197000Y-12781428D01*
X13187476Y-12790952D01*
X13168428Y-12800476D01*
X13149381Y-12800476D01*
X13130333Y-12790952D01*
X13120809Y-12781428D01*
X13111286Y-12762381D01*
X13101762Y-12724286D01*
X13101762Y-12676667D01*
X13111286Y-12638571D01*
X13120809Y-12619524D01*
X13130333Y-12610000D01*
X13149381Y-12600476D01*
X13301762Y-12800476D02*
X13301762Y-12667143D01*
X13301762Y-12686190D02*
X13311286Y-12676667D01*
X13330333Y-12667143D01*
X13358905Y-12667143D01*
X13377952Y-12676667D01*
X13387476Y-12695714D01*
X13387476Y-12800476D01*
X13387476Y-12695714D02*
X13397000Y-12676667D01*
X13416048Y-12667143D01*
X13444619Y-12667143D01*
X13463667Y-12676667D01*
X13473190Y-12695714D01*
X13473190Y-12800476D01*
X13568428Y-12800476D02*
X13568428Y-12667143D01*
X13568428Y-12686190D02*
X13577952Y-12676667D01*
X13597000Y-12667143D01*
X13625571Y-12667143D01*
X13644619Y-12676667D01*
X13654143Y-12695714D01*
X13654143Y-12800476D01*
X13654143Y-12695714D02*
X13663667Y-12676667D01*
X13682714Y-12667143D01*
X13711286Y-12667143D01*
X13730333Y-12676667D01*
X13739857Y-12695714D01*
X13739857Y-12800476D01*
X14130333Y-12590952D02*
X13958905Y-12848095D01*
X14387476Y-12600476D02*
X14406524Y-12600476D01*
X14425571Y-12610000D01*
X14435095Y-12619524D01*
X14444619Y-12638571D01*
X14454143Y-12676667D01*
X14454143Y-12724286D01*
X14444619Y-12762381D01*
X14435095Y-12781428D01*
X14425571Y-12790952D01*
X14406524Y-12800476D01*
X14387476Y-12800476D01*
X14368428Y-12790952D01*
X14358905Y-12781428D01*
X14349381Y-12762381D01*
X14339857Y-12724286D01*
X14339857Y-12676667D01*
X14349381Y-12638571D01*
X14358905Y-12619524D01*
X14368428Y-12610000D01*
X14387476Y-12600476D01*
X14539857Y-12781428D02*
X14549381Y-12790952D01*
X14539857Y-12800476D01*
X14530333Y-12790952D01*
X14539857Y-12781428D01*
X14539857Y-12800476D01*
X14739857Y-12800476D02*
X14625571Y-12800476D01*
X14682714Y-12800476D02*
X14682714Y-12600476D01*
X14663667Y-12629048D01*
X14644619Y-12648095D01*
X14625571Y-12657619D01*
X14816048Y-12619524D02*
X14825571Y-12610000D01*
X14844619Y-12600476D01*
X14892238Y-12600476D01*
X14911286Y-12610000D01*
X14920809Y-12619524D01*
X14930333Y-12638571D01*
X14930333Y-12657619D01*
X14920809Y-12686190D01*
X14806524Y-12800476D01*
X14930333Y-12800476D01*
X15101762Y-12600476D02*
X15063667Y-12600476D01*
X15044619Y-12610000D01*
X15035095Y-12619524D01*
X15016048Y-12648095D01*
X15006524Y-12686190D01*
X15006524Y-12762381D01*
X15016048Y-12781428D01*
X15025571Y-12790952D01*
X15044619Y-12800476D01*
X15082714Y-12800476D01*
X15101762Y-12790952D01*
X15111286Y-12781428D01*
X15120809Y-12762381D01*
X15120809Y-12714762D01*
X15111286Y-12695714D01*
X15101762Y-12686190D01*
X15082714Y-12676667D01*
X15044619Y-12676667D01*
X15025571Y-12686190D01*
X15016048Y-12695714D01*
X15006524Y-12714762D01*
X15244619Y-12600476D02*
X15263667Y-12600476D01*
X15282714Y-12610000D01*
X15292238Y-12619524D01*
X15301762Y-12638571D01*
X15311286Y-12676667D01*
X15311286Y-12724286D01*
X15301762Y-12762381D01*
X15292238Y-12781428D01*
X15282714Y-12790952D01*
X15263667Y-12800476D01*
X15244619Y-12800476D01*
X15225571Y-12790952D01*
X15216048Y-12781428D01*
X15206524Y-12762381D01*
X15197000Y-12724286D01*
X15197000Y-12676667D01*
X15206524Y-12638571D01*
X15216048Y-12619524D01*
X15225571Y-12610000D01*
X15244619Y-12600476D01*
X15387476Y-12600476D02*
X15387476Y-12638571D01*
X15463667Y-12600476D02*
X15463667Y-12638571D01*
X15758905Y-12876667D02*
X15749381Y-12867143D01*
X15730333Y-12838571D01*
X15720809Y-12819524D01*
X15711286Y-12790952D01*
X15701762Y-12743333D01*
X15701762Y-12705238D01*
X15711286Y-12657619D01*
X15720809Y-12629048D01*
X15730333Y-12610000D01*
X15749381Y-12581428D01*
X15758905Y-12571905D01*
X15920809Y-12667143D02*
X15920809Y-12800476D01*
X15873190Y-12590952D02*
X15825571Y-12733809D01*
X15949381Y-12733809D01*
X16177952Y-12800476D02*
X16177952Y-12600476D01*
X16263667Y-12800476D02*
X16263667Y-12695714D01*
X16254143Y-12676667D01*
X16235095Y-12667143D01*
X16206524Y-12667143D01*
X16187476Y-12676667D01*
X16177952Y-12686190D01*
X16387476Y-12800476D02*
X16368428Y-12790952D01*
X16358905Y-12781428D01*
X16349381Y-12762381D01*
X16349381Y-12705238D01*
X16358905Y-12686190D01*
X16368428Y-12676667D01*
X16387476Y-12667143D01*
X16416048Y-12667143D01*
X16435095Y-12676667D01*
X16444619Y-12686190D01*
X16454143Y-12705238D01*
X16454143Y-12762381D01*
X16444619Y-12781428D01*
X16435095Y-12790952D01*
X16416048Y-12800476D01*
X16387476Y-12800476D01*
X16568428Y-12800476D02*
X16549381Y-12790952D01*
X16539857Y-12771905D01*
X16539857Y-12600476D01*
X16720809Y-12790952D02*
X16701762Y-12800476D01*
X16663667Y-12800476D01*
X16644619Y-12790952D01*
X16635095Y-12771905D01*
X16635095Y-12695714D01*
X16644619Y-12676667D01*
X16663667Y-12667143D01*
X16701762Y-12667143D01*
X16720809Y-12676667D01*
X16730333Y-12695714D01*
X16730333Y-12714762D01*
X16635095Y-12733809D01*
X16806524Y-12790952D02*
X16825571Y-12800476D01*
X16863667Y-12800476D01*
X16882714Y-12790952D01*
X16892238Y-12771905D01*
X16892238Y-12762381D01*
X16882714Y-12743333D01*
X16863667Y-12733809D01*
X16835095Y-12733809D01*
X16816048Y-12724286D01*
X16806524Y-12705238D01*
X16806524Y-12695714D01*
X16816048Y-12676667D01*
X16835095Y-12667143D01*
X16863667Y-12667143D01*
X16882714Y-12676667D01*
X16958905Y-12876667D02*
X16968429Y-12867143D01*
X16987476Y-12838571D01*
X16997000Y-12819524D01*
X17006524Y-12790952D01*
X17016048Y-12743333D01*
X17016048Y-12705238D01*
X17006524Y-12657619D01*
X16997000Y-12629048D01*
X16987476Y-12610000D01*
X16968429Y-12581428D01*
X16958905Y-12571905D01*
X17320810Y-12876667D02*
X17311286Y-12867143D01*
X17292238Y-12838571D01*
X17282714Y-12819524D01*
X17273190Y-12790952D01*
X17263667Y-12743333D01*
X17263667Y-12705238D01*
X17273190Y-12657619D01*
X17282714Y-12629048D01*
X17292238Y-12610000D01*
X17311286Y-12581428D01*
X17320810Y-12571905D01*
X17397000Y-12667143D02*
X17397000Y-12800476D01*
X17397000Y-12686190D02*
X17406524Y-12676667D01*
X17425571Y-12667143D01*
X17454143Y-12667143D01*
X17473190Y-12676667D01*
X17482714Y-12695714D01*
X17482714Y-12800476D01*
X17606524Y-12800476D02*
X17587476Y-12790952D01*
X17577952Y-12781428D01*
X17568429Y-12762381D01*
X17568429Y-12705238D01*
X17577952Y-12686190D01*
X17587476Y-12676667D01*
X17606524Y-12667143D01*
X17635095Y-12667143D01*
X17654143Y-12676667D01*
X17663667Y-12686190D01*
X17673190Y-12705238D01*
X17673190Y-12762381D01*
X17663667Y-12781428D01*
X17654143Y-12790952D01*
X17635095Y-12800476D01*
X17606524Y-12800476D01*
X17730333Y-12667143D02*
X17806524Y-12667143D01*
X17758905Y-12600476D02*
X17758905Y-12771905D01*
X17768429Y-12790952D01*
X17787476Y-12800476D01*
X17806524Y-12800476D01*
X18025571Y-12667143D02*
X18025571Y-12867143D01*
X18025571Y-12676667D02*
X18044619Y-12667143D01*
X18082714Y-12667143D01*
X18101762Y-12676667D01*
X18111286Y-12686190D01*
X18120810Y-12705238D01*
X18120810Y-12762381D01*
X18111286Y-12781428D01*
X18101762Y-12790952D01*
X18082714Y-12800476D01*
X18044619Y-12800476D01*
X18025571Y-12790952D01*
X18235095Y-12800476D02*
X18216048Y-12790952D01*
X18206524Y-12771905D01*
X18206524Y-12600476D01*
X18397000Y-12800476D02*
X18397000Y-12695714D01*
X18387476Y-12676667D01*
X18368429Y-12667143D01*
X18330333Y-12667143D01*
X18311286Y-12676667D01*
X18397000Y-12790952D02*
X18377952Y-12800476D01*
X18330333Y-12800476D01*
X18311286Y-12790952D01*
X18301762Y-12771905D01*
X18301762Y-12752857D01*
X18311286Y-12733809D01*
X18330333Y-12724286D01*
X18377952Y-12724286D01*
X18397000Y-12714762D01*
X18463667Y-12667143D02*
X18539857Y-12667143D01*
X18492238Y-12600476D02*
X18492238Y-12771905D01*
X18501762Y-12790952D01*
X18520810Y-12800476D01*
X18539857Y-12800476D01*
X18682714Y-12790952D02*
X18663667Y-12800476D01*
X18625571Y-12800476D01*
X18606524Y-12790952D01*
X18597000Y-12771905D01*
X18597000Y-12695714D01*
X18606524Y-12676667D01*
X18625571Y-12667143D01*
X18663667Y-12667143D01*
X18682714Y-12676667D01*
X18692238Y-12695714D01*
X18692238Y-12714762D01*
X18597000Y-12733809D01*
X18863667Y-12800476D02*
X18863667Y-12600476D01*
X18863667Y-12790952D02*
X18844619Y-12800476D01*
X18806524Y-12800476D01*
X18787476Y-12790952D01*
X18777952Y-12781428D01*
X18768429Y-12762381D01*
X18768429Y-12705238D01*
X18777952Y-12686190D01*
X18787476Y-12676667D01*
X18806524Y-12667143D01*
X18844619Y-12667143D01*
X18863667Y-12676667D01*
X18939857Y-12876667D02*
X18949381Y-12867143D01*
X18968429Y-12838571D01*
X18977952Y-12819524D01*
X18987476Y-12790952D01*
X18997000Y-12743333D01*
X18997000Y-12705238D01*
X18987476Y-12657619D01*
X18977952Y-12629048D01*
X18968429Y-12610000D01*
X18949381Y-12581428D01*
X18939857Y-12571905D01*
M02*
