%TF.GenerationSoftware,KiCad,Pcbnew,6.0.0*%
%TF.CreationDate,2022-01-02T17:56:43-06:00*%
%TF.ProjectId,sd-card-mux,73642d63-6172-4642-9d6d-75782e6b6963,rev?*%
%TF.SameCoordinates,Original*%
%TF.FileFunction,Profile,NP*%
%FSLAX46Y46*%
G04 Gerber Fmt 4.6, Leading zero omitted, Abs format (unit mm)*
G04 Created by KiCad (PCBNEW 6.0.0) date 2022-01-02 17:56:43*
%MOMM*%
%LPD*%
G01*
G04 APERTURE LIST*
%TA.AperFunction,Profile*%
%ADD10C,0.100000*%
%TD*%
G04 APERTURE END LIST*
D10*
X172720000Y-69850000D02*
X121920000Y-69850000D01*
X184820000Y-108750000D02*
X184820000Y-109250000D01*
X192720000Y-99050000D02*
G75*
G03*
X191920000Y-98250000I-800001J-1D01*
G01*
X172720000Y-120650000D02*
X172720000Y-110050000D01*
X173520000Y-109250000D02*
X182920000Y-109250000D01*
X191920000Y-107950000D02*
G75*
G03*
X192720000Y-107150000I-1J800001D01*
G01*
X192720000Y-107150000D02*
X192720000Y-99050000D01*
X184820000Y-108750000D02*
G75*
G03*
X184620000Y-108550000I-200001J-1D01*
G01*
X121920000Y-69850000D02*
X121920000Y-120650000D01*
X186320000Y-109250000D02*
X187620000Y-107950000D01*
X191920000Y-98250000D02*
X173520000Y-98250000D01*
X172720000Y-120650000D02*
X121920000Y-120650000D01*
X172720000Y-97450000D02*
G75*
G03*
X173520000Y-98250000I800001J1D01*
G01*
X191920000Y-107950000D02*
X187620000Y-107950000D01*
X184820000Y-109250000D02*
X186320000Y-109250000D01*
X173520000Y-109250000D02*
G75*
G03*
X172720000Y-110050000I1J-800001D01*
G01*
X172720000Y-97155000D02*
X172720000Y-69850000D01*
X183620000Y-108550000D02*
X184620000Y-108550000D01*
X183620000Y-108550000D02*
X182920000Y-109250000D01*
X172720000Y-97450000D02*
X172720000Y-97155000D01*
M02*
