%TF.GenerationSoftware,KiCad,Pcbnew,6.0.0*%
%TF.CreationDate,2022-01-02T17:56:42-06:00*%
%TF.ProjectId,sd-card-mux,73642d63-6172-4642-9d6d-75782e6b6963,rev?*%
%TF.SameCoordinates,Original*%
%TF.FileFunction,Copper,L2,Inr*%
%TF.FilePolarity,Positive*%
%FSLAX46Y46*%
G04 Gerber Fmt 4.6, Leading zero omitted, Abs format (unit mm)*
G04 Created by KiCad (PCBNEW 6.0.0) date 2022-01-02 17:56:42*
%MOMM*%
%LPD*%
G01*
G04 APERTURE LIST*
%TA.AperFunction,ComponentPad*%
%ADD10C,0.660000*%
%TD*%
%TA.AperFunction,ComponentPad*%
%ADD11C,1.450000*%
%TD*%
%TA.AperFunction,ComponentPad*%
%ADD12O,1.900000X1.200000*%
%TD*%
%TA.AperFunction,ViaPad*%
%ADD13C,0.457200*%
%TD*%
G04 APERTURE END LIST*
D10*
%TO.N,GND*%
%TO.C,U2*%
X142643000Y-98828000D03*
X140243000Y-98828000D03*
X140243000Y-95228000D03*
X139043000Y-98828000D03*
X141443000Y-96428000D03*
X142643000Y-95228000D03*
X141443000Y-97628000D03*
X140243000Y-96428000D03*
X141443000Y-98828000D03*
X142643000Y-97628000D03*
X139043000Y-95228000D03*
X142643000Y-96428000D03*
X139043000Y-97628000D03*
X141443000Y-95228000D03*
X139043000Y-96428000D03*
X140243000Y-97628000D03*
%TD*%
D11*
%TO.N,GND*%
%TO.C,J1*%
X126176500Y-94575000D03*
X126176500Y-89575000D03*
D12*
X123476500Y-95575000D03*
X123476500Y-88575000D03*
%TD*%
D13*
%TO.N,GND*%
X138557000Y-74168000D03*
X124587000Y-109474000D03*
X138557000Y-73406000D03*
X159258000Y-101727000D03*
X139065000Y-86614000D03*
X171196000Y-102997000D03*
X133350000Y-89662000D03*
X152146000Y-88601000D03*
X131826000Y-102616000D03*
X141351000Y-90297000D03*
X154940000Y-83058000D03*
X165100000Y-92710000D03*
X129540000Y-88392000D03*
X146177000Y-97409000D03*
X160020000Y-96266000D03*
X137287000Y-86995000D03*
X134366000Y-97917000D03*
X129159000Y-78613000D03*
X139446000Y-74168000D03*
X144272000Y-106045000D03*
X129159000Y-81280000D03*
X137668000Y-74168000D03*
X149225000Y-96520000D03*
X129159000Y-79502000D03*
X124587000Y-108204000D03*
X127508000Y-93472000D03*
X156972000Y-95885000D03*
X165481000Y-107061000D03*
X125222000Y-110744000D03*
X170561000Y-102997000D03*
X141420000Y-83185000D03*
X170053000Y-98552012D03*
X153953000Y-88581000D03*
X156083000Y-81534000D03*
X131826000Y-100838000D03*
X155448000Y-77216000D03*
X128397000Y-89535000D03*
X131826000Y-101727000D03*
X125603000Y-100076000D03*
X155194000Y-86995000D03*
X170053000Y-108966012D03*
X153924000Y-80137000D03*
X143129000Y-90043000D03*
X146177000Y-100838000D03*
X132461000Y-113792000D03*
X144272000Y-108077000D03*
X149733000Y-81407000D03*
X156083000Y-101981000D03*
X149479000Y-78232000D03*
X146177000Y-86614000D03*
X167259000Y-102997012D03*
X130937000Y-101727000D03*
X151003000Y-92456000D03*
X139954000Y-104775000D03*
X137668000Y-73406000D03*
X160528000Y-82677000D03*
X136525000Y-101346000D03*
X132715000Y-101727000D03*
X150622000Y-78232000D03*
X160655000Y-104902000D03*
X144272000Y-109093000D03*
X134493000Y-105156000D03*
X150368000Y-100711000D03*
X162560000Y-117094000D03*
X138430000Y-104775000D03*
X139446000Y-73406000D03*
X129159000Y-80391000D03*
X164465000Y-83312000D03*
X167132000Y-80137000D03*
X164465000Y-88646000D03*
X132588000Y-98933000D03*
X151638000Y-96266000D03*
X124587000Y-106934000D03*
X148336000Y-92837000D03*
X171831000Y-102997000D03*
X130556000Y-95758000D03*
X148590000Y-100584000D03*
X135636000Y-105410000D03*
X133350000Y-91694000D03*
X133223000Y-108458000D03*
X162179000Y-82677000D03*
X129159000Y-82169000D03*
X129159000Y-77724000D03*
X164465000Y-80137000D03*
X160684000Y-88581000D03*
X170052995Y-88391988D03*
X159639000Y-107061000D03*
X160401000Y-100838000D03*
X133350000Y-93345000D03*
X148844000Y-102489000D03*
X164592000Y-104775000D03*
X144272000Y-106934000D03*
X168275000Y-92710000D03*
%TO.N,+3V3*%
X170815000Y-112522000D03*
X151511000Y-79248000D03*
X130302000Y-72390000D03*
X141859000Y-106934000D03*
X136525000Y-99822000D03*
X146022000Y-95278000D03*
X129159000Y-76327000D03*
X145161000Y-99695000D03*
X130556000Y-98933000D03*
X136652000Y-71501000D03*
X129159000Y-73406000D03*
X139573000Y-101346000D03*
X125857000Y-83947000D03*
X141420000Y-74422000D03*
X141859000Y-106045000D03*
X135636000Y-72390000D03*
X135636000Y-71501000D03*
X156591000Y-80264000D03*
X151638000Y-98298000D03*
X136906000Y-93345000D03*
X133477000Y-80137000D03*
X136652000Y-72390000D03*
X144780000Y-116332000D03*
X128905000Y-100457000D03*
X132588000Y-80137000D03*
X129159000Y-75438000D03*
X144653000Y-86614000D03*
X141859000Y-109093000D03*
X129159000Y-71501000D03*
X130302000Y-71501000D03*
X125603000Y-101854000D03*
X136525000Y-96266000D03*
X141859000Y-108077000D03*
X129159000Y-72390000D03*
X129159000Y-74422000D03*
X141986000Y-92583000D03*
X133223000Y-106934000D03*
X137414000Y-106045000D03*
X136271000Y-113792000D03*
%TO.N,/DUT_VDD*%
X158906000Y-85279000D03*
X158906000Y-84644000D03*
X158017000Y-85279000D03*
X171830988Y-104013012D03*
X160684000Y-84644000D03*
X159795000Y-84644000D03*
X171195988Y-104013012D03*
X170560988Y-104013012D03*
X159795000Y-85279000D03*
X160684000Y-85279000D03*
X158652000Y-89470000D03*
X167259000Y-104013012D03*
X158017000Y-84644000D03*
%TO.N,/SD_VDD*%
X156366000Y-85279000D03*
X154461000Y-84644000D03*
X153572000Y-84644000D03*
X156366000Y-84644000D03*
X154461000Y-85279000D03*
X155477000Y-85279000D03*
X155477000Y-84644000D03*
X153572000Y-85279000D03*
X170053000Y-86232988D03*
%TO.N,/USB_US_N*%
X140589000Y-92075000D03*
X133350000Y-90297000D03*
%TO.N,/USB_US_P*%
X133350000Y-91059000D03*
X141097000Y-92710000D03*
%TO.N,Net-(D3-Pad2)*%
X150622000Y-89281000D03*
X170561000Y-80010000D03*
X148463000Y-89281000D03*
X162179000Y-84836000D03*
%TO.N,/TXD*%
X147320000Y-110236000D03*
X134620000Y-101981000D03*
%TO.N,/RXD*%
X149860000Y-110744000D03*
X134620000Y-102743000D03*
%TO.N,/DUT_DAT2*%
X167259000Y-105537000D03*
X151638000Y-100203000D03*
%TO.N,/DUT_DAT3*%
X169799000Y-105029000D03*
%TO.N,/DUT_CMD*%
X169291000Y-104521000D03*
%TO.N,/DUT_CLK*%
X169291000Y-103378000D03*
%TO.N,/DUT_DAT0*%
X169291000Y-102616000D03*
%TO.N,/DUT_DAT1*%
X160909000Y-101981000D03*
X167005000Y-101981012D03*
%TO.N,Net-(R15-Pad2)*%
X165608000Y-108585000D03*
X145796000Y-78867000D03*
%TO.N,Net-(R16-Pad1)*%
X125730000Y-77470000D03*
X137033000Y-83947000D03*
%TO.N,/HUB_DAT1*%
X140335000Y-101346000D03*
X155067000Y-94996000D03*
%TO.N,/SD_DAT2*%
X151638000Y-95631000D03*
X170052995Y-82930988D03*
%TO.N,/SD_DAT3*%
X151638000Y-97028000D03*
X170052995Y-84073988D03*
%TO.N,/SD_CMD*%
X151638000Y-97663000D03*
X170052995Y-85089988D03*
%TO.N,/SD_CLK*%
X170052995Y-87375988D03*
X151638000Y-98933000D03*
%TO.N,/SD_DAT0*%
X151638000Y-99568000D03*
X170052995Y-89534988D03*
%TO.N,/SD_DAT1*%
X154051000Y-100838000D03*
X170052995Y-90677988D03*
%TO.N,/USB_SDA*%
X137414000Y-109474000D03*
X136525000Y-98806000D03*
%TO.N,/USB_SCL*%
X135763000Y-109474000D03*
X136525000Y-98171000D03*
%TO.N,/GPIO2*%
X140843000Y-111633000D03*
X156337000Y-111633000D03*
%TO.N,/USB_VBUS_IN*%
X127381000Y-90805000D03*
X131318000Y-87503000D03*
X131318000Y-88265000D03*
X127889000Y-90805000D03*
X128397000Y-90805000D03*
X132207000Y-87503000D03*
X132207000Y-88265000D03*
%TO.N,/SEL_SOFTWARE*%
X131064000Y-104775000D03*
X155575000Y-78232000D03*
X152400000Y-114046000D03*
X137922000Y-86106000D03*
X150114000Y-80518000D03*
%TO.N,Net-(R21-Pad2)*%
X137922000Y-85090000D03*
X129540000Y-112395000D03*
%TO.N,/nSEL_SOFTWARE*%
X153924000Y-115062000D03*
X130302000Y-104775000D03*
X142494000Y-83185000D03*
%TO.N,/SEL_R*%
X159639000Y-88011000D03*
X152019000Y-74803000D03*
X149479000Y-78867000D03*
X156083000Y-93218000D03*
X146685000Y-103124000D03*
%TO.N,/nSEL_R*%
X151511000Y-83058000D03*
X147955000Y-77597000D03*
%TO.N,/GPIO3*%
X140208000Y-112268000D03*
X159004000Y-112268000D03*
%TD*%
%TA.AperFunction,Conductor*%
%TO.N,GND*%
G36*
X172320694Y-70249306D02*
G01*
X172339000Y-70293500D01*
X172339000Y-120206500D01*
X172320694Y-120250694D01*
X172276500Y-120269000D01*
X122363500Y-120269000D01*
X122319306Y-120250694D01*
X122301000Y-120206500D01*
X122301000Y-117130324D01*
X123618790Y-117130324D01*
X123624983Y-117393080D01*
X123670848Y-117651876D01*
X123755332Y-117900757D01*
X123876490Y-118133995D01*
X124031533Y-118346223D01*
X124124511Y-118439690D01*
X124215219Y-118530875D01*
X124215225Y-118530880D01*
X124216894Y-118532558D01*
X124218802Y-118533967D01*
X124218804Y-118533969D01*
X124426392Y-118687296D01*
X124426396Y-118687298D01*
X124428307Y-118688710D01*
X124430411Y-118689817D01*
X124658814Y-118809986D01*
X124658822Y-118809989D01*
X124660908Y-118811087D01*
X124663144Y-118811859D01*
X124663146Y-118811860D01*
X124796771Y-118858001D01*
X124909343Y-118896873D01*
X124911674Y-118897299D01*
X124911675Y-118897299D01*
X125165917Y-118943732D01*
X125165924Y-118943733D01*
X125167896Y-118944093D01*
X125251989Y-118948500D01*
X125415836Y-118948500D01*
X125438499Y-118946776D01*
X125608707Y-118933829D01*
X125608708Y-118933829D01*
X125611072Y-118933649D01*
X125613379Y-118933114D01*
X125613381Y-118933114D01*
X125864809Y-118874836D01*
X125867113Y-118874302D01*
X126111232Y-118776908D01*
X126113276Y-118775707D01*
X126113283Y-118775703D01*
X126335758Y-118644916D01*
X126335761Y-118644914D01*
X126337809Y-118643710D01*
X126541632Y-118477772D01*
X126718010Y-118282913D01*
X126862884Y-118063617D01*
X126972920Y-117824930D01*
X126973573Y-117822661D01*
X126973575Y-117822655D01*
X127044931Y-117574622D01*
X127045586Y-117572346D01*
X127079210Y-117311676D01*
X127074936Y-117130324D01*
X167560790Y-117130324D01*
X167566983Y-117393080D01*
X167612848Y-117651876D01*
X167697332Y-117900757D01*
X167818490Y-118133995D01*
X167973533Y-118346223D01*
X168066511Y-118439690D01*
X168157219Y-118530875D01*
X168157225Y-118530880D01*
X168158894Y-118532558D01*
X168160802Y-118533967D01*
X168160804Y-118533969D01*
X168368392Y-118687296D01*
X168368396Y-118687298D01*
X168370307Y-118688710D01*
X168372411Y-118689817D01*
X168600814Y-118809986D01*
X168600822Y-118809989D01*
X168602908Y-118811087D01*
X168605144Y-118811859D01*
X168605146Y-118811860D01*
X168738771Y-118858001D01*
X168851343Y-118896873D01*
X168853674Y-118897299D01*
X168853675Y-118897299D01*
X169107917Y-118943732D01*
X169107924Y-118943733D01*
X169109896Y-118944093D01*
X169193989Y-118948500D01*
X169357836Y-118948500D01*
X169380499Y-118946776D01*
X169550707Y-118933829D01*
X169550708Y-118933829D01*
X169553072Y-118933649D01*
X169555379Y-118933114D01*
X169555381Y-118933114D01*
X169806809Y-118874836D01*
X169809113Y-118874302D01*
X170053232Y-118776908D01*
X170055276Y-118775707D01*
X170055283Y-118775703D01*
X170277758Y-118644916D01*
X170277761Y-118644914D01*
X170279809Y-118643710D01*
X170483632Y-118477772D01*
X170660010Y-118282913D01*
X170804884Y-118063617D01*
X170914920Y-117824930D01*
X170915573Y-117822661D01*
X170915575Y-117822655D01*
X170986931Y-117574622D01*
X170987586Y-117572346D01*
X171021210Y-117311676D01*
X171015017Y-117048920D01*
X170969152Y-116790124D01*
X170884668Y-116541243D01*
X170799040Y-116376403D01*
X170764607Y-116310116D01*
X170764604Y-116310112D01*
X170763510Y-116308005D01*
X170608467Y-116095777D01*
X170484801Y-115971461D01*
X170424781Y-115911125D01*
X170424775Y-115911120D01*
X170423106Y-115909442D01*
X170421196Y-115908031D01*
X170213608Y-115754704D01*
X170213604Y-115754702D01*
X170211693Y-115753290D01*
X170209589Y-115752183D01*
X169981186Y-115632014D01*
X169981178Y-115632011D01*
X169979092Y-115630913D01*
X169976856Y-115630141D01*
X169976854Y-115630140D01*
X169732898Y-115545901D01*
X169730657Y-115545127D01*
X169728326Y-115544701D01*
X169728325Y-115544701D01*
X169474083Y-115498268D01*
X169474076Y-115498267D01*
X169472104Y-115497907D01*
X169388011Y-115493500D01*
X169224164Y-115493500D01*
X169222981Y-115493590D01*
X169031293Y-115508171D01*
X169031292Y-115508171D01*
X169028928Y-115508351D01*
X169026621Y-115508886D01*
X169026619Y-115508886D01*
X168872103Y-115544701D01*
X168772887Y-115567698D01*
X168528768Y-115665092D01*
X168526724Y-115666293D01*
X168526717Y-115666297D01*
X168304242Y-115797084D01*
X168302191Y-115798290D01*
X168098368Y-115964228D01*
X167921990Y-116159087D01*
X167777116Y-116378383D01*
X167667080Y-116617070D01*
X167666427Y-116619339D01*
X167666425Y-116619345D01*
X167645368Y-116692539D01*
X167594414Y-116869654D01*
X167560790Y-117130324D01*
X127074936Y-117130324D01*
X127073017Y-117048920D01*
X127027152Y-116790124D01*
X126942668Y-116541243D01*
X126857040Y-116376403D01*
X126833975Y-116332000D01*
X144419461Y-116332000D01*
X144437107Y-116443413D01*
X144488318Y-116543920D01*
X144568080Y-116623682D01*
X144616684Y-116648447D01*
X144664202Y-116672659D01*
X144664203Y-116672659D01*
X144668587Y-116674893D01*
X144673444Y-116675662D01*
X144673446Y-116675663D01*
X144775145Y-116691770D01*
X144780000Y-116692539D01*
X144784855Y-116691770D01*
X144886554Y-116675663D01*
X144886556Y-116675662D01*
X144891413Y-116674893D01*
X144895797Y-116672659D01*
X144895798Y-116672659D01*
X144943316Y-116648447D01*
X144991920Y-116623682D01*
X145071682Y-116543920D01*
X145122893Y-116443413D01*
X145140539Y-116332000D01*
X145136739Y-116308005D01*
X145123663Y-116225446D01*
X145123662Y-116225444D01*
X145122893Y-116220587D01*
X145071682Y-116120080D01*
X144991920Y-116040318D01*
X144943316Y-116015553D01*
X144895798Y-115991341D01*
X144895797Y-115991341D01*
X144891413Y-115989107D01*
X144886556Y-115988338D01*
X144886554Y-115988337D01*
X144784855Y-115972230D01*
X144780000Y-115971461D01*
X144775145Y-115972230D01*
X144673446Y-115988337D01*
X144673444Y-115988338D01*
X144668587Y-115989107D01*
X144664203Y-115991341D01*
X144664202Y-115991341D01*
X144616684Y-116015553D01*
X144568080Y-116040318D01*
X144488318Y-116120080D01*
X144437107Y-116220587D01*
X144436338Y-116225444D01*
X144436337Y-116225446D01*
X144423261Y-116308005D01*
X144419461Y-116332000D01*
X126833975Y-116332000D01*
X126822607Y-116310116D01*
X126822604Y-116310112D01*
X126821510Y-116308005D01*
X126666467Y-116095777D01*
X126542801Y-115971461D01*
X126482781Y-115911125D01*
X126482775Y-115911120D01*
X126481106Y-115909442D01*
X126479196Y-115908031D01*
X126271608Y-115754704D01*
X126271604Y-115754702D01*
X126269693Y-115753290D01*
X126267589Y-115752183D01*
X126039186Y-115632014D01*
X126039178Y-115632011D01*
X126037092Y-115630913D01*
X126034856Y-115630141D01*
X126034854Y-115630140D01*
X125790898Y-115545901D01*
X125788657Y-115545127D01*
X125786326Y-115544701D01*
X125786325Y-115544701D01*
X125532083Y-115498268D01*
X125532076Y-115498267D01*
X125530104Y-115497907D01*
X125446011Y-115493500D01*
X125282164Y-115493500D01*
X125280981Y-115493590D01*
X125089293Y-115508171D01*
X125089292Y-115508171D01*
X125086928Y-115508351D01*
X125084621Y-115508886D01*
X125084619Y-115508886D01*
X124930103Y-115544701D01*
X124830887Y-115567698D01*
X124586768Y-115665092D01*
X124584724Y-115666293D01*
X124584717Y-115666297D01*
X124362242Y-115797084D01*
X124360191Y-115798290D01*
X124156368Y-115964228D01*
X123979990Y-116159087D01*
X123835116Y-116378383D01*
X123725080Y-116617070D01*
X123724427Y-116619339D01*
X123724425Y-116619345D01*
X123703368Y-116692539D01*
X123652414Y-116869654D01*
X123618790Y-117130324D01*
X122301000Y-117130324D01*
X122301000Y-115062000D01*
X153563461Y-115062000D01*
X153581107Y-115173413D01*
X153632318Y-115273920D01*
X153712080Y-115353682D01*
X153760684Y-115378447D01*
X153808202Y-115402659D01*
X153808203Y-115402659D01*
X153812587Y-115404893D01*
X153817444Y-115405662D01*
X153817446Y-115405663D01*
X153919145Y-115421770D01*
X153924000Y-115422539D01*
X153928855Y-115421770D01*
X154030554Y-115405663D01*
X154030556Y-115405662D01*
X154035413Y-115404893D01*
X154039797Y-115402659D01*
X154039798Y-115402659D01*
X154087316Y-115378447D01*
X154135920Y-115353682D01*
X154215682Y-115273920D01*
X154266893Y-115173413D01*
X154284539Y-115062000D01*
X154266893Y-114950587D01*
X154215682Y-114850080D01*
X154135920Y-114770318D01*
X154087316Y-114745553D01*
X154039798Y-114721341D01*
X154039797Y-114721341D01*
X154035413Y-114719107D01*
X154030556Y-114718338D01*
X154030554Y-114718337D01*
X153928855Y-114702230D01*
X153924000Y-114701461D01*
X153919145Y-114702230D01*
X153817446Y-114718337D01*
X153817444Y-114718338D01*
X153812587Y-114719107D01*
X153808203Y-114721341D01*
X153808202Y-114721341D01*
X153760684Y-114745553D01*
X153712080Y-114770318D01*
X153632318Y-114850080D01*
X153581107Y-114950587D01*
X153563461Y-115062000D01*
X122301000Y-115062000D01*
X122301000Y-113792000D01*
X135910461Y-113792000D01*
X135928107Y-113903413D01*
X135979318Y-114003920D01*
X136059080Y-114083682D01*
X136107684Y-114108447D01*
X136155202Y-114132659D01*
X136155203Y-114132659D01*
X136159587Y-114134893D01*
X136164444Y-114135662D01*
X136164446Y-114135663D01*
X136266145Y-114151770D01*
X136271000Y-114152539D01*
X136275855Y-114151770D01*
X136377554Y-114135663D01*
X136377556Y-114135662D01*
X136382413Y-114134893D01*
X136386797Y-114132659D01*
X136386798Y-114132659D01*
X136434316Y-114108447D01*
X136482920Y-114083682D01*
X136520602Y-114046000D01*
X152039461Y-114046000D01*
X152057107Y-114157413D01*
X152108318Y-114257920D01*
X152188080Y-114337682D01*
X152236684Y-114362447D01*
X152284202Y-114386659D01*
X152284203Y-114386659D01*
X152288587Y-114388893D01*
X152293444Y-114389662D01*
X152293446Y-114389663D01*
X152395145Y-114405770D01*
X152400000Y-114406539D01*
X152404855Y-114405770D01*
X152506554Y-114389663D01*
X152506556Y-114389662D01*
X152511413Y-114388893D01*
X152515797Y-114386659D01*
X152515798Y-114386659D01*
X152563316Y-114362447D01*
X152611920Y-114337682D01*
X152691682Y-114257920D01*
X152742893Y-114157413D01*
X152760539Y-114046000D01*
X152742893Y-113934587D01*
X152691682Y-113834080D01*
X152611920Y-113754318D01*
X152563316Y-113729553D01*
X152515798Y-113705341D01*
X152515797Y-113705341D01*
X152511413Y-113703107D01*
X152506556Y-113702338D01*
X152506554Y-113702337D01*
X152404855Y-113686230D01*
X152400000Y-113685461D01*
X152395145Y-113686230D01*
X152293446Y-113702337D01*
X152293444Y-113702338D01*
X152288587Y-113703107D01*
X152284203Y-113705341D01*
X152284202Y-113705341D01*
X152236684Y-113729553D01*
X152188080Y-113754318D01*
X152108318Y-113834080D01*
X152057107Y-113934587D01*
X152039461Y-114046000D01*
X136520602Y-114046000D01*
X136562682Y-114003920D01*
X136613893Y-113903413D01*
X136631539Y-113792000D01*
X136613893Y-113680587D01*
X136562682Y-113580080D01*
X136482920Y-113500318D01*
X136434316Y-113475553D01*
X136386798Y-113451341D01*
X136386797Y-113451341D01*
X136382413Y-113449107D01*
X136377556Y-113448338D01*
X136377554Y-113448337D01*
X136275855Y-113432230D01*
X136271000Y-113431461D01*
X136266145Y-113432230D01*
X136164446Y-113448337D01*
X136164444Y-113448338D01*
X136159587Y-113449107D01*
X136155203Y-113451341D01*
X136155202Y-113451341D01*
X136107684Y-113475553D01*
X136059080Y-113500318D01*
X135979318Y-113580080D01*
X135928107Y-113680587D01*
X135910461Y-113792000D01*
X122301000Y-113792000D01*
X122301000Y-112395000D01*
X129179461Y-112395000D01*
X129180230Y-112399855D01*
X129193462Y-112483398D01*
X129197107Y-112506413D01*
X129248318Y-112606920D01*
X129328080Y-112686682D01*
X129376684Y-112711447D01*
X129424202Y-112735659D01*
X129424203Y-112735659D01*
X129428587Y-112737893D01*
X129433444Y-112738662D01*
X129433446Y-112738663D01*
X129535145Y-112754770D01*
X129540000Y-112755539D01*
X129544855Y-112754770D01*
X129646554Y-112738663D01*
X129646556Y-112738662D01*
X129651413Y-112737893D01*
X129655797Y-112735659D01*
X129655798Y-112735659D01*
X129703316Y-112711447D01*
X129751920Y-112686682D01*
X129831682Y-112606920D01*
X129882893Y-112506413D01*
X129886539Y-112483398D01*
X129899770Y-112399855D01*
X129900539Y-112395000D01*
X129897301Y-112374554D01*
X129883663Y-112288446D01*
X129883662Y-112288444D01*
X129882893Y-112283587D01*
X129874951Y-112268000D01*
X139847461Y-112268000D01*
X139865107Y-112379413D01*
X139916318Y-112479920D01*
X139996080Y-112559682D01*
X140044684Y-112584447D01*
X140092202Y-112608659D01*
X140092203Y-112608659D01*
X140096587Y-112610893D01*
X140101444Y-112611662D01*
X140101446Y-112611663D01*
X140203145Y-112627770D01*
X140208000Y-112628539D01*
X140212855Y-112627770D01*
X140314554Y-112611663D01*
X140314556Y-112611662D01*
X140319413Y-112610893D01*
X140323797Y-112608659D01*
X140323798Y-112608659D01*
X140371316Y-112584447D01*
X140419920Y-112559682D01*
X140499682Y-112479920D01*
X140550893Y-112379413D01*
X140568539Y-112268000D01*
X158643461Y-112268000D01*
X158661107Y-112379413D01*
X158712318Y-112479920D01*
X158792080Y-112559682D01*
X158840684Y-112584447D01*
X158888202Y-112608659D01*
X158888203Y-112608659D01*
X158892587Y-112610893D01*
X158897444Y-112611662D01*
X158897446Y-112611663D01*
X158999145Y-112627770D01*
X159004000Y-112628539D01*
X159008855Y-112627770D01*
X159110554Y-112611663D01*
X159110556Y-112611662D01*
X159115413Y-112610893D01*
X159119797Y-112608659D01*
X159119798Y-112608659D01*
X159167316Y-112584447D01*
X159215920Y-112559682D01*
X159253602Y-112522000D01*
X170454461Y-112522000D01*
X170455230Y-112526855D01*
X170468462Y-112610398D01*
X170472107Y-112633413D01*
X170523318Y-112733920D01*
X170603080Y-112813682D01*
X170651684Y-112838447D01*
X170699202Y-112862659D01*
X170699203Y-112862659D01*
X170703587Y-112864893D01*
X170708444Y-112865662D01*
X170708446Y-112865663D01*
X170810145Y-112881770D01*
X170815000Y-112882539D01*
X170819855Y-112881770D01*
X170921554Y-112865663D01*
X170921556Y-112865662D01*
X170926413Y-112864893D01*
X170930797Y-112862659D01*
X170930798Y-112862659D01*
X170978316Y-112838447D01*
X171026920Y-112813682D01*
X171106682Y-112733920D01*
X171157893Y-112633413D01*
X171161539Y-112610398D01*
X171174770Y-112526855D01*
X171175539Y-112522000D01*
X171157893Y-112410587D01*
X171106682Y-112310080D01*
X171026920Y-112230318D01*
X170942813Y-112187463D01*
X170930798Y-112181341D01*
X170930797Y-112181341D01*
X170926413Y-112179107D01*
X170921556Y-112178338D01*
X170921554Y-112178337D01*
X170819855Y-112162230D01*
X170815000Y-112161461D01*
X170810145Y-112162230D01*
X170708446Y-112178337D01*
X170708444Y-112178338D01*
X170703587Y-112179107D01*
X170699203Y-112181341D01*
X170699202Y-112181341D01*
X170687187Y-112187463D01*
X170603080Y-112230318D01*
X170523318Y-112310080D01*
X170472107Y-112410587D01*
X170454461Y-112522000D01*
X159253602Y-112522000D01*
X159295682Y-112479920D01*
X159346893Y-112379413D01*
X159364539Y-112268000D01*
X159358217Y-112228085D01*
X159347663Y-112161446D01*
X159347662Y-112161444D01*
X159346893Y-112156587D01*
X159295682Y-112056080D01*
X159215920Y-111976318D01*
X159167316Y-111951553D01*
X159119798Y-111927341D01*
X159119797Y-111927341D01*
X159115413Y-111925107D01*
X159110556Y-111924338D01*
X159110554Y-111924337D01*
X159008855Y-111908230D01*
X159004000Y-111907461D01*
X158999145Y-111908230D01*
X158897446Y-111924337D01*
X158897444Y-111924338D01*
X158892587Y-111925107D01*
X158888203Y-111927341D01*
X158888202Y-111927341D01*
X158840684Y-111951553D01*
X158792080Y-111976318D01*
X158712318Y-112056080D01*
X158661107Y-112156587D01*
X158660338Y-112161444D01*
X158660337Y-112161446D01*
X158649783Y-112228085D01*
X158643461Y-112268000D01*
X140568539Y-112268000D01*
X140562217Y-112228085D01*
X140551663Y-112161446D01*
X140551662Y-112161444D01*
X140550893Y-112156587D01*
X140499682Y-112056080D01*
X140419920Y-111976318D01*
X140371316Y-111951553D01*
X140323798Y-111927341D01*
X140323797Y-111927341D01*
X140319413Y-111925107D01*
X140314556Y-111924338D01*
X140314554Y-111924337D01*
X140212855Y-111908230D01*
X140208000Y-111907461D01*
X140203145Y-111908230D01*
X140101446Y-111924337D01*
X140101444Y-111924338D01*
X140096587Y-111925107D01*
X140092203Y-111927341D01*
X140092202Y-111927341D01*
X140044684Y-111951553D01*
X139996080Y-111976318D01*
X139916318Y-112056080D01*
X139865107Y-112156587D01*
X139864338Y-112161444D01*
X139864337Y-112161446D01*
X139853783Y-112228085D01*
X139847461Y-112268000D01*
X129874951Y-112268000D01*
X129831682Y-112183080D01*
X129751920Y-112103318D01*
X129667813Y-112060463D01*
X129655798Y-112054341D01*
X129655797Y-112054341D01*
X129651413Y-112052107D01*
X129646556Y-112051338D01*
X129646554Y-112051337D01*
X129544855Y-112035230D01*
X129540000Y-112034461D01*
X129535145Y-112035230D01*
X129433446Y-112051337D01*
X129433444Y-112051338D01*
X129428587Y-112052107D01*
X129424203Y-112054341D01*
X129424202Y-112054341D01*
X129412187Y-112060463D01*
X129328080Y-112103318D01*
X129248318Y-112183080D01*
X129197107Y-112283587D01*
X129196338Y-112288444D01*
X129196337Y-112288446D01*
X129182699Y-112374554D01*
X129179461Y-112395000D01*
X122301000Y-112395000D01*
X122301000Y-111633000D01*
X140482461Y-111633000D01*
X140500107Y-111744413D01*
X140551318Y-111844920D01*
X140631080Y-111924682D01*
X140636299Y-111927341D01*
X140727202Y-111973659D01*
X140727203Y-111973659D01*
X140731587Y-111975893D01*
X140736444Y-111976662D01*
X140736446Y-111976663D01*
X140838145Y-111992770D01*
X140843000Y-111993539D01*
X140847855Y-111992770D01*
X140949554Y-111976663D01*
X140949556Y-111976662D01*
X140954413Y-111975893D01*
X140958797Y-111973659D01*
X140958798Y-111973659D01*
X141049701Y-111927341D01*
X141054920Y-111924682D01*
X141134682Y-111844920D01*
X141185893Y-111744413D01*
X141203539Y-111633000D01*
X155976461Y-111633000D01*
X155994107Y-111744413D01*
X156045318Y-111844920D01*
X156125080Y-111924682D01*
X156130299Y-111927341D01*
X156221202Y-111973659D01*
X156221203Y-111973659D01*
X156225587Y-111975893D01*
X156230444Y-111976662D01*
X156230446Y-111976663D01*
X156332145Y-111992770D01*
X156337000Y-111993539D01*
X156341855Y-111992770D01*
X156443554Y-111976663D01*
X156443556Y-111976662D01*
X156448413Y-111975893D01*
X156452797Y-111973659D01*
X156452798Y-111973659D01*
X156543701Y-111927341D01*
X156548920Y-111924682D01*
X156628682Y-111844920D01*
X156679893Y-111744413D01*
X156697539Y-111633000D01*
X156679893Y-111521587D01*
X156628682Y-111421080D01*
X156548920Y-111341318D01*
X156500316Y-111316553D01*
X156452798Y-111292341D01*
X156452797Y-111292341D01*
X156448413Y-111290107D01*
X156443556Y-111289338D01*
X156443554Y-111289337D01*
X156341855Y-111273230D01*
X156337000Y-111272461D01*
X156332145Y-111273230D01*
X156230446Y-111289337D01*
X156230444Y-111289338D01*
X156225587Y-111290107D01*
X156221203Y-111292341D01*
X156221202Y-111292341D01*
X156173684Y-111316553D01*
X156125080Y-111341318D01*
X156045318Y-111421080D01*
X155994107Y-111521587D01*
X155976461Y-111633000D01*
X141203539Y-111633000D01*
X141185893Y-111521587D01*
X141134682Y-111421080D01*
X141054920Y-111341318D01*
X141006316Y-111316553D01*
X140958798Y-111292341D01*
X140958797Y-111292341D01*
X140954413Y-111290107D01*
X140949556Y-111289338D01*
X140949554Y-111289337D01*
X140847855Y-111273230D01*
X140843000Y-111272461D01*
X140838145Y-111273230D01*
X140736446Y-111289337D01*
X140736444Y-111289338D01*
X140731587Y-111290107D01*
X140727203Y-111292341D01*
X140727202Y-111292341D01*
X140679684Y-111316553D01*
X140631080Y-111341318D01*
X140551318Y-111421080D01*
X140500107Y-111521587D01*
X140482461Y-111633000D01*
X122301000Y-111633000D01*
X122301000Y-110744000D01*
X149499461Y-110744000D01*
X149517107Y-110855413D01*
X149568318Y-110955920D01*
X149648080Y-111035682D01*
X149696684Y-111060447D01*
X149744202Y-111084659D01*
X149744203Y-111084659D01*
X149748587Y-111086893D01*
X149753444Y-111087662D01*
X149753446Y-111087663D01*
X149855145Y-111103770D01*
X149860000Y-111104539D01*
X149864855Y-111103770D01*
X149966554Y-111087663D01*
X149966556Y-111087662D01*
X149971413Y-111086893D01*
X149975797Y-111084659D01*
X149975798Y-111084659D01*
X150023316Y-111060447D01*
X150071920Y-111035682D01*
X150151682Y-110955920D01*
X150202893Y-110855413D01*
X150220539Y-110744000D01*
X150202893Y-110632587D01*
X150151682Y-110532080D01*
X150071920Y-110452318D01*
X150023316Y-110427553D01*
X149975798Y-110403341D01*
X149975797Y-110403341D01*
X149971413Y-110401107D01*
X149966556Y-110400338D01*
X149966554Y-110400337D01*
X149864855Y-110384230D01*
X149860000Y-110383461D01*
X149855145Y-110384230D01*
X149753446Y-110400337D01*
X149753444Y-110400338D01*
X149748587Y-110401107D01*
X149744203Y-110403341D01*
X149744202Y-110403341D01*
X149696684Y-110427553D01*
X149648080Y-110452318D01*
X149568318Y-110532080D01*
X149517107Y-110632587D01*
X149499461Y-110744000D01*
X122301000Y-110744000D01*
X122301000Y-110236000D01*
X146959461Y-110236000D01*
X146977107Y-110347413D01*
X147028318Y-110447920D01*
X147108080Y-110527682D01*
X147116712Y-110532080D01*
X147204202Y-110576659D01*
X147204203Y-110576659D01*
X147208587Y-110578893D01*
X147213444Y-110579662D01*
X147213446Y-110579663D01*
X147315145Y-110595770D01*
X147320000Y-110596539D01*
X147324855Y-110595770D01*
X147426554Y-110579663D01*
X147426556Y-110579662D01*
X147431413Y-110578893D01*
X147435797Y-110576659D01*
X147435798Y-110576659D01*
X147523288Y-110532080D01*
X147531920Y-110527682D01*
X147611682Y-110447920D01*
X147662893Y-110347413D01*
X147680539Y-110236000D01*
X147662893Y-110124587D01*
X147611682Y-110024080D01*
X147531920Y-109944318D01*
X147483316Y-109919553D01*
X147435798Y-109895341D01*
X147435797Y-109895341D01*
X147431413Y-109893107D01*
X147426556Y-109892338D01*
X147426554Y-109892337D01*
X147324855Y-109876230D01*
X147320000Y-109875461D01*
X147315145Y-109876230D01*
X147213446Y-109892337D01*
X147213444Y-109892338D01*
X147208587Y-109893107D01*
X147204203Y-109895341D01*
X147204202Y-109895341D01*
X147156684Y-109919553D01*
X147108080Y-109944318D01*
X147028318Y-110024080D01*
X146977107Y-110124587D01*
X146959461Y-110236000D01*
X122301000Y-110236000D01*
X122301000Y-109474000D01*
X135402461Y-109474000D01*
X135420107Y-109585413D01*
X135471318Y-109685920D01*
X135551080Y-109765682D01*
X135599684Y-109790447D01*
X135647202Y-109814659D01*
X135647203Y-109814659D01*
X135651587Y-109816893D01*
X135656444Y-109817662D01*
X135656446Y-109817663D01*
X135758145Y-109833770D01*
X135763000Y-109834539D01*
X135767855Y-109833770D01*
X135869554Y-109817663D01*
X135869556Y-109817662D01*
X135874413Y-109816893D01*
X135878797Y-109814659D01*
X135878798Y-109814659D01*
X135926316Y-109790447D01*
X135974920Y-109765682D01*
X136054682Y-109685920D01*
X136105893Y-109585413D01*
X136123539Y-109474000D01*
X137053461Y-109474000D01*
X137071107Y-109585413D01*
X137122318Y-109685920D01*
X137202080Y-109765682D01*
X137250684Y-109790447D01*
X137298202Y-109814659D01*
X137298203Y-109814659D01*
X137302587Y-109816893D01*
X137307444Y-109817662D01*
X137307446Y-109817663D01*
X137409145Y-109833770D01*
X137414000Y-109834539D01*
X137418855Y-109833770D01*
X137520554Y-109817663D01*
X137520556Y-109817662D01*
X137525413Y-109816893D01*
X137529797Y-109814659D01*
X137529798Y-109814659D01*
X137577316Y-109790447D01*
X137625920Y-109765682D01*
X137705682Y-109685920D01*
X137756893Y-109585413D01*
X137774539Y-109474000D01*
X137771177Y-109452770D01*
X137757663Y-109367446D01*
X137757662Y-109367444D01*
X137756893Y-109362587D01*
X137705682Y-109262080D01*
X137625920Y-109182318D01*
X137577316Y-109157553D01*
X137529798Y-109133341D01*
X137529797Y-109133341D01*
X137525413Y-109131107D01*
X137520556Y-109130338D01*
X137520554Y-109130337D01*
X137418855Y-109114230D01*
X137414000Y-109113461D01*
X137409145Y-109114230D01*
X137307446Y-109130337D01*
X137307444Y-109130338D01*
X137302587Y-109131107D01*
X137298203Y-109133341D01*
X137298202Y-109133341D01*
X137250684Y-109157553D01*
X137202080Y-109182318D01*
X137122318Y-109262080D01*
X137071107Y-109362587D01*
X137070338Y-109367444D01*
X137070337Y-109367446D01*
X137056823Y-109452770D01*
X137053461Y-109474000D01*
X136123539Y-109474000D01*
X136120177Y-109452770D01*
X136106663Y-109367446D01*
X136106662Y-109367444D01*
X136105893Y-109362587D01*
X136054682Y-109262080D01*
X135974920Y-109182318D01*
X135926316Y-109157553D01*
X135878798Y-109133341D01*
X135878797Y-109133341D01*
X135874413Y-109131107D01*
X135869556Y-109130338D01*
X135869554Y-109130337D01*
X135767855Y-109114230D01*
X135763000Y-109113461D01*
X135758145Y-109114230D01*
X135656446Y-109130337D01*
X135656444Y-109130338D01*
X135651587Y-109131107D01*
X135647203Y-109133341D01*
X135647202Y-109133341D01*
X135599684Y-109157553D01*
X135551080Y-109182318D01*
X135471318Y-109262080D01*
X135420107Y-109362587D01*
X135419338Y-109367444D01*
X135419337Y-109367446D01*
X135405823Y-109452770D01*
X135402461Y-109474000D01*
X122301000Y-109474000D01*
X122301000Y-109093000D01*
X141498461Y-109093000D01*
X141499230Y-109097855D01*
X141512608Y-109182318D01*
X141516107Y-109204413D01*
X141567318Y-109304920D01*
X141647080Y-109384682D01*
X141695684Y-109409447D01*
X141743202Y-109433659D01*
X141743203Y-109433659D01*
X141747587Y-109435893D01*
X141752444Y-109436662D01*
X141752446Y-109436663D01*
X141854145Y-109452770D01*
X141859000Y-109453539D01*
X141863855Y-109452770D01*
X141965554Y-109436663D01*
X141965556Y-109436662D01*
X141970413Y-109435893D01*
X141974797Y-109433659D01*
X141974798Y-109433659D01*
X142022316Y-109409447D01*
X142070920Y-109384682D01*
X142150682Y-109304920D01*
X142201893Y-109204413D01*
X142205393Y-109182318D01*
X142218770Y-109097855D01*
X142219539Y-109093000D01*
X142201893Y-108981587D01*
X142150682Y-108881080D01*
X142070920Y-108801318D01*
X142022316Y-108776553D01*
X141974798Y-108752341D01*
X141974797Y-108752341D01*
X141970413Y-108750107D01*
X141965556Y-108749338D01*
X141965554Y-108749337D01*
X141863855Y-108733230D01*
X141859000Y-108732461D01*
X141854145Y-108733230D01*
X141752446Y-108749337D01*
X141752444Y-108749338D01*
X141747587Y-108750107D01*
X141743203Y-108752341D01*
X141743202Y-108752341D01*
X141695684Y-108776553D01*
X141647080Y-108801318D01*
X141567318Y-108881080D01*
X141516107Y-108981587D01*
X141498461Y-109093000D01*
X122301000Y-109093000D01*
X122301000Y-108585000D01*
X165247461Y-108585000D01*
X165265107Y-108696413D01*
X165316318Y-108796920D01*
X165396080Y-108876682D01*
X165404712Y-108881080D01*
X165492202Y-108925659D01*
X165492203Y-108925659D01*
X165496587Y-108927893D01*
X165501444Y-108928662D01*
X165501446Y-108928663D01*
X165603145Y-108944770D01*
X165608000Y-108945539D01*
X165612855Y-108944770D01*
X165714554Y-108928663D01*
X165714556Y-108928662D01*
X165719413Y-108927893D01*
X165723797Y-108925659D01*
X165723798Y-108925659D01*
X165811288Y-108881080D01*
X165819920Y-108876682D01*
X165899682Y-108796920D01*
X165950893Y-108696413D01*
X165968539Y-108585000D01*
X165950893Y-108473587D01*
X165899682Y-108373080D01*
X165819920Y-108293318D01*
X165771316Y-108268553D01*
X165723798Y-108244341D01*
X165723797Y-108244341D01*
X165719413Y-108242107D01*
X165714556Y-108241338D01*
X165714554Y-108241337D01*
X165612855Y-108225230D01*
X165608000Y-108224461D01*
X165603145Y-108225230D01*
X165501446Y-108241337D01*
X165501444Y-108241338D01*
X165496587Y-108242107D01*
X165492203Y-108244341D01*
X165492202Y-108244341D01*
X165444684Y-108268553D01*
X165396080Y-108293318D01*
X165316318Y-108373080D01*
X165265107Y-108473587D01*
X165247461Y-108585000D01*
X122301000Y-108585000D01*
X122301000Y-108077000D01*
X141498461Y-108077000D01*
X141516107Y-108188413D01*
X141567318Y-108288920D01*
X141647080Y-108368682D01*
X141655712Y-108373080D01*
X141743202Y-108417659D01*
X141743203Y-108417659D01*
X141747587Y-108419893D01*
X141752444Y-108420662D01*
X141752446Y-108420663D01*
X141854145Y-108436770D01*
X141859000Y-108437539D01*
X141863855Y-108436770D01*
X141965554Y-108420663D01*
X141965556Y-108420662D01*
X141970413Y-108419893D01*
X141974797Y-108417659D01*
X141974798Y-108417659D01*
X142062288Y-108373080D01*
X142070920Y-108368682D01*
X142150682Y-108288920D01*
X142201893Y-108188413D01*
X142219539Y-108077000D01*
X142201893Y-107965587D01*
X142150682Y-107865080D01*
X142070920Y-107785318D01*
X142022316Y-107760553D01*
X141974798Y-107736341D01*
X141974797Y-107736341D01*
X141970413Y-107734107D01*
X141965556Y-107733338D01*
X141965554Y-107733337D01*
X141863855Y-107717230D01*
X141859000Y-107716461D01*
X141854145Y-107717230D01*
X141752446Y-107733337D01*
X141752444Y-107733338D01*
X141747587Y-107734107D01*
X141743203Y-107736341D01*
X141743202Y-107736341D01*
X141695684Y-107760553D01*
X141647080Y-107785318D01*
X141567318Y-107865080D01*
X141516107Y-107965587D01*
X141498461Y-108077000D01*
X122301000Y-108077000D01*
X122301000Y-106934000D01*
X132862461Y-106934000D01*
X132880107Y-107045413D01*
X132931318Y-107145920D01*
X133011080Y-107225682D01*
X133059684Y-107250447D01*
X133107202Y-107274659D01*
X133107203Y-107274659D01*
X133111587Y-107276893D01*
X133116444Y-107277662D01*
X133116446Y-107277663D01*
X133218145Y-107293770D01*
X133223000Y-107294539D01*
X133227855Y-107293770D01*
X133329554Y-107277663D01*
X133329556Y-107277662D01*
X133334413Y-107276893D01*
X133338797Y-107274659D01*
X133338798Y-107274659D01*
X133386316Y-107250447D01*
X133434920Y-107225682D01*
X133514682Y-107145920D01*
X133565893Y-107045413D01*
X133583539Y-106934000D01*
X141498461Y-106934000D01*
X141516107Y-107045413D01*
X141567318Y-107145920D01*
X141647080Y-107225682D01*
X141695684Y-107250447D01*
X141743202Y-107274659D01*
X141743203Y-107274659D01*
X141747587Y-107276893D01*
X141752444Y-107277662D01*
X141752446Y-107277663D01*
X141854145Y-107293770D01*
X141859000Y-107294539D01*
X141863855Y-107293770D01*
X141965554Y-107277663D01*
X141965556Y-107277662D01*
X141970413Y-107276893D01*
X141974797Y-107274659D01*
X141974798Y-107274659D01*
X142022316Y-107250447D01*
X142070920Y-107225682D01*
X142150682Y-107145920D01*
X142201893Y-107045413D01*
X142219539Y-106934000D01*
X142201893Y-106822587D01*
X142150682Y-106722080D01*
X142070920Y-106642318D01*
X142022316Y-106617553D01*
X141974798Y-106593341D01*
X141974797Y-106593341D01*
X141970413Y-106591107D01*
X141965556Y-106590338D01*
X141965554Y-106590337D01*
X141863855Y-106574230D01*
X141859000Y-106573461D01*
X141854145Y-106574230D01*
X141752446Y-106590337D01*
X141752444Y-106590338D01*
X141747587Y-106591107D01*
X141743203Y-106593341D01*
X141743202Y-106593341D01*
X141695684Y-106617553D01*
X141647080Y-106642318D01*
X141567318Y-106722080D01*
X141516107Y-106822587D01*
X141498461Y-106934000D01*
X133583539Y-106934000D01*
X133565893Y-106822587D01*
X133514682Y-106722080D01*
X133434920Y-106642318D01*
X133386316Y-106617553D01*
X133338798Y-106593341D01*
X133338797Y-106593341D01*
X133334413Y-106591107D01*
X133329556Y-106590338D01*
X133329554Y-106590337D01*
X133227855Y-106574230D01*
X133223000Y-106573461D01*
X133218145Y-106574230D01*
X133116446Y-106590337D01*
X133116444Y-106590338D01*
X133111587Y-106591107D01*
X133107203Y-106593341D01*
X133107202Y-106593341D01*
X133059684Y-106617553D01*
X133011080Y-106642318D01*
X132931318Y-106722080D01*
X132880107Y-106822587D01*
X132862461Y-106934000D01*
X122301000Y-106934000D01*
X122301000Y-106045000D01*
X137053461Y-106045000D01*
X137071107Y-106156413D01*
X137122318Y-106256920D01*
X137202080Y-106336682D01*
X137250684Y-106361447D01*
X137298202Y-106385659D01*
X137298203Y-106385659D01*
X137302587Y-106387893D01*
X137307444Y-106388662D01*
X137307446Y-106388663D01*
X137409145Y-106404770D01*
X137414000Y-106405539D01*
X137418855Y-106404770D01*
X137520554Y-106388663D01*
X137520556Y-106388662D01*
X137525413Y-106387893D01*
X137529797Y-106385659D01*
X137529798Y-106385659D01*
X137577316Y-106361447D01*
X137625920Y-106336682D01*
X137705682Y-106256920D01*
X137756893Y-106156413D01*
X137774539Y-106045000D01*
X141498461Y-106045000D01*
X141516107Y-106156413D01*
X141567318Y-106256920D01*
X141647080Y-106336682D01*
X141695684Y-106361447D01*
X141743202Y-106385659D01*
X141743203Y-106385659D01*
X141747587Y-106387893D01*
X141752444Y-106388662D01*
X141752446Y-106388663D01*
X141854145Y-106404770D01*
X141859000Y-106405539D01*
X141863855Y-106404770D01*
X141965554Y-106388663D01*
X141965556Y-106388662D01*
X141970413Y-106387893D01*
X141974797Y-106385659D01*
X141974798Y-106385659D01*
X142022316Y-106361447D01*
X142070920Y-106336682D01*
X142150682Y-106256920D01*
X142201893Y-106156413D01*
X142219539Y-106045000D01*
X142201893Y-105933587D01*
X142150682Y-105833080D01*
X142070920Y-105753318D01*
X142022316Y-105728553D01*
X141974798Y-105704341D01*
X141974797Y-105704341D01*
X141970413Y-105702107D01*
X141965556Y-105701338D01*
X141965554Y-105701337D01*
X141863855Y-105685230D01*
X141859000Y-105684461D01*
X141854145Y-105685230D01*
X141752446Y-105701337D01*
X141752444Y-105701338D01*
X141747587Y-105702107D01*
X141743203Y-105704341D01*
X141743202Y-105704341D01*
X141695684Y-105728553D01*
X141647080Y-105753318D01*
X141567318Y-105833080D01*
X141516107Y-105933587D01*
X141498461Y-106045000D01*
X137774539Y-106045000D01*
X137756893Y-105933587D01*
X137705682Y-105833080D01*
X137625920Y-105753318D01*
X137577316Y-105728553D01*
X137529798Y-105704341D01*
X137529797Y-105704341D01*
X137525413Y-105702107D01*
X137520556Y-105701338D01*
X137520554Y-105701337D01*
X137418855Y-105685230D01*
X137414000Y-105684461D01*
X137409145Y-105685230D01*
X137307446Y-105701337D01*
X137307444Y-105701338D01*
X137302587Y-105702107D01*
X137298203Y-105704341D01*
X137298202Y-105704341D01*
X137250684Y-105728553D01*
X137202080Y-105753318D01*
X137122318Y-105833080D01*
X137071107Y-105933587D01*
X137053461Y-106045000D01*
X122301000Y-106045000D01*
X122301000Y-105537000D01*
X166898461Y-105537000D01*
X166916107Y-105648413D01*
X166967318Y-105748920D01*
X167047080Y-105828682D01*
X167055712Y-105833080D01*
X167143202Y-105877659D01*
X167143203Y-105877659D01*
X167147587Y-105879893D01*
X167152444Y-105880662D01*
X167152446Y-105880663D01*
X167254145Y-105896770D01*
X167259000Y-105897539D01*
X167263855Y-105896770D01*
X167365554Y-105880663D01*
X167365556Y-105880662D01*
X167370413Y-105879893D01*
X167374797Y-105877659D01*
X167374798Y-105877659D01*
X167462288Y-105833080D01*
X167470920Y-105828682D01*
X167550682Y-105748920D01*
X167601893Y-105648413D01*
X167619539Y-105537000D01*
X167601893Y-105425587D01*
X167550682Y-105325080D01*
X167470920Y-105245318D01*
X167422316Y-105220553D01*
X167374798Y-105196341D01*
X167374797Y-105196341D01*
X167370413Y-105194107D01*
X167365556Y-105193338D01*
X167365554Y-105193337D01*
X167263855Y-105177230D01*
X167259000Y-105176461D01*
X167254145Y-105177230D01*
X167152446Y-105193337D01*
X167152444Y-105193338D01*
X167147587Y-105194107D01*
X167143203Y-105196341D01*
X167143202Y-105196341D01*
X167095684Y-105220553D01*
X167047080Y-105245318D01*
X166967318Y-105325080D01*
X166916107Y-105425587D01*
X166898461Y-105537000D01*
X122301000Y-105537000D01*
X122301000Y-104775000D01*
X129941461Y-104775000D01*
X129942230Y-104779855D01*
X129957840Y-104878412D01*
X129959107Y-104886413D01*
X130010318Y-104986920D01*
X130090080Y-105066682D01*
X130138684Y-105091447D01*
X130186202Y-105115659D01*
X130186203Y-105115659D01*
X130190587Y-105117893D01*
X130195444Y-105118662D01*
X130195446Y-105118663D01*
X130297145Y-105134770D01*
X130302000Y-105135539D01*
X130306855Y-105134770D01*
X130408554Y-105118663D01*
X130408556Y-105118662D01*
X130413413Y-105117893D01*
X130417797Y-105115659D01*
X130417798Y-105115659D01*
X130465316Y-105091447D01*
X130513920Y-105066682D01*
X130593682Y-104986920D01*
X130627313Y-104920917D01*
X130663687Y-104889851D01*
X130711375Y-104893604D01*
X130738687Y-104920916D01*
X130772318Y-104986920D01*
X130852080Y-105066682D01*
X130900684Y-105091447D01*
X130948202Y-105115659D01*
X130948203Y-105115659D01*
X130952587Y-105117893D01*
X130957444Y-105118662D01*
X130957446Y-105118663D01*
X131059145Y-105134770D01*
X131064000Y-105135539D01*
X131068855Y-105134770D01*
X131170554Y-105118663D01*
X131170556Y-105118662D01*
X131175413Y-105117893D01*
X131179797Y-105115659D01*
X131179798Y-105115659D01*
X131227316Y-105091447D01*
X131275920Y-105066682D01*
X131355682Y-104986920D01*
X131406893Y-104886413D01*
X131408161Y-104878412D01*
X131423770Y-104779855D01*
X131424539Y-104775000D01*
X131409929Y-104682754D01*
X131407663Y-104668446D01*
X131407662Y-104668444D01*
X131406893Y-104663587D01*
X131355682Y-104563080D01*
X131313602Y-104521000D01*
X168930461Y-104521000D01*
X168931230Y-104525855D01*
X168944755Y-104611247D01*
X168948107Y-104632413D01*
X168999318Y-104732920D01*
X169079080Y-104812682D01*
X169087712Y-104817080D01*
X169175202Y-104861659D01*
X169175203Y-104861659D01*
X169179587Y-104863893D01*
X169184444Y-104864662D01*
X169184446Y-104864663D01*
X169286145Y-104880770D01*
X169291000Y-104881539D01*
X169295855Y-104880770D01*
X169295861Y-104880770D01*
X169381247Y-104867246D01*
X169427760Y-104878412D01*
X169452754Y-104919199D01*
X169452754Y-104938753D01*
X169439230Y-105024139D01*
X169439230Y-105024145D01*
X169438461Y-105029000D01*
X169456107Y-105140413D01*
X169507318Y-105240920D01*
X169587080Y-105320682D01*
X169595712Y-105325080D01*
X169683202Y-105369659D01*
X169683203Y-105369659D01*
X169687587Y-105371893D01*
X169692444Y-105372662D01*
X169692446Y-105372663D01*
X169794145Y-105388770D01*
X169799000Y-105389539D01*
X169803855Y-105388770D01*
X169905554Y-105372663D01*
X169905556Y-105372662D01*
X169910413Y-105371893D01*
X169914797Y-105369659D01*
X169914798Y-105369659D01*
X170002288Y-105325080D01*
X170010920Y-105320682D01*
X170090682Y-105240920D01*
X170141893Y-105140413D01*
X170159539Y-105029000D01*
X170152874Y-104986920D01*
X170142663Y-104922446D01*
X170142662Y-104922444D01*
X170141893Y-104917587D01*
X170090682Y-104817080D01*
X170010920Y-104737318D01*
X169962316Y-104712553D01*
X169914798Y-104688341D01*
X169914797Y-104688341D01*
X169910413Y-104686107D01*
X169905556Y-104685338D01*
X169905554Y-104685337D01*
X169803855Y-104669230D01*
X169799000Y-104668461D01*
X169794145Y-104669230D01*
X169794139Y-104669230D01*
X169708753Y-104682754D01*
X169662240Y-104671588D01*
X169637246Y-104630801D01*
X169637246Y-104611247D01*
X169650770Y-104525861D01*
X169650770Y-104525855D01*
X169651539Y-104521000D01*
X169633893Y-104409587D01*
X169582682Y-104309080D01*
X169502920Y-104229318D01*
X169454316Y-104204553D01*
X169406798Y-104180341D01*
X169406797Y-104180341D01*
X169402413Y-104178107D01*
X169397556Y-104177338D01*
X169397554Y-104177337D01*
X169295855Y-104161230D01*
X169291000Y-104160461D01*
X169286145Y-104161230D01*
X169184446Y-104177337D01*
X169184444Y-104177338D01*
X169179587Y-104178107D01*
X169175203Y-104180341D01*
X169175202Y-104180341D01*
X169127684Y-104204553D01*
X169079080Y-104229318D01*
X168999318Y-104309080D01*
X168948107Y-104409587D01*
X168930461Y-104521000D01*
X131313602Y-104521000D01*
X131275920Y-104483318D01*
X131227316Y-104458553D01*
X131179798Y-104434341D01*
X131179797Y-104434341D01*
X131175413Y-104432107D01*
X131170556Y-104431338D01*
X131170554Y-104431337D01*
X131068855Y-104415230D01*
X131064000Y-104414461D01*
X131059145Y-104415230D01*
X130957446Y-104431337D01*
X130957444Y-104431338D01*
X130952587Y-104432107D01*
X130948203Y-104434341D01*
X130948202Y-104434341D01*
X130900684Y-104458553D01*
X130852080Y-104483318D01*
X130772318Y-104563080D01*
X130770085Y-104567463D01*
X130738688Y-104629083D01*
X130702313Y-104660149D01*
X130654625Y-104656396D01*
X130627312Y-104629083D01*
X130595915Y-104567463D01*
X130593682Y-104563080D01*
X130513920Y-104483318D01*
X130465316Y-104458553D01*
X130417798Y-104434341D01*
X130417797Y-104434341D01*
X130413413Y-104432107D01*
X130408556Y-104431338D01*
X130408554Y-104431337D01*
X130306855Y-104415230D01*
X130302000Y-104414461D01*
X130297145Y-104415230D01*
X130195446Y-104431337D01*
X130195444Y-104431338D01*
X130190587Y-104432107D01*
X130186203Y-104434341D01*
X130186202Y-104434341D01*
X130138684Y-104458553D01*
X130090080Y-104483318D01*
X130010318Y-104563080D01*
X129959107Y-104663587D01*
X129958338Y-104668444D01*
X129958337Y-104668446D01*
X129956071Y-104682754D01*
X129941461Y-104775000D01*
X122301000Y-104775000D01*
X122301000Y-104013012D01*
X166898461Y-104013012D01*
X166916107Y-104124425D01*
X166967318Y-104224932D01*
X167047080Y-104304694D01*
X167055688Y-104309080D01*
X167143202Y-104353671D01*
X167143203Y-104353671D01*
X167147587Y-104355905D01*
X167152444Y-104356674D01*
X167152446Y-104356675D01*
X167254145Y-104372782D01*
X167259000Y-104373551D01*
X167263855Y-104372782D01*
X167365554Y-104356675D01*
X167365556Y-104356674D01*
X167370413Y-104355905D01*
X167374797Y-104353671D01*
X167374798Y-104353671D01*
X167462312Y-104309080D01*
X167470920Y-104304694D01*
X167550682Y-104224932D01*
X167601893Y-104124425D01*
X167619539Y-104013012D01*
X170200449Y-104013012D01*
X170218095Y-104124425D01*
X170269306Y-104224932D01*
X170349068Y-104304694D01*
X170357676Y-104309080D01*
X170445190Y-104353671D01*
X170445191Y-104353671D01*
X170449575Y-104355905D01*
X170454432Y-104356674D01*
X170454434Y-104356675D01*
X170556133Y-104372782D01*
X170560988Y-104373551D01*
X170565843Y-104372782D01*
X170667542Y-104356675D01*
X170667544Y-104356674D01*
X170672401Y-104355905D01*
X170676785Y-104353671D01*
X170676786Y-104353671D01*
X170764300Y-104309080D01*
X170772908Y-104304694D01*
X170834294Y-104243308D01*
X170878488Y-104225002D01*
X170922682Y-104243308D01*
X170984068Y-104304694D01*
X170992676Y-104309080D01*
X171080190Y-104353671D01*
X171080191Y-104353671D01*
X171084575Y-104355905D01*
X171089432Y-104356674D01*
X171089434Y-104356675D01*
X171191133Y-104372782D01*
X171195988Y-104373551D01*
X171200843Y-104372782D01*
X171302542Y-104356675D01*
X171302544Y-104356674D01*
X171307401Y-104355905D01*
X171311785Y-104353671D01*
X171311786Y-104353671D01*
X171399300Y-104309080D01*
X171407908Y-104304694D01*
X171469294Y-104243308D01*
X171513488Y-104225002D01*
X171557682Y-104243308D01*
X171619068Y-104304694D01*
X171627676Y-104309080D01*
X171715190Y-104353671D01*
X171715191Y-104353671D01*
X171719575Y-104355905D01*
X171724432Y-104356674D01*
X171724434Y-104356675D01*
X171826133Y-104372782D01*
X171830988Y-104373551D01*
X171835843Y-104372782D01*
X171937542Y-104356675D01*
X171937544Y-104356674D01*
X171942401Y-104355905D01*
X171946785Y-104353671D01*
X171946786Y-104353671D01*
X172034300Y-104309080D01*
X172042908Y-104304694D01*
X172122670Y-104224932D01*
X172173881Y-104124425D01*
X172191527Y-104013012D01*
X172173881Y-103901599D01*
X172122670Y-103801092D01*
X172042908Y-103721330D01*
X171994304Y-103696565D01*
X171946786Y-103672353D01*
X171946785Y-103672353D01*
X171942401Y-103670119D01*
X171937544Y-103669350D01*
X171937542Y-103669349D01*
X171835843Y-103653242D01*
X171830988Y-103652473D01*
X171826133Y-103653242D01*
X171724434Y-103669349D01*
X171724432Y-103669350D01*
X171719575Y-103670119D01*
X171715191Y-103672353D01*
X171715190Y-103672353D01*
X171667672Y-103696565D01*
X171619068Y-103721330D01*
X171557682Y-103782716D01*
X171513488Y-103801022D01*
X171469294Y-103782716D01*
X171407908Y-103721330D01*
X171359304Y-103696565D01*
X171311786Y-103672353D01*
X171311785Y-103672353D01*
X171307401Y-103670119D01*
X171302544Y-103669350D01*
X171302542Y-103669349D01*
X171200843Y-103653242D01*
X171195988Y-103652473D01*
X171191133Y-103653242D01*
X171089434Y-103669349D01*
X171089432Y-103669350D01*
X171084575Y-103670119D01*
X171080191Y-103672353D01*
X171080190Y-103672353D01*
X171032672Y-103696565D01*
X170984068Y-103721330D01*
X170922682Y-103782716D01*
X170878488Y-103801022D01*
X170834294Y-103782716D01*
X170772908Y-103721330D01*
X170724304Y-103696565D01*
X170676786Y-103672353D01*
X170676785Y-103672353D01*
X170672401Y-103670119D01*
X170667544Y-103669350D01*
X170667542Y-103669349D01*
X170565843Y-103653242D01*
X170560988Y-103652473D01*
X170556133Y-103653242D01*
X170454434Y-103669349D01*
X170454432Y-103669350D01*
X170449575Y-103670119D01*
X170445191Y-103672353D01*
X170445190Y-103672353D01*
X170397672Y-103696565D01*
X170349068Y-103721330D01*
X170269306Y-103801092D01*
X170218095Y-103901599D01*
X170200449Y-104013012D01*
X167619539Y-104013012D01*
X167601893Y-103901599D01*
X167550682Y-103801092D01*
X167470920Y-103721330D01*
X167422316Y-103696565D01*
X167374798Y-103672353D01*
X167374797Y-103672353D01*
X167370413Y-103670119D01*
X167365556Y-103669350D01*
X167365554Y-103669349D01*
X167263855Y-103653242D01*
X167259000Y-103652473D01*
X167254145Y-103653242D01*
X167152446Y-103669349D01*
X167152444Y-103669350D01*
X167147587Y-103670119D01*
X167143203Y-103672353D01*
X167143202Y-103672353D01*
X167095684Y-103696565D01*
X167047080Y-103721330D01*
X166967318Y-103801092D01*
X166916107Y-103901599D01*
X166898461Y-104013012D01*
X122301000Y-104013012D01*
X122301000Y-103124000D01*
X146324461Y-103124000D01*
X146342107Y-103235413D01*
X146393318Y-103335920D01*
X146473080Y-103415682D01*
X146521684Y-103440447D01*
X146569202Y-103464659D01*
X146569203Y-103464659D01*
X146573587Y-103466893D01*
X146578444Y-103467662D01*
X146578446Y-103467663D01*
X146680145Y-103483770D01*
X146685000Y-103484539D01*
X146689855Y-103483770D01*
X146791554Y-103467663D01*
X146791556Y-103467662D01*
X146796413Y-103466893D01*
X146800797Y-103464659D01*
X146800798Y-103464659D01*
X146848316Y-103440447D01*
X146896920Y-103415682D01*
X146934602Y-103378000D01*
X168930461Y-103378000D01*
X168948107Y-103489413D01*
X168999318Y-103589920D01*
X169079080Y-103669682D01*
X169127684Y-103694447D01*
X169175202Y-103718659D01*
X169175203Y-103718659D01*
X169179587Y-103720893D01*
X169184444Y-103721662D01*
X169184446Y-103721663D01*
X169286145Y-103737770D01*
X169291000Y-103738539D01*
X169295855Y-103737770D01*
X169397554Y-103721663D01*
X169397556Y-103721662D01*
X169402413Y-103720893D01*
X169406797Y-103718659D01*
X169406798Y-103718659D01*
X169454316Y-103694447D01*
X169502920Y-103669682D01*
X169582682Y-103589920D01*
X169633893Y-103489413D01*
X169651539Y-103378000D01*
X169633893Y-103266587D01*
X169582682Y-103166080D01*
X169502920Y-103086318D01*
X169436917Y-103052687D01*
X169405851Y-103016313D01*
X169409604Y-102968625D01*
X169436916Y-102941313D01*
X169502920Y-102907682D01*
X169582682Y-102827920D01*
X169633893Y-102727413D01*
X169651539Y-102616000D01*
X169649118Y-102600716D01*
X169634663Y-102509446D01*
X169634662Y-102509444D01*
X169633893Y-102504587D01*
X169582682Y-102404080D01*
X169502920Y-102324318D01*
X169454316Y-102299553D01*
X169406798Y-102275341D01*
X169406797Y-102275341D01*
X169402413Y-102273107D01*
X169397556Y-102272338D01*
X169397554Y-102272337D01*
X169295855Y-102256230D01*
X169291000Y-102255461D01*
X169286145Y-102256230D01*
X169184446Y-102272337D01*
X169184444Y-102272338D01*
X169179587Y-102273107D01*
X169175203Y-102275341D01*
X169175202Y-102275341D01*
X169127684Y-102299553D01*
X169079080Y-102324318D01*
X168999318Y-102404080D01*
X168948107Y-102504587D01*
X168947338Y-102509444D01*
X168947337Y-102509446D01*
X168932882Y-102600716D01*
X168930461Y-102616000D01*
X168948107Y-102727413D01*
X168999318Y-102827920D01*
X169079080Y-102907682D01*
X169145083Y-102941313D01*
X169176149Y-102977687D01*
X169172396Y-103025375D01*
X169145084Y-103052687D01*
X169079080Y-103086318D01*
X168999318Y-103166080D01*
X168948107Y-103266587D01*
X168930461Y-103378000D01*
X146934602Y-103378000D01*
X146976682Y-103335920D01*
X147027893Y-103235413D01*
X147045539Y-103124000D01*
X147040122Y-103089796D01*
X147028663Y-103017446D01*
X147028662Y-103017444D01*
X147027893Y-103012587D01*
X146976682Y-102912080D01*
X146896920Y-102832318D01*
X146848316Y-102807553D01*
X146800798Y-102783341D01*
X146800797Y-102783341D01*
X146796413Y-102781107D01*
X146791556Y-102780338D01*
X146791554Y-102780337D01*
X146689855Y-102764230D01*
X146685000Y-102763461D01*
X146680145Y-102764230D01*
X146578446Y-102780337D01*
X146578444Y-102780338D01*
X146573587Y-102781107D01*
X146569203Y-102783341D01*
X146569202Y-102783341D01*
X146521684Y-102807553D01*
X146473080Y-102832318D01*
X146393318Y-102912080D01*
X146342107Y-103012587D01*
X146341338Y-103017444D01*
X146341337Y-103017446D01*
X146329878Y-103089796D01*
X146324461Y-103124000D01*
X122301000Y-103124000D01*
X122301000Y-102743000D01*
X134259461Y-102743000D01*
X134260230Y-102747855D01*
X134273608Y-102832318D01*
X134277107Y-102854413D01*
X134328318Y-102954920D01*
X134408080Y-103034682D01*
X134443419Y-103052688D01*
X134504202Y-103083659D01*
X134504203Y-103083659D01*
X134508587Y-103085893D01*
X134513444Y-103086662D01*
X134513446Y-103086663D01*
X134615145Y-103102770D01*
X134620000Y-103103539D01*
X134624855Y-103102770D01*
X134726554Y-103086663D01*
X134726556Y-103086662D01*
X134731413Y-103085893D01*
X134735797Y-103083659D01*
X134735798Y-103083659D01*
X134796581Y-103052688D01*
X134831920Y-103034682D01*
X134911682Y-102954920D01*
X134962893Y-102854413D01*
X134966393Y-102832318D01*
X134979770Y-102747855D01*
X134980539Y-102743000D01*
X134962893Y-102631587D01*
X134911682Y-102531080D01*
X134831920Y-102451318D01*
X134765917Y-102417687D01*
X134734851Y-102381313D01*
X134738604Y-102333625D01*
X134765916Y-102306313D01*
X134831920Y-102272682D01*
X134911682Y-102192920D01*
X134962893Y-102092413D01*
X134966539Y-102069398D01*
X134979770Y-101985855D01*
X134980539Y-101981000D01*
X160548461Y-101981000D01*
X160549230Y-101985855D01*
X160562462Y-102069398D01*
X160566107Y-102092413D01*
X160617318Y-102192920D01*
X160697080Y-102272682D01*
X160702299Y-102275341D01*
X160793202Y-102321659D01*
X160793203Y-102321659D01*
X160797587Y-102323893D01*
X160802444Y-102324662D01*
X160802446Y-102324663D01*
X160904145Y-102340770D01*
X160909000Y-102341539D01*
X160913855Y-102340770D01*
X161015554Y-102324663D01*
X161015556Y-102324662D01*
X161020413Y-102323893D01*
X161024797Y-102321659D01*
X161024798Y-102321659D01*
X161115701Y-102275341D01*
X161120920Y-102272682D01*
X161200682Y-102192920D01*
X161251893Y-102092413D01*
X161255539Y-102069398D01*
X161268770Y-101985855D01*
X161269537Y-101981012D01*
X166644461Y-101981012D01*
X166645230Y-101985867D01*
X166661336Y-102087554D01*
X166662107Y-102092425D01*
X166713318Y-102192932D01*
X166793080Y-102272694D01*
X166841684Y-102297459D01*
X166889202Y-102321671D01*
X166889203Y-102321671D01*
X166893587Y-102323905D01*
X166898444Y-102324674D01*
X166898446Y-102324675D01*
X167000145Y-102340782D01*
X167005000Y-102341551D01*
X167009855Y-102340782D01*
X167111554Y-102324675D01*
X167111556Y-102324674D01*
X167116413Y-102323905D01*
X167120797Y-102321671D01*
X167120798Y-102321671D01*
X167168316Y-102297459D01*
X167216920Y-102272694D01*
X167296682Y-102192932D01*
X167347893Y-102092425D01*
X167348665Y-102087554D01*
X167364770Y-101985867D01*
X167365539Y-101981012D01*
X167347893Y-101869599D01*
X167296682Y-101769092D01*
X167216920Y-101689330D01*
X167124187Y-101642080D01*
X167120798Y-101640353D01*
X167120797Y-101640353D01*
X167116413Y-101638119D01*
X167111556Y-101637350D01*
X167111554Y-101637349D01*
X167009855Y-101621242D01*
X167005000Y-101620473D01*
X167000145Y-101621242D01*
X166898446Y-101637349D01*
X166898444Y-101637350D01*
X166893587Y-101638119D01*
X166889203Y-101640353D01*
X166889202Y-101640353D01*
X166885813Y-101642080D01*
X166793080Y-101689330D01*
X166713318Y-101769092D01*
X166662107Y-101869599D01*
X166644461Y-101981012D01*
X161269537Y-101981012D01*
X161269539Y-101981000D01*
X161266301Y-101960554D01*
X161252663Y-101874446D01*
X161252662Y-101874444D01*
X161251893Y-101869587D01*
X161200682Y-101769080D01*
X161120920Y-101689318D01*
X161036813Y-101646463D01*
X161024798Y-101640341D01*
X161024797Y-101640341D01*
X161020413Y-101638107D01*
X161015556Y-101637338D01*
X161015554Y-101637337D01*
X160913855Y-101621230D01*
X160909000Y-101620461D01*
X160904145Y-101621230D01*
X160802446Y-101637337D01*
X160802444Y-101637338D01*
X160797587Y-101638107D01*
X160793203Y-101640341D01*
X160793202Y-101640341D01*
X160781187Y-101646463D01*
X160697080Y-101689318D01*
X160617318Y-101769080D01*
X160566107Y-101869587D01*
X160565338Y-101874444D01*
X160565337Y-101874446D01*
X160551699Y-101960554D01*
X160548461Y-101981000D01*
X134980539Y-101981000D01*
X134977301Y-101960554D01*
X134963663Y-101874446D01*
X134963662Y-101874444D01*
X134962893Y-101869587D01*
X134911682Y-101769080D01*
X134831920Y-101689318D01*
X134747813Y-101646463D01*
X134735798Y-101640341D01*
X134735797Y-101640341D01*
X134731413Y-101638107D01*
X134726556Y-101637338D01*
X134726554Y-101637337D01*
X134624855Y-101621230D01*
X134620000Y-101620461D01*
X134615145Y-101621230D01*
X134513446Y-101637337D01*
X134513444Y-101637338D01*
X134508587Y-101638107D01*
X134504203Y-101640341D01*
X134504202Y-101640341D01*
X134492187Y-101646463D01*
X134408080Y-101689318D01*
X134328318Y-101769080D01*
X134277107Y-101869587D01*
X134276338Y-101874444D01*
X134276337Y-101874446D01*
X134262699Y-101960554D01*
X134259461Y-101981000D01*
X134260230Y-101985855D01*
X134273462Y-102069398D01*
X134277107Y-102092413D01*
X134328318Y-102192920D01*
X134408080Y-102272682D01*
X134474083Y-102306313D01*
X134505149Y-102342687D01*
X134501396Y-102390375D01*
X134474084Y-102417687D01*
X134408080Y-102451318D01*
X134328318Y-102531080D01*
X134277107Y-102631587D01*
X134259461Y-102743000D01*
X122301000Y-102743000D01*
X122301000Y-101854000D01*
X125242461Y-101854000D01*
X125260107Y-101965413D01*
X125311318Y-102065920D01*
X125391080Y-102145682D01*
X125439684Y-102170447D01*
X125487202Y-102194659D01*
X125487203Y-102194659D01*
X125491587Y-102196893D01*
X125496444Y-102197662D01*
X125496446Y-102197663D01*
X125598145Y-102213770D01*
X125603000Y-102214539D01*
X125607855Y-102213770D01*
X125709554Y-102197663D01*
X125709556Y-102197662D01*
X125714413Y-102196893D01*
X125718797Y-102194659D01*
X125718798Y-102194659D01*
X125766316Y-102170447D01*
X125814920Y-102145682D01*
X125894682Y-102065920D01*
X125945893Y-101965413D01*
X125963539Y-101854000D01*
X125950785Y-101773475D01*
X125946663Y-101747446D01*
X125946662Y-101747444D01*
X125945893Y-101742587D01*
X125894682Y-101642080D01*
X125814920Y-101562318D01*
X125766316Y-101537553D01*
X125718798Y-101513341D01*
X125718797Y-101513341D01*
X125714413Y-101511107D01*
X125709556Y-101510338D01*
X125709554Y-101510337D01*
X125607855Y-101494230D01*
X125603000Y-101493461D01*
X125598145Y-101494230D01*
X125496446Y-101510337D01*
X125496444Y-101510338D01*
X125491587Y-101511107D01*
X125487203Y-101513341D01*
X125487202Y-101513341D01*
X125439684Y-101537553D01*
X125391080Y-101562318D01*
X125311318Y-101642080D01*
X125260107Y-101742587D01*
X125259338Y-101747444D01*
X125259337Y-101747446D01*
X125255215Y-101773475D01*
X125242461Y-101854000D01*
X122301000Y-101854000D01*
X122301000Y-101346000D01*
X139212461Y-101346000D01*
X139230107Y-101457413D01*
X139281318Y-101557920D01*
X139361080Y-101637682D01*
X139369712Y-101642080D01*
X139457202Y-101686659D01*
X139457203Y-101686659D01*
X139461587Y-101688893D01*
X139466444Y-101689662D01*
X139466446Y-101689663D01*
X139568145Y-101705770D01*
X139573000Y-101706539D01*
X139577855Y-101705770D01*
X139679554Y-101689663D01*
X139679556Y-101689662D01*
X139684413Y-101688893D01*
X139688797Y-101686659D01*
X139688798Y-101686659D01*
X139776288Y-101642080D01*
X139784920Y-101637682D01*
X139864682Y-101557920D01*
X139898313Y-101491917D01*
X139934687Y-101460851D01*
X139982375Y-101464604D01*
X140009687Y-101491916D01*
X140043318Y-101557920D01*
X140123080Y-101637682D01*
X140131712Y-101642080D01*
X140219202Y-101686659D01*
X140219203Y-101686659D01*
X140223587Y-101688893D01*
X140228444Y-101689662D01*
X140228446Y-101689663D01*
X140330145Y-101705770D01*
X140335000Y-101706539D01*
X140339855Y-101705770D01*
X140441554Y-101689663D01*
X140441556Y-101689662D01*
X140446413Y-101688893D01*
X140450797Y-101686659D01*
X140450798Y-101686659D01*
X140538288Y-101642080D01*
X140546920Y-101637682D01*
X140626682Y-101557920D01*
X140677893Y-101457413D01*
X140695539Y-101346000D01*
X140677893Y-101234587D01*
X140626682Y-101134080D01*
X140546920Y-101054318D01*
X140498316Y-101029553D01*
X140450798Y-101005341D01*
X140450797Y-101005341D01*
X140446413Y-101003107D01*
X140441556Y-101002338D01*
X140441554Y-101002337D01*
X140339855Y-100986230D01*
X140335000Y-100985461D01*
X140330145Y-100986230D01*
X140228446Y-101002337D01*
X140228444Y-101002338D01*
X140223587Y-101003107D01*
X140219203Y-101005341D01*
X140219202Y-101005341D01*
X140171684Y-101029553D01*
X140123080Y-101054318D01*
X140043318Y-101134080D01*
X140009688Y-101200083D01*
X139973313Y-101231149D01*
X139925625Y-101227396D01*
X139898312Y-101200083D01*
X139864682Y-101134080D01*
X139784920Y-101054318D01*
X139736316Y-101029553D01*
X139688798Y-101005341D01*
X139688797Y-101005341D01*
X139684413Y-101003107D01*
X139679556Y-101002338D01*
X139679554Y-101002337D01*
X139577855Y-100986230D01*
X139573000Y-100985461D01*
X139568145Y-100986230D01*
X139466446Y-101002337D01*
X139466444Y-101002338D01*
X139461587Y-101003107D01*
X139457203Y-101005341D01*
X139457202Y-101005341D01*
X139409684Y-101029553D01*
X139361080Y-101054318D01*
X139281318Y-101134080D01*
X139230107Y-101234587D01*
X139212461Y-101346000D01*
X122301000Y-101346000D01*
X122301000Y-100838000D01*
X153690461Y-100838000D01*
X153708107Y-100949413D01*
X153759318Y-101049920D01*
X153839080Y-101129682D01*
X153847712Y-101134080D01*
X153935202Y-101178659D01*
X153935203Y-101178659D01*
X153939587Y-101180893D01*
X153944444Y-101181662D01*
X153944446Y-101181663D01*
X154046145Y-101197770D01*
X154051000Y-101198539D01*
X154055855Y-101197770D01*
X154157554Y-101181663D01*
X154157556Y-101181662D01*
X154162413Y-101180893D01*
X154166797Y-101178659D01*
X154166798Y-101178659D01*
X154254288Y-101134080D01*
X154262920Y-101129682D01*
X154342682Y-101049920D01*
X154393893Y-100949413D01*
X154411539Y-100838000D01*
X154408177Y-100816770D01*
X154394663Y-100731446D01*
X154394662Y-100731444D01*
X154393893Y-100726587D01*
X154342682Y-100626080D01*
X154262920Y-100546318D01*
X154214316Y-100521553D01*
X154166798Y-100497341D01*
X154166797Y-100497341D01*
X154162413Y-100495107D01*
X154157556Y-100494338D01*
X154157554Y-100494337D01*
X154055855Y-100478230D01*
X154051000Y-100477461D01*
X154046145Y-100478230D01*
X153944446Y-100494337D01*
X153944444Y-100494338D01*
X153939587Y-100495107D01*
X153935203Y-100497341D01*
X153935202Y-100497341D01*
X153887684Y-100521553D01*
X153839080Y-100546318D01*
X153759318Y-100626080D01*
X153708107Y-100726587D01*
X153707338Y-100731444D01*
X153707337Y-100731446D01*
X153693823Y-100816770D01*
X153690461Y-100838000D01*
X122301000Y-100838000D01*
X122301000Y-100457000D01*
X128544461Y-100457000D01*
X128545230Y-100461855D01*
X128558608Y-100546318D01*
X128562107Y-100568413D01*
X128613318Y-100668920D01*
X128693080Y-100748682D01*
X128741684Y-100773447D01*
X128789202Y-100797659D01*
X128789203Y-100797659D01*
X128793587Y-100799893D01*
X128798444Y-100800662D01*
X128798446Y-100800663D01*
X128900145Y-100816770D01*
X128905000Y-100817539D01*
X128909855Y-100816770D01*
X129011554Y-100800663D01*
X129011556Y-100800662D01*
X129016413Y-100799893D01*
X129020797Y-100797659D01*
X129020798Y-100797659D01*
X129068316Y-100773447D01*
X129116920Y-100748682D01*
X129196682Y-100668920D01*
X129247893Y-100568413D01*
X129251393Y-100546318D01*
X129264770Y-100461855D01*
X129265539Y-100457000D01*
X129247893Y-100345587D01*
X129196682Y-100245080D01*
X129154602Y-100203000D01*
X151277461Y-100203000D01*
X151295107Y-100314413D01*
X151346318Y-100414920D01*
X151426080Y-100494682D01*
X151431299Y-100497341D01*
X151522202Y-100543659D01*
X151522203Y-100543659D01*
X151526587Y-100545893D01*
X151531444Y-100546662D01*
X151531446Y-100546663D01*
X151633145Y-100562770D01*
X151638000Y-100563539D01*
X151642855Y-100562770D01*
X151744554Y-100546663D01*
X151744556Y-100546662D01*
X151749413Y-100545893D01*
X151753797Y-100543659D01*
X151753798Y-100543659D01*
X151844701Y-100497341D01*
X151849920Y-100494682D01*
X151929682Y-100414920D01*
X151980893Y-100314413D01*
X151998539Y-100203000D01*
X151993122Y-100168796D01*
X151981663Y-100096446D01*
X151981662Y-100096444D01*
X151980893Y-100091587D01*
X151929682Y-99991080D01*
X151868296Y-99929694D01*
X151849990Y-99885500D01*
X151868296Y-99841306D01*
X151929682Y-99779920D01*
X151980893Y-99679413D01*
X151998539Y-99568000D01*
X151992217Y-99528085D01*
X151981663Y-99461446D01*
X151981662Y-99461444D01*
X151980893Y-99456587D01*
X151929682Y-99356080D01*
X151868296Y-99294694D01*
X151849990Y-99250500D01*
X151868296Y-99206306D01*
X151929682Y-99144920D01*
X151980893Y-99044413D01*
X151984539Y-99021398D01*
X151997770Y-98937855D01*
X151998539Y-98933000D01*
X151980893Y-98821587D01*
X151929682Y-98721080D01*
X151868296Y-98659694D01*
X151849990Y-98615500D01*
X151868296Y-98571306D01*
X151929682Y-98509920D01*
X151980893Y-98409413D01*
X151984539Y-98386398D01*
X151997770Y-98302855D01*
X151998539Y-98298000D01*
X151980893Y-98186587D01*
X151929682Y-98086080D01*
X151868296Y-98024694D01*
X151849990Y-97980500D01*
X151868296Y-97936306D01*
X151929682Y-97874920D01*
X151980893Y-97774413D01*
X151998539Y-97663000D01*
X151980893Y-97551587D01*
X151929682Y-97451080D01*
X151868296Y-97389694D01*
X151849990Y-97345500D01*
X151868296Y-97301306D01*
X151929682Y-97239920D01*
X151980893Y-97139413D01*
X151998539Y-97028000D01*
X151980893Y-96916587D01*
X151929682Y-96816080D01*
X151849920Y-96736318D01*
X151801316Y-96711553D01*
X151753798Y-96687341D01*
X151753797Y-96687341D01*
X151749413Y-96685107D01*
X151744556Y-96684338D01*
X151744554Y-96684337D01*
X151642855Y-96668230D01*
X151638000Y-96667461D01*
X151633145Y-96668230D01*
X151531446Y-96684337D01*
X151531444Y-96684338D01*
X151526587Y-96685107D01*
X151522203Y-96687341D01*
X151522202Y-96687341D01*
X151474684Y-96711553D01*
X151426080Y-96736318D01*
X151346318Y-96816080D01*
X151295107Y-96916587D01*
X151277461Y-97028000D01*
X151295107Y-97139413D01*
X151346318Y-97239920D01*
X151407704Y-97301306D01*
X151426010Y-97345500D01*
X151407704Y-97389694D01*
X151346318Y-97451080D01*
X151295107Y-97551587D01*
X151277461Y-97663000D01*
X151295107Y-97774413D01*
X151346318Y-97874920D01*
X151407704Y-97936306D01*
X151426010Y-97980500D01*
X151407704Y-98024694D01*
X151346318Y-98086080D01*
X151295107Y-98186587D01*
X151277461Y-98298000D01*
X151278230Y-98302855D01*
X151291462Y-98386398D01*
X151295107Y-98409413D01*
X151346318Y-98509920D01*
X151407704Y-98571306D01*
X151426010Y-98615500D01*
X151407704Y-98659694D01*
X151346318Y-98721080D01*
X151295107Y-98821587D01*
X151277461Y-98933000D01*
X151278230Y-98937855D01*
X151291462Y-99021398D01*
X151295107Y-99044413D01*
X151346318Y-99144920D01*
X151407704Y-99206306D01*
X151426010Y-99250500D01*
X151407704Y-99294694D01*
X151346318Y-99356080D01*
X151295107Y-99456587D01*
X151294338Y-99461444D01*
X151294337Y-99461446D01*
X151283783Y-99528085D01*
X151277461Y-99568000D01*
X151295107Y-99679413D01*
X151346318Y-99779920D01*
X151407704Y-99841306D01*
X151426010Y-99885500D01*
X151407704Y-99929694D01*
X151346318Y-99991080D01*
X151295107Y-100091587D01*
X151294338Y-100096444D01*
X151294337Y-100096446D01*
X151282878Y-100168796D01*
X151277461Y-100203000D01*
X129154602Y-100203000D01*
X129116920Y-100165318D01*
X129068316Y-100140553D01*
X129020798Y-100116341D01*
X129020797Y-100116341D01*
X129016413Y-100114107D01*
X129011556Y-100113338D01*
X129011554Y-100113337D01*
X128909855Y-100097230D01*
X128905000Y-100096461D01*
X128900145Y-100097230D01*
X128798446Y-100113337D01*
X128798444Y-100113338D01*
X128793587Y-100114107D01*
X128789203Y-100116341D01*
X128789202Y-100116341D01*
X128741684Y-100140553D01*
X128693080Y-100165318D01*
X128613318Y-100245080D01*
X128562107Y-100345587D01*
X128544461Y-100457000D01*
X122301000Y-100457000D01*
X122301000Y-99822000D01*
X136164461Y-99822000D01*
X136165230Y-99826855D01*
X136178608Y-99911318D01*
X136182107Y-99933413D01*
X136233318Y-100033920D01*
X136313080Y-100113682D01*
X136318299Y-100116341D01*
X136409202Y-100162659D01*
X136409203Y-100162659D01*
X136413587Y-100164893D01*
X136418444Y-100165662D01*
X136418446Y-100165663D01*
X136520145Y-100181770D01*
X136525000Y-100182539D01*
X136529855Y-100181770D01*
X136631554Y-100165663D01*
X136631556Y-100165662D01*
X136636413Y-100164893D01*
X136640797Y-100162659D01*
X136640798Y-100162659D01*
X136731701Y-100116341D01*
X136736920Y-100113682D01*
X136816682Y-100033920D01*
X136867893Y-99933413D01*
X136871393Y-99911318D01*
X136884770Y-99826855D01*
X136885539Y-99822000D01*
X136867893Y-99710587D01*
X136859951Y-99695000D01*
X144800461Y-99695000D01*
X144801230Y-99699855D01*
X144814462Y-99783398D01*
X144818107Y-99806413D01*
X144869318Y-99906920D01*
X144949080Y-99986682D01*
X144957712Y-99991080D01*
X145045202Y-100035659D01*
X145045203Y-100035659D01*
X145049587Y-100037893D01*
X145054444Y-100038662D01*
X145054446Y-100038663D01*
X145156145Y-100054770D01*
X145161000Y-100055539D01*
X145165855Y-100054770D01*
X145267554Y-100038663D01*
X145267556Y-100038662D01*
X145272413Y-100037893D01*
X145276797Y-100035659D01*
X145276798Y-100035659D01*
X145364288Y-99991080D01*
X145372920Y-99986682D01*
X145452682Y-99906920D01*
X145503893Y-99806413D01*
X145507539Y-99783398D01*
X145520770Y-99699855D01*
X145521539Y-99695000D01*
X145518301Y-99674554D01*
X145504663Y-99588446D01*
X145504662Y-99588444D01*
X145503893Y-99583587D01*
X145452682Y-99483080D01*
X145372920Y-99403318D01*
X145288813Y-99360463D01*
X145276798Y-99354341D01*
X145276797Y-99354341D01*
X145272413Y-99352107D01*
X145267556Y-99351338D01*
X145267554Y-99351337D01*
X145165855Y-99335230D01*
X145161000Y-99334461D01*
X145156145Y-99335230D01*
X145054446Y-99351337D01*
X145054444Y-99351338D01*
X145049587Y-99352107D01*
X145045203Y-99354341D01*
X145045202Y-99354341D01*
X145033187Y-99360463D01*
X144949080Y-99403318D01*
X144869318Y-99483080D01*
X144818107Y-99583587D01*
X144817338Y-99588444D01*
X144817337Y-99588446D01*
X144803699Y-99674554D01*
X144800461Y-99695000D01*
X136859951Y-99695000D01*
X136816682Y-99610080D01*
X136736920Y-99530318D01*
X136652813Y-99487463D01*
X136640798Y-99481341D01*
X136640797Y-99481341D01*
X136636413Y-99479107D01*
X136631556Y-99478338D01*
X136631554Y-99478337D01*
X136529855Y-99462230D01*
X136525000Y-99461461D01*
X136520145Y-99462230D01*
X136418446Y-99478337D01*
X136418444Y-99478338D01*
X136413587Y-99479107D01*
X136409203Y-99481341D01*
X136409202Y-99481341D01*
X136397187Y-99487463D01*
X136313080Y-99530318D01*
X136233318Y-99610080D01*
X136182107Y-99710587D01*
X136164461Y-99822000D01*
X122301000Y-99822000D01*
X122301000Y-98933000D01*
X130195461Y-98933000D01*
X130196230Y-98937855D01*
X130209462Y-99021398D01*
X130213107Y-99044413D01*
X130264318Y-99144920D01*
X130344080Y-99224682D01*
X130392684Y-99249447D01*
X130440202Y-99273659D01*
X130440203Y-99273659D01*
X130444587Y-99275893D01*
X130449444Y-99276662D01*
X130449446Y-99276663D01*
X130551145Y-99292770D01*
X130556000Y-99293539D01*
X130560855Y-99292770D01*
X130662554Y-99276663D01*
X130662556Y-99276662D01*
X130667413Y-99275893D01*
X130671797Y-99273659D01*
X130671798Y-99273659D01*
X130719316Y-99249447D01*
X130767920Y-99224682D01*
X130847682Y-99144920D01*
X130898893Y-99044413D01*
X130902539Y-99021398D01*
X130915770Y-98937855D01*
X130916539Y-98933000D01*
X130898893Y-98821587D01*
X130890951Y-98806000D01*
X136164461Y-98806000D01*
X136182107Y-98917413D01*
X136233318Y-99017920D01*
X136313080Y-99097682D01*
X136361684Y-99122447D01*
X136409202Y-99146659D01*
X136409203Y-99146659D01*
X136413587Y-99148893D01*
X136418444Y-99149662D01*
X136418446Y-99149663D01*
X136520145Y-99165770D01*
X136525000Y-99166539D01*
X136529855Y-99165770D01*
X136631554Y-99149663D01*
X136631556Y-99149662D01*
X136636413Y-99148893D01*
X136640797Y-99146659D01*
X136640798Y-99146659D01*
X136688316Y-99122447D01*
X136736920Y-99097682D01*
X136816682Y-99017920D01*
X136867893Y-98917413D01*
X136885539Y-98806000D01*
X136883118Y-98790716D01*
X136868663Y-98699446D01*
X136868662Y-98699444D01*
X136867893Y-98694587D01*
X136816682Y-98594080D01*
X136755296Y-98532694D01*
X136736990Y-98488500D01*
X136755296Y-98444306D01*
X136816682Y-98382920D01*
X136867893Y-98282413D01*
X136885539Y-98171000D01*
X136883118Y-98155716D01*
X136868663Y-98064446D01*
X136868662Y-98064444D01*
X136867893Y-98059587D01*
X136816682Y-97959080D01*
X136736920Y-97879318D01*
X136688316Y-97854553D01*
X136640798Y-97830341D01*
X136640797Y-97830341D01*
X136636413Y-97828107D01*
X136631556Y-97827338D01*
X136631554Y-97827337D01*
X136529855Y-97811230D01*
X136525000Y-97810461D01*
X136520145Y-97811230D01*
X136418446Y-97827337D01*
X136418444Y-97827338D01*
X136413587Y-97828107D01*
X136409203Y-97830341D01*
X136409202Y-97830341D01*
X136361684Y-97854553D01*
X136313080Y-97879318D01*
X136233318Y-97959080D01*
X136182107Y-98059587D01*
X136181338Y-98064444D01*
X136181337Y-98064446D01*
X136166882Y-98155716D01*
X136164461Y-98171000D01*
X136182107Y-98282413D01*
X136233318Y-98382920D01*
X136294704Y-98444306D01*
X136313010Y-98488500D01*
X136294704Y-98532694D01*
X136233318Y-98594080D01*
X136182107Y-98694587D01*
X136181338Y-98699444D01*
X136181337Y-98699446D01*
X136166882Y-98790716D01*
X136164461Y-98806000D01*
X130890951Y-98806000D01*
X130847682Y-98721080D01*
X130767920Y-98641318D01*
X130683813Y-98598463D01*
X130671798Y-98592341D01*
X130671797Y-98592341D01*
X130667413Y-98590107D01*
X130662556Y-98589338D01*
X130662554Y-98589337D01*
X130560855Y-98573230D01*
X130556000Y-98572461D01*
X130551145Y-98573230D01*
X130449446Y-98589337D01*
X130449444Y-98589338D01*
X130444587Y-98590107D01*
X130440203Y-98592341D01*
X130440202Y-98592341D01*
X130428187Y-98598463D01*
X130344080Y-98641318D01*
X130264318Y-98721080D01*
X130213107Y-98821587D01*
X130195461Y-98933000D01*
X122301000Y-98933000D01*
X122301000Y-96266000D01*
X136164461Y-96266000D01*
X136182107Y-96377413D01*
X136233318Y-96477920D01*
X136313080Y-96557682D01*
X136361684Y-96582447D01*
X136409202Y-96606659D01*
X136409203Y-96606659D01*
X136413587Y-96608893D01*
X136418444Y-96609662D01*
X136418446Y-96609663D01*
X136520145Y-96625770D01*
X136525000Y-96626539D01*
X136529855Y-96625770D01*
X136631554Y-96609663D01*
X136631556Y-96609662D01*
X136636413Y-96608893D01*
X136640797Y-96606659D01*
X136640798Y-96606659D01*
X136688316Y-96582447D01*
X136736920Y-96557682D01*
X136816682Y-96477920D01*
X136867893Y-96377413D01*
X136885539Y-96266000D01*
X136867893Y-96154587D01*
X136816682Y-96054080D01*
X136736920Y-95974318D01*
X136688316Y-95949553D01*
X136640798Y-95925341D01*
X136640797Y-95925341D01*
X136636413Y-95923107D01*
X136631556Y-95922338D01*
X136631554Y-95922337D01*
X136529855Y-95906230D01*
X136525000Y-95905461D01*
X136520145Y-95906230D01*
X136418446Y-95922337D01*
X136418444Y-95922338D01*
X136413587Y-95923107D01*
X136409203Y-95925341D01*
X136409202Y-95925341D01*
X136361684Y-95949553D01*
X136313080Y-95974318D01*
X136233318Y-96054080D01*
X136182107Y-96154587D01*
X136164461Y-96266000D01*
X122301000Y-96266000D01*
X122301000Y-95278000D01*
X145661461Y-95278000D01*
X145662230Y-95282855D01*
X145671724Y-95342796D01*
X145679107Y-95389413D01*
X145730318Y-95489920D01*
X145810080Y-95569682D01*
X145858684Y-95594447D01*
X145906202Y-95618659D01*
X145906203Y-95618659D01*
X145910587Y-95620893D01*
X145915444Y-95621662D01*
X145915446Y-95621663D01*
X146017145Y-95637770D01*
X146022000Y-95638539D01*
X146026855Y-95637770D01*
X146069601Y-95631000D01*
X151277461Y-95631000D01*
X151295107Y-95742413D01*
X151346318Y-95842920D01*
X151426080Y-95922682D01*
X151431299Y-95925341D01*
X151522202Y-95971659D01*
X151522203Y-95971659D01*
X151526587Y-95973893D01*
X151531444Y-95974662D01*
X151531446Y-95974663D01*
X151633145Y-95990770D01*
X151638000Y-95991539D01*
X151642855Y-95990770D01*
X151744554Y-95974663D01*
X151744556Y-95974662D01*
X151749413Y-95973893D01*
X151753797Y-95971659D01*
X151753798Y-95971659D01*
X151844701Y-95925341D01*
X151849920Y-95922682D01*
X151929682Y-95842920D01*
X151980893Y-95742413D01*
X151998539Y-95631000D01*
X151988827Y-95569682D01*
X151981663Y-95524446D01*
X151981662Y-95524444D01*
X151980893Y-95519587D01*
X151929682Y-95419080D01*
X151849920Y-95339318D01*
X151801316Y-95314553D01*
X151753798Y-95290341D01*
X151753797Y-95290341D01*
X151749413Y-95288107D01*
X151744556Y-95287338D01*
X151744554Y-95287337D01*
X151642855Y-95271230D01*
X151638000Y-95270461D01*
X151633145Y-95271230D01*
X151531446Y-95287337D01*
X151531444Y-95287338D01*
X151526587Y-95288107D01*
X151522203Y-95290341D01*
X151522202Y-95290341D01*
X151474684Y-95314553D01*
X151426080Y-95339318D01*
X151346318Y-95419080D01*
X151295107Y-95519587D01*
X151294338Y-95524444D01*
X151294337Y-95524446D01*
X151287173Y-95569682D01*
X151277461Y-95631000D01*
X146069601Y-95631000D01*
X146128554Y-95621663D01*
X146128556Y-95621662D01*
X146133413Y-95620893D01*
X146137797Y-95618659D01*
X146137798Y-95618659D01*
X146185316Y-95594447D01*
X146233920Y-95569682D01*
X146313682Y-95489920D01*
X146364893Y-95389413D01*
X146372277Y-95342796D01*
X146381770Y-95282855D01*
X146382539Y-95278000D01*
X146380118Y-95262716D01*
X146365663Y-95171446D01*
X146365662Y-95171444D01*
X146364893Y-95166587D01*
X146313682Y-95066080D01*
X146243602Y-94996000D01*
X154706461Y-94996000D01*
X154707230Y-95000855D01*
X154718255Y-95070463D01*
X154724107Y-95107413D01*
X154775318Y-95207920D01*
X154855080Y-95287682D01*
X154860299Y-95290341D01*
X154951202Y-95336659D01*
X154951203Y-95336659D01*
X154955587Y-95338893D01*
X154960444Y-95339662D01*
X154960446Y-95339663D01*
X155062145Y-95355770D01*
X155067000Y-95356539D01*
X155071855Y-95355770D01*
X155173554Y-95339663D01*
X155173556Y-95339662D01*
X155178413Y-95338893D01*
X155182797Y-95336659D01*
X155182798Y-95336659D01*
X155273701Y-95290341D01*
X155278920Y-95287682D01*
X155358682Y-95207920D01*
X155409893Y-95107413D01*
X155415746Y-95070463D01*
X155426770Y-95000855D01*
X155427539Y-94996000D01*
X155425118Y-94980716D01*
X155410663Y-94889446D01*
X155410662Y-94889444D01*
X155409893Y-94884587D01*
X155358682Y-94784080D01*
X155278920Y-94704318D01*
X155230316Y-94679553D01*
X155182798Y-94655341D01*
X155182797Y-94655341D01*
X155178413Y-94653107D01*
X155173556Y-94652338D01*
X155173554Y-94652337D01*
X155071855Y-94636230D01*
X155067000Y-94635461D01*
X155062145Y-94636230D01*
X154960446Y-94652337D01*
X154960444Y-94652338D01*
X154955587Y-94653107D01*
X154951203Y-94655341D01*
X154951202Y-94655341D01*
X154903684Y-94679553D01*
X154855080Y-94704318D01*
X154775318Y-94784080D01*
X154724107Y-94884587D01*
X154723338Y-94889444D01*
X154723337Y-94889446D01*
X154708882Y-94980716D01*
X154706461Y-94996000D01*
X146243602Y-94996000D01*
X146233920Y-94986318D01*
X146185316Y-94961553D01*
X146137798Y-94937341D01*
X146137797Y-94937341D01*
X146133413Y-94935107D01*
X146128556Y-94934338D01*
X146128554Y-94934337D01*
X146026855Y-94918230D01*
X146022000Y-94917461D01*
X146017145Y-94918230D01*
X145915446Y-94934337D01*
X145915444Y-94934338D01*
X145910587Y-94935107D01*
X145906203Y-94937341D01*
X145906202Y-94937341D01*
X145858684Y-94961553D01*
X145810080Y-94986318D01*
X145730318Y-95066080D01*
X145679107Y-95166587D01*
X145678338Y-95171444D01*
X145678337Y-95171446D01*
X145663882Y-95262716D01*
X145661461Y-95278000D01*
X122301000Y-95278000D01*
X122301000Y-93345000D01*
X136545461Y-93345000D01*
X136546230Y-93349855D01*
X136559462Y-93433398D01*
X136563107Y-93456413D01*
X136614318Y-93556920D01*
X136694080Y-93636682D01*
X136742684Y-93661447D01*
X136790202Y-93685659D01*
X136790203Y-93685659D01*
X136794587Y-93687893D01*
X136799444Y-93688662D01*
X136799446Y-93688663D01*
X136901145Y-93704770D01*
X136906000Y-93705539D01*
X136910855Y-93704770D01*
X137012554Y-93688663D01*
X137012556Y-93688662D01*
X137017413Y-93687893D01*
X137021797Y-93685659D01*
X137021798Y-93685659D01*
X137069316Y-93661447D01*
X137117920Y-93636682D01*
X137197682Y-93556920D01*
X137248893Y-93456413D01*
X137252539Y-93433398D01*
X137265770Y-93349855D01*
X137266539Y-93345000D01*
X137248893Y-93233587D01*
X137240951Y-93218000D01*
X155722461Y-93218000D01*
X155740107Y-93329413D01*
X155791318Y-93429920D01*
X155871080Y-93509682D01*
X155919684Y-93534447D01*
X155967202Y-93558659D01*
X155967203Y-93558659D01*
X155971587Y-93560893D01*
X155976444Y-93561662D01*
X155976446Y-93561663D01*
X156078145Y-93577770D01*
X156083000Y-93578539D01*
X156087855Y-93577770D01*
X156189554Y-93561663D01*
X156189556Y-93561662D01*
X156194413Y-93560893D01*
X156198797Y-93558659D01*
X156198798Y-93558659D01*
X156246316Y-93534447D01*
X156294920Y-93509682D01*
X156374682Y-93429920D01*
X156425893Y-93329413D01*
X156443539Y-93218000D01*
X156441118Y-93202716D01*
X156426663Y-93111446D01*
X156426662Y-93111444D01*
X156425893Y-93106587D01*
X156374682Y-93006080D01*
X156294920Y-92926318D01*
X156246316Y-92901553D01*
X156198798Y-92877341D01*
X156198797Y-92877341D01*
X156194413Y-92875107D01*
X156189556Y-92874338D01*
X156189554Y-92874337D01*
X156087855Y-92858230D01*
X156083000Y-92857461D01*
X156078145Y-92858230D01*
X155976446Y-92874337D01*
X155976444Y-92874338D01*
X155971587Y-92875107D01*
X155967203Y-92877341D01*
X155967202Y-92877341D01*
X155919684Y-92901553D01*
X155871080Y-92926318D01*
X155791318Y-93006080D01*
X155740107Y-93106587D01*
X155739338Y-93111444D01*
X155739337Y-93111446D01*
X155724882Y-93202716D01*
X155722461Y-93218000D01*
X137240951Y-93218000D01*
X137197682Y-93133080D01*
X137117920Y-93053318D01*
X137033813Y-93010463D01*
X137021798Y-93004341D01*
X137021797Y-93004341D01*
X137017413Y-93002107D01*
X137012556Y-93001338D01*
X137012554Y-93001337D01*
X136910855Y-92985230D01*
X136906000Y-92984461D01*
X136901145Y-92985230D01*
X136799446Y-93001337D01*
X136799444Y-93001338D01*
X136794587Y-93002107D01*
X136790203Y-93004341D01*
X136790202Y-93004341D01*
X136778187Y-93010463D01*
X136694080Y-93053318D01*
X136614318Y-93133080D01*
X136563107Y-93233587D01*
X136545461Y-93345000D01*
X122301000Y-93345000D01*
X122301000Y-92075000D01*
X140228461Y-92075000D01*
X140246107Y-92186413D01*
X140297318Y-92286920D01*
X140377080Y-92366682D01*
X140425684Y-92391447D01*
X140473202Y-92415659D01*
X140473203Y-92415659D01*
X140477587Y-92417893D01*
X140482444Y-92418662D01*
X140482446Y-92418663D01*
X140584145Y-92434770D01*
X140589000Y-92435539D01*
X140593855Y-92434770D01*
X140695554Y-92418663D01*
X140695556Y-92418662D01*
X140700413Y-92417893D01*
X140729038Y-92403308D01*
X140776724Y-92399555D01*
X140813099Y-92430621D01*
X140816852Y-92478309D01*
X140808296Y-92495102D01*
X140805318Y-92498080D01*
X140754107Y-92598587D01*
X140736461Y-92710000D01*
X140737230Y-92714855D01*
X140750462Y-92798398D01*
X140754107Y-92821413D01*
X140805318Y-92921920D01*
X140885080Y-93001682D01*
X140890299Y-93004341D01*
X140981202Y-93050659D01*
X140981203Y-93050659D01*
X140985587Y-93052893D01*
X140990444Y-93053662D01*
X140990446Y-93053663D01*
X141092145Y-93069770D01*
X141097000Y-93070539D01*
X141101855Y-93069770D01*
X141203554Y-93053663D01*
X141203556Y-93053662D01*
X141208413Y-93052893D01*
X141212797Y-93050659D01*
X141212798Y-93050659D01*
X141303701Y-93004341D01*
X141308920Y-93001682D01*
X141388682Y-92921920D01*
X141439893Y-92821413D01*
X141443539Y-92798398D01*
X141456770Y-92714855D01*
X141457539Y-92710000D01*
X141439893Y-92598587D01*
X141431951Y-92583000D01*
X141625461Y-92583000D01*
X141643107Y-92694413D01*
X141694318Y-92794920D01*
X141774080Y-92874682D01*
X141779299Y-92877341D01*
X141870202Y-92923659D01*
X141870203Y-92923659D01*
X141874587Y-92925893D01*
X141879444Y-92926662D01*
X141879446Y-92926663D01*
X141981145Y-92942770D01*
X141986000Y-92943539D01*
X141990855Y-92942770D01*
X142092554Y-92926663D01*
X142092556Y-92926662D01*
X142097413Y-92925893D01*
X142101797Y-92923659D01*
X142101798Y-92923659D01*
X142192701Y-92877341D01*
X142197920Y-92874682D01*
X142277682Y-92794920D01*
X142328893Y-92694413D01*
X142346539Y-92583000D01*
X142344118Y-92567716D01*
X142329663Y-92476446D01*
X142329662Y-92476444D01*
X142328893Y-92471587D01*
X142277682Y-92371080D01*
X142197920Y-92291318D01*
X142149316Y-92266553D01*
X142101798Y-92242341D01*
X142101797Y-92242341D01*
X142097413Y-92240107D01*
X142092556Y-92239338D01*
X142092554Y-92239337D01*
X141990855Y-92223230D01*
X141986000Y-92222461D01*
X141981145Y-92223230D01*
X141879446Y-92239337D01*
X141879444Y-92239338D01*
X141874587Y-92240107D01*
X141870203Y-92242341D01*
X141870202Y-92242341D01*
X141822684Y-92266553D01*
X141774080Y-92291318D01*
X141694318Y-92371080D01*
X141643107Y-92471587D01*
X141642338Y-92476444D01*
X141642337Y-92476446D01*
X141627882Y-92567716D01*
X141625461Y-92583000D01*
X141431951Y-92583000D01*
X141388682Y-92498080D01*
X141308920Y-92418318D01*
X141224813Y-92375463D01*
X141212798Y-92369341D01*
X141212795Y-92369340D01*
X141208413Y-92367107D01*
X141203556Y-92366338D01*
X141203554Y-92366337D01*
X141101855Y-92350230D01*
X141097000Y-92349461D01*
X141092145Y-92350230D01*
X140990446Y-92366337D01*
X140990444Y-92366338D01*
X140985587Y-92367107D01*
X140956962Y-92381692D01*
X140909276Y-92385445D01*
X140872901Y-92354379D01*
X140869148Y-92306691D01*
X140877704Y-92289898D01*
X140880682Y-92286920D01*
X140931893Y-92186413D01*
X140949539Y-92075000D01*
X140931893Y-91963587D01*
X140880682Y-91863080D01*
X140800920Y-91783318D01*
X140752316Y-91758553D01*
X140704798Y-91734341D01*
X140704797Y-91734341D01*
X140700413Y-91732107D01*
X140695556Y-91731338D01*
X140695554Y-91731337D01*
X140593855Y-91715230D01*
X140589000Y-91714461D01*
X140584145Y-91715230D01*
X140482446Y-91731337D01*
X140482444Y-91731338D01*
X140477587Y-91732107D01*
X140473203Y-91734341D01*
X140473202Y-91734341D01*
X140425684Y-91758553D01*
X140377080Y-91783318D01*
X140297318Y-91863080D01*
X140246107Y-91963587D01*
X140228461Y-92075000D01*
X122301000Y-92075000D01*
X122301000Y-90805000D01*
X127020461Y-90805000D01*
X127038107Y-90916413D01*
X127089318Y-91016920D01*
X127169080Y-91096682D01*
X127217684Y-91121447D01*
X127265202Y-91145659D01*
X127265203Y-91145659D01*
X127269587Y-91147893D01*
X127274444Y-91148662D01*
X127274446Y-91148663D01*
X127376145Y-91164770D01*
X127381000Y-91165539D01*
X127385855Y-91164770D01*
X127487554Y-91148663D01*
X127487556Y-91148662D01*
X127492413Y-91147893D01*
X127496797Y-91145659D01*
X127496798Y-91145659D01*
X127541127Y-91123072D01*
X127592920Y-91096682D01*
X127596402Y-91093200D01*
X127598263Y-91091848D01*
X127644777Y-91080681D01*
X127671737Y-91091848D01*
X127673598Y-91093200D01*
X127677080Y-91096682D01*
X127728873Y-91123072D01*
X127773202Y-91145659D01*
X127773203Y-91145659D01*
X127777587Y-91147893D01*
X127782444Y-91148662D01*
X127782446Y-91148663D01*
X127884145Y-91164770D01*
X127889000Y-91165539D01*
X127893855Y-91164770D01*
X127995554Y-91148663D01*
X127995556Y-91148662D01*
X128000413Y-91147893D01*
X128004797Y-91145659D01*
X128004798Y-91145659D01*
X128049127Y-91123072D01*
X128100920Y-91096682D01*
X128104402Y-91093200D01*
X128106263Y-91091848D01*
X128152777Y-91080681D01*
X128179737Y-91091848D01*
X128181598Y-91093200D01*
X128185080Y-91096682D01*
X128236873Y-91123072D01*
X128281202Y-91145659D01*
X128281203Y-91145659D01*
X128285587Y-91147893D01*
X128290444Y-91148662D01*
X128290446Y-91148663D01*
X128392145Y-91164770D01*
X128397000Y-91165539D01*
X128401855Y-91164770D01*
X128503554Y-91148663D01*
X128503556Y-91148662D01*
X128508413Y-91147893D01*
X128512797Y-91145659D01*
X128512798Y-91145659D01*
X128560316Y-91121447D01*
X128608920Y-91096682D01*
X128646602Y-91059000D01*
X132989461Y-91059000D01*
X133007107Y-91170413D01*
X133058318Y-91270920D01*
X133138080Y-91350682D01*
X133186684Y-91375447D01*
X133234202Y-91399659D01*
X133234203Y-91399659D01*
X133238587Y-91401893D01*
X133243444Y-91402662D01*
X133243446Y-91402663D01*
X133345145Y-91418770D01*
X133350000Y-91419539D01*
X133354855Y-91418770D01*
X133456554Y-91402663D01*
X133456556Y-91402662D01*
X133461413Y-91401893D01*
X133465797Y-91399659D01*
X133465798Y-91399659D01*
X133513316Y-91375447D01*
X133561920Y-91350682D01*
X133641682Y-91270920D01*
X133692893Y-91170413D01*
X133710539Y-91059000D01*
X133703180Y-91012537D01*
X133693663Y-90952446D01*
X133693662Y-90952444D01*
X133692893Y-90947587D01*
X133641682Y-90847080D01*
X133561920Y-90767318D01*
X133495917Y-90733687D01*
X133464851Y-90697313D01*
X133466372Y-90677988D01*
X169692456Y-90677988D01*
X169710102Y-90789401D01*
X169761313Y-90889908D01*
X169841075Y-90969670D01*
X169889679Y-90994435D01*
X169937197Y-91018647D01*
X169937198Y-91018647D01*
X169941582Y-91020881D01*
X169946439Y-91021650D01*
X169946441Y-91021651D01*
X170048140Y-91037758D01*
X170052995Y-91038527D01*
X170057850Y-91037758D01*
X170159549Y-91021651D01*
X170159551Y-91021650D01*
X170164408Y-91020881D01*
X170168792Y-91018647D01*
X170168793Y-91018647D01*
X170216311Y-90994435D01*
X170264915Y-90969670D01*
X170344677Y-90889908D01*
X170395888Y-90789401D01*
X170413534Y-90677988D01*
X170399535Y-90589602D01*
X170396658Y-90571434D01*
X170396657Y-90571432D01*
X170395888Y-90566575D01*
X170344677Y-90466068D01*
X170264915Y-90386306D01*
X170216311Y-90361541D01*
X170168793Y-90337329D01*
X170168792Y-90337329D01*
X170164408Y-90335095D01*
X170159551Y-90334326D01*
X170159549Y-90334325D01*
X170057850Y-90318218D01*
X170052995Y-90317449D01*
X170048140Y-90318218D01*
X169946441Y-90334325D01*
X169946439Y-90334326D01*
X169941582Y-90335095D01*
X169937198Y-90337329D01*
X169937197Y-90337329D01*
X169889679Y-90361541D01*
X169841075Y-90386306D01*
X169761313Y-90466068D01*
X169710102Y-90566575D01*
X169709333Y-90571432D01*
X169709332Y-90571434D01*
X169706455Y-90589602D01*
X169692456Y-90677988D01*
X133466372Y-90677988D01*
X133468604Y-90649625D01*
X133495916Y-90622313D01*
X133561920Y-90588682D01*
X133641682Y-90508920D01*
X133692893Y-90408413D01*
X133696395Y-90386306D01*
X133709770Y-90301855D01*
X133710539Y-90297000D01*
X133692893Y-90185587D01*
X133641682Y-90085080D01*
X133561920Y-90005318D01*
X133513316Y-89980553D01*
X133465798Y-89956341D01*
X133465797Y-89956341D01*
X133461413Y-89954107D01*
X133456556Y-89953338D01*
X133456554Y-89953337D01*
X133354855Y-89937230D01*
X133350000Y-89936461D01*
X133345145Y-89937230D01*
X133243446Y-89953337D01*
X133243444Y-89953338D01*
X133238587Y-89954107D01*
X133234203Y-89956341D01*
X133234202Y-89956341D01*
X133186684Y-89980553D01*
X133138080Y-90005318D01*
X133058318Y-90085080D01*
X133007107Y-90185587D01*
X132989461Y-90297000D01*
X132990230Y-90301855D01*
X133003606Y-90386306D01*
X133007107Y-90408413D01*
X133058318Y-90508920D01*
X133138080Y-90588682D01*
X133204083Y-90622313D01*
X133235149Y-90658687D01*
X133231396Y-90706375D01*
X133204084Y-90733687D01*
X133138080Y-90767318D01*
X133058318Y-90847080D01*
X133007107Y-90947587D01*
X133006338Y-90952444D01*
X133006337Y-90952446D01*
X132996820Y-91012537D01*
X132989461Y-91059000D01*
X128646602Y-91059000D01*
X128688682Y-91016920D01*
X128739893Y-90916413D01*
X128757539Y-90805000D01*
X128751571Y-90767318D01*
X128740663Y-90698446D01*
X128740662Y-90698444D01*
X128739893Y-90693587D01*
X128688682Y-90593080D01*
X128608920Y-90513318D01*
X128516187Y-90466068D01*
X128512798Y-90464341D01*
X128512797Y-90464341D01*
X128508413Y-90462107D01*
X128503556Y-90461338D01*
X128503554Y-90461337D01*
X128401855Y-90445230D01*
X128397000Y-90444461D01*
X128392145Y-90445230D01*
X128290446Y-90461337D01*
X128290444Y-90461338D01*
X128285587Y-90462107D01*
X128281203Y-90464341D01*
X128281202Y-90464341D01*
X128277813Y-90466068D01*
X128185080Y-90513318D01*
X128181598Y-90516800D01*
X128179737Y-90518152D01*
X128133223Y-90529319D01*
X128106263Y-90518152D01*
X128104402Y-90516800D01*
X128100920Y-90513318D01*
X128008187Y-90466068D01*
X128004798Y-90464341D01*
X128004797Y-90464341D01*
X128000413Y-90462107D01*
X127995556Y-90461338D01*
X127995554Y-90461337D01*
X127893855Y-90445230D01*
X127889000Y-90444461D01*
X127884145Y-90445230D01*
X127782446Y-90461337D01*
X127782444Y-90461338D01*
X127777587Y-90462107D01*
X127773203Y-90464341D01*
X127773202Y-90464341D01*
X127769813Y-90466068D01*
X127677080Y-90513318D01*
X127673598Y-90516800D01*
X127671737Y-90518152D01*
X127625223Y-90529319D01*
X127598263Y-90518152D01*
X127596402Y-90516800D01*
X127592920Y-90513318D01*
X127500187Y-90466068D01*
X127496798Y-90464341D01*
X127496797Y-90464341D01*
X127492413Y-90462107D01*
X127487556Y-90461338D01*
X127487554Y-90461337D01*
X127385855Y-90445230D01*
X127381000Y-90444461D01*
X127376145Y-90445230D01*
X127274446Y-90461337D01*
X127274444Y-90461338D01*
X127269587Y-90462107D01*
X127265203Y-90464341D01*
X127265202Y-90464341D01*
X127261813Y-90466068D01*
X127169080Y-90513318D01*
X127089318Y-90593080D01*
X127038107Y-90693587D01*
X127037338Y-90698444D01*
X127037337Y-90698446D01*
X127026429Y-90767318D01*
X127020461Y-90805000D01*
X122301000Y-90805000D01*
X122301000Y-89281000D01*
X148102461Y-89281000D01*
X148103230Y-89285855D01*
X148114750Y-89358587D01*
X148120107Y-89392413D01*
X148122341Y-89396797D01*
X148122341Y-89396798D01*
X148135985Y-89423575D01*
X148171318Y-89492920D01*
X148251080Y-89572682D01*
X148268216Y-89581413D01*
X148347202Y-89621659D01*
X148347203Y-89621659D01*
X148351587Y-89623893D01*
X148356444Y-89624662D01*
X148356446Y-89624663D01*
X148458145Y-89640770D01*
X148463000Y-89641539D01*
X148467855Y-89640770D01*
X148569554Y-89624663D01*
X148569556Y-89624662D01*
X148574413Y-89623893D01*
X148578797Y-89621659D01*
X148578798Y-89621659D01*
X148657784Y-89581413D01*
X148674920Y-89572682D01*
X148754682Y-89492920D01*
X148790015Y-89423575D01*
X148803659Y-89396798D01*
X148803659Y-89396797D01*
X148805893Y-89392413D01*
X148811251Y-89358587D01*
X148822770Y-89285855D01*
X148823539Y-89281000D01*
X150261461Y-89281000D01*
X150262230Y-89285855D01*
X150273750Y-89358587D01*
X150279107Y-89392413D01*
X150281341Y-89396797D01*
X150281341Y-89396798D01*
X150294985Y-89423575D01*
X150330318Y-89492920D01*
X150410080Y-89572682D01*
X150427216Y-89581413D01*
X150506202Y-89621659D01*
X150506203Y-89621659D01*
X150510587Y-89623893D01*
X150515444Y-89624662D01*
X150515446Y-89624663D01*
X150617145Y-89640770D01*
X150622000Y-89641539D01*
X150626855Y-89640770D01*
X150728554Y-89624663D01*
X150728556Y-89624662D01*
X150733413Y-89623893D01*
X150737797Y-89621659D01*
X150737798Y-89621659D01*
X150816784Y-89581413D01*
X150833920Y-89572682D01*
X150913682Y-89492920D01*
X150925360Y-89470000D01*
X158291461Y-89470000D01*
X158292230Y-89474855D01*
X158308078Y-89574915D01*
X158309107Y-89581413D01*
X158360318Y-89681920D01*
X158440080Y-89761682D01*
X158488684Y-89786447D01*
X158536202Y-89810659D01*
X158536203Y-89810659D01*
X158540587Y-89812893D01*
X158545444Y-89813662D01*
X158545446Y-89813663D01*
X158647145Y-89829770D01*
X158652000Y-89830539D01*
X158656855Y-89829770D01*
X158758554Y-89813663D01*
X158758556Y-89813662D01*
X158763413Y-89812893D01*
X158767797Y-89810659D01*
X158767798Y-89810659D01*
X158815316Y-89786447D01*
X158863920Y-89761682D01*
X158943682Y-89681920D01*
X158994893Y-89581413D01*
X158995923Y-89574915D01*
X159002246Y-89534988D01*
X169692456Y-89534988D01*
X169710102Y-89646401D01*
X169761313Y-89746908D01*
X169841075Y-89826670D01*
X169889679Y-89851435D01*
X169937197Y-89875647D01*
X169937198Y-89875647D01*
X169941582Y-89877881D01*
X169946439Y-89878650D01*
X169946441Y-89878651D01*
X170048140Y-89894758D01*
X170052995Y-89895527D01*
X170057850Y-89894758D01*
X170159549Y-89878651D01*
X170159551Y-89878650D01*
X170164408Y-89877881D01*
X170168792Y-89875647D01*
X170168793Y-89875647D01*
X170216311Y-89851435D01*
X170264915Y-89826670D01*
X170344677Y-89746908D01*
X170395888Y-89646401D01*
X170413534Y-89534988D01*
X170395888Y-89423575D01*
X170382245Y-89396798D01*
X170346910Y-89327451D01*
X170344677Y-89323068D01*
X170264915Y-89243306D01*
X170216311Y-89218541D01*
X170168793Y-89194329D01*
X170168792Y-89194329D01*
X170164408Y-89192095D01*
X170159551Y-89191326D01*
X170159549Y-89191325D01*
X170057850Y-89175218D01*
X170052995Y-89174449D01*
X170048140Y-89175218D01*
X169946441Y-89191325D01*
X169946439Y-89191326D01*
X169941582Y-89192095D01*
X169937198Y-89194329D01*
X169937197Y-89194329D01*
X169889679Y-89218541D01*
X169841075Y-89243306D01*
X169761313Y-89323068D01*
X169759080Y-89327451D01*
X169723746Y-89396798D01*
X169710102Y-89423575D01*
X169692456Y-89534988D01*
X159002246Y-89534988D01*
X159011770Y-89474855D01*
X159012539Y-89470000D01*
X159000945Y-89396798D01*
X158995663Y-89363446D01*
X158995662Y-89363444D01*
X158994893Y-89358587D01*
X158943682Y-89258080D01*
X158863920Y-89178318D01*
X158815316Y-89153553D01*
X158767798Y-89129341D01*
X158767797Y-89129341D01*
X158763413Y-89127107D01*
X158758556Y-89126338D01*
X158758554Y-89126337D01*
X158656855Y-89110230D01*
X158652000Y-89109461D01*
X158647145Y-89110230D01*
X158545446Y-89126337D01*
X158545444Y-89126338D01*
X158540587Y-89127107D01*
X158536203Y-89129341D01*
X158536202Y-89129341D01*
X158488684Y-89153553D01*
X158440080Y-89178318D01*
X158360318Y-89258080D01*
X158309107Y-89358587D01*
X158308338Y-89363444D01*
X158308337Y-89363446D01*
X158303055Y-89396798D01*
X158291461Y-89470000D01*
X150925360Y-89470000D01*
X150949015Y-89423575D01*
X150962659Y-89396798D01*
X150962659Y-89396797D01*
X150964893Y-89392413D01*
X150970251Y-89358587D01*
X150981770Y-89285855D01*
X150982539Y-89281000D01*
X150966276Y-89178318D01*
X150965663Y-89174446D01*
X150965662Y-89174444D01*
X150964893Y-89169587D01*
X150913682Y-89069080D01*
X150833920Y-88989318D01*
X150785316Y-88964553D01*
X150737798Y-88940341D01*
X150737797Y-88940341D01*
X150733413Y-88938107D01*
X150728556Y-88937338D01*
X150728554Y-88937337D01*
X150626855Y-88921230D01*
X150622000Y-88920461D01*
X150617145Y-88921230D01*
X150515446Y-88937337D01*
X150515444Y-88937338D01*
X150510587Y-88938107D01*
X150506203Y-88940341D01*
X150506202Y-88940341D01*
X150458684Y-88964553D01*
X150410080Y-88989318D01*
X150330318Y-89069080D01*
X150279107Y-89169587D01*
X150278338Y-89174444D01*
X150278337Y-89174446D01*
X150277724Y-89178318D01*
X150261461Y-89281000D01*
X148823539Y-89281000D01*
X148807276Y-89178318D01*
X148806663Y-89174446D01*
X148806662Y-89174444D01*
X148805893Y-89169587D01*
X148754682Y-89069080D01*
X148674920Y-88989318D01*
X148626316Y-88964553D01*
X148578798Y-88940341D01*
X148578797Y-88940341D01*
X148574413Y-88938107D01*
X148569556Y-88937338D01*
X148569554Y-88937337D01*
X148467855Y-88921230D01*
X148463000Y-88920461D01*
X148458145Y-88921230D01*
X148356446Y-88937337D01*
X148356444Y-88937338D01*
X148351587Y-88938107D01*
X148347203Y-88940341D01*
X148347202Y-88940341D01*
X148299684Y-88964553D01*
X148251080Y-88989318D01*
X148171318Y-89069080D01*
X148120107Y-89169587D01*
X148119338Y-89174444D01*
X148119337Y-89174446D01*
X148118724Y-89178318D01*
X148102461Y-89281000D01*
X122301000Y-89281000D01*
X122301000Y-88265000D01*
X130957461Y-88265000D01*
X130975107Y-88376413D01*
X131026318Y-88476920D01*
X131106080Y-88556682D01*
X131154684Y-88581447D01*
X131202202Y-88605659D01*
X131202203Y-88605659D01*
X131206587Y-88607893D01*
X131211444Y-88608662D01*
X131211446Y-88608663D01*
X131313145Y-88624770D01*
X131318000Y-88625539D01*
X131322855Y-88624770D01*
X131424554Y-88608663D01*
X131424556Y-88608662D01*
X131429413Y-88607893D01*
X131433797Y-88605659D01*
X131433798Y-88605659D01*
X131481316Y-88581447D01*
X131529920Y-88556682D01*
X131609682Y-88476920D01*
X131660893Y-88376413D01*
X131678539Y-88265000D01*
X131846461Y-88265000D01*
X131864107Y-88376413D01*
X131915318Y-88476920D01*
X131995080Y-88556682D01*
X132043684Y-88581447D01*
X132091202Y-88605659D01*
X132091203Y-88605659D01*
X132095587Y-88607893D01*
X132100444Y-88608662D01*
X132100446Y-88608663D01*
X132202145Y-88624770D01*
X132207000Y-88625539D01*
X132211855Y-88624770D01*
X132313554Y-88608663D01*
X132313556Y-88608662D01*
X132318413Y-88607893D01*
X132322797Y-88605659D01*
X132322798Y-88605659D01*
X132370316Y-88581447D01*
X132418920Y-88556682D01*
X132498682Y-88476920D01*
X132549893Y-88376413D01*
X132567539Y-88265000D01*
X132549893Y-88153587D01*
X132498682Y-88053080D01*
X132456602Y-88011000D01*
X159278461Y-88011000D01*
X159296107Y-88122413D01*
X159347318Y-88222920D01*
X159427080Y-88302682D01*
X159475684Y-88327447D01*
X159523202Y-88351659D01*
X159523203Y-88351659D01*
X159527587Y-88353893D01*
X159532444Y-88354662D01*
X159532446Y-88354663D01*
X159634145Y-88370770D01*
X159639000Y-88371539D01*
X159643855Y-88370770D01*
X159745554Y-88354663D01*
X159745556Y-88354662D01*
X159750413Y-88353893D01*
X159754797Y-88351659D01*
X159754798Y-88351659D01*
X159802316Y-88327447D01*
X159850920Y-88302682D01*
X159930682Y-88222920D01*
X159981893Y-88122413D01*
X159999539Y-88011000D01*
X159993571Y-87973318D01*
X159982663Y-87904446D01*
X159982662Y-87904444D01*
X159981893Y-87899587D01*
X159930682Y-87799080D01*
X159850920Y-87719318D01*
X159802316Y-87694553D01*
X159754798Y-87670341D01*
X159754797Y-87670341D01*
X159750413Y-87668107D01*
X159745556Y-87667338D01*
X159745554Y-87667337D01*
X159643855Y-87651230D01*
X159639000Y-87650461D01*
X159634145Y-87651230D01*
X159532446Y-87667337D01*
X159532444Y-87667338D01*
X159527587Y-87668107D01*
X159523203Y-87670341D01*
X159523202Y-87670341D01*
X159475684Y-87694553D01*
X159427080Y-87719318D01*
X159347318Y-87799080D01*
X159296107Y-87899587D01*
X159295338Y-87904444D01*
X159295337Y-87904446D01*
X159284429Y-87973318D01*
X159278461Y-88011000D01*
X132456602Y-88011000D01*
X132418920Y-87973318D01*
X132352917Y-87939687D01*
X132321851Y-87903313D01*
X132325604Y-87855625D01*
X132352916Y-87828313D01*
X132418920Y-87794682D01*
X132498682Y-87714920D01*
X132549893Y-87614413D01*
X132567539Y-87503000D01*
X132549893Y-87391587D01*
X132541945Y-87375988D01*
X169692456Y-87375988D01*
X169710102Y-87487401D01*
X169761313Y-87587908D01*
X169841075Y-87667670D01*
X169889679Y-87692435D01*
X169937197Y-87716647D01*
X169937198Y-87716647D01*
X169941582Y-87718881D01*
X169946439Y-87719650D01*
X169946441Y-87719651D01*
X170048140Y-87735758D01*
X170052995Y-87736527D01*
X170057850Y-87735758D01*
X170159549Y-87719651D01*
X170159551Y-87719650D01*
X170164408Y-87718881D01*
X170168792Y-87716647D01*
X170168793Y-87716647D01*
X170216311Y-87692435D01*
X170264915Y-87667670D01*
X170344677Y-87587908D01*
X170395888Y-87487401D01*
X170413534Y-87375988D01*
X170395888Y-87264575D01*
X170344677Y-87164068D01*
X170264915Y-87084306D01*
X170216311Y-87059541D01*
X170168793Y-87035329D01*
X170168792Y-87035329D01*
X170164408Y-87033095D01*
X170159551Y-87032326D01*
X170159549Y-87032325D01*
X170057850Y-87016218D01*
X170052995Y-87015449D01*
X170048140Y-87016218D01*
X169946441Y-87032325D01*
X169946439Y-87032326D01*
X169941582Y-87033095D01*
X169937198Y-87035329D01*
X169937197Y-87035329D01*
X169889679Y-87059541D01*
X169841075Y-87084306D01*
X169761313Y-87164068D01*
X169710102Y-87264575D01*
X169692456Y-87375988D01*
X132541945Y-87375988D01*
X132498682Y-87291080D01*
X132418920Y-87211318D01*
X132326187Y-87164068D01*
X132322798Y-87162341D01*
X132322797Y-87162341D01*
X132318413Y-87160107D01*
X132313556Y-87159338D01*
X132313554Y-87159337D01*
X132211855Y-87143230D01*
X132207000Y-87142461D01*
X132202145Y-87143230D01*
X132100446Y-87159337D01*
X132100444Y-87159338D01*
X132095587Y-87160107D01*
X132091203Y-87162341D01*
X132091202Y-87162341D01*
X132087813Y-87164068D01*
X131995080Y-87211318D01*
X131915318Y-87291080D01*
X131864107Y-87391587D01*
X131846461Y-87503000D01*
X131864107Y-87614413D01*
X131915318Y-87714920D01*
X131995080Y-87794682D01*
X132061083Y-87828313D01*
X132092149Y-87864687D01*
X132088396Y-87912375D01*
X132061084Y-87939687D01*
X131995080Y-87973318D01*
X131915318Y-88053080D01*
X131864107Y-88153587D01*
X131846461Y-88265000D01*
X131678539Y-88265000D01*
X131660893Y-88153587D01*
X131609682Y-88053080D01*
X131529920Y-87973318D01*
X131463917Y-87939687D01*
X131432851Y-87903313D01*
X131436604Y-87855625D01*
X131463916Y-87828313D01*
X131529920Y-87794682D01*
X131609682Y-87714920D01*
X131660893Y-87614413D01*
X131678539Y-87503000D01*
X131660893Y-87391587D01*
X131609682Y-87291080D01*
X131529920Y-87211318D01*
X131437187Y-87164068D01*
X131433798Y-87162341D01*
X131433797Y-87162341D01*
X131429413Y-87160107D01*
X131424556Y-87159338D01*
X131424554Y-87159337D01*
X131322855Y-87143230D01*
X131318000Y-87142461D01*
X131313145Y-87143230D01*
X131211446Y-87159337D01*
X131211444Y-87159338D01*
X131206587Y-87160107D01*
X131202203Y-87162341D01*
X131202202Y-87162341D01*
X131198813Y-87164068D01*
X131106080Y-87211318D01*
X131026318Y-87291080D01*
X130975107Y-87391587D01*
X130957461Y-87503000D01*
X130975107Y-87614413D01*
X131026318Y-87714920D01*
X131106080Y-87794682D01*
X131172083Y-87828313D01*
X131203149Y-87864687D01*
X131199396Y-87912375D01*
X131172084Y-87939687D01*
X131106080Y-87973318D01*
X131026318Y-88053080D01*
X130975107Y-88153587D01*
X130957461Y-88265000D01*
X122301000Y-88265000D01*
X122301000Y-86614000D01*
X144292461Y-86614000D01*
X144310107Y-86725413D01*
X144361318Y-86825920D01*
X144441080Y-86905682D01*
X144489684Y-86930447D01*
X144537202Y-86954659D01*
X144537203Y-86954659D01*
X144541587Y-86956893D01*
X144546444Y-86957662D01*
X144546446Y-86957663D01*
X144648145Y-86973770D01*
X144653000Y-86974539D01*
X144657855Y-86973770D01*
X144759554Y-86957663D01*
X144759556Y-86957662D01*
X144764413Y-86956893D01*
X144768797Y-86954659D01*
X144768798Y-86954659D01*
X144816316Y-86930447D01*
X144864920Y-86905682D01*
X144944682Y-86825920D01*
X144995893Y-86725413D01*
X145013539Y-86614000D01*
X145007148Y-86573647D01*
X144996663Y-86507446D01*
X144996662Y-86507444D01*
X144995893Y-86502587D01*
X144944682Y-86402080D01*
X144864920Y-86322318D01*
X144816316Y-86297553D01*
X144768798Y-86273341D01*
X144768797Y-86273341D01*
X144764413Y-86271107D01*
X144759556Y-86270338D01*
X144759554Y-86270337D01*
X144657855Y-86254230D01*
X144653000Y-86253461D01*
X144648145Y-86254230D01*
X144546446Y-86270337D01*
X144546444Y-86270338D01*
X144541587Y-86271107D01*
X144537203Y-86273341D01*
X144537202Y-86273341D01*
X144489684Y-86297553D01*
X144441080Y-86322318D01*
X144361318Y-86402080D01*
X144310107Y-86502587D01*
X144309338Y-86507444D01*
X144309337Y-86507446D01*
X144298852Y-86573647D01*
X144292461Y-86614000D01*
X122301000Y-86614000D01*
X122301000Y-86106000D01*
X137561461Y-86106000D01*
X137579107Y-86217413D01*
X137581341Y-86221797D01*
X137581341Y-86221798D01*
X137597474Y-86253461D01*
X137630318Y-86317920D01*
X137710080Y-86397682D01*
X137718712Y-86402080D01*
X137806202Y-86446659D01*
X137806203Y-86446659D01*
X137810587Y-86448893D01*
X137815444Y-86449662D01*
X137815446Y-86449663D01*
X137917145Y-86465770D01*
X137922000Y-86466539D01*
X137926855Y-86465770D01*
X138028554Y-86449663D01*
X138028556Y-86449662D01*
X138033413Y-86448893D01*
X138037797Y-86446659D01*
X138037798Y-86446659D01*
X138125288Y-86402080D01*
X138133920Y-86397682D01*
X138213682Y-86317920D01*
X138246526Y-86253461D01*
X138256957Y-86232988D01*
X169692461Y-86232988D01*
X169693230Y-86237843D01*
X169706464Y-86321398D01*
X169710107Y-86344401D01*
X169761318Y-86444908D01*
X169841080Y-86524670D01*
X169889684Y-86549435D01*
X169937202Y-86573647D01*
X169937203Y-86573647D01*
X169941587Y-86575881D01*
X169946444Y-86576650D01*
X169946446Y-86576651D01*
X170048145Y-86592758D01*
X170053000Y-86593527D01*
X170057855Y-86592758D01*
X170159554Y-86576651D01*
X170159556Y-86576650D01*
X170164413Y-86575881D01*
X170168797Y-86573647D01*
X170168798Y-86573647D01*
X170216316Y-86549435D01*
X170264920Y-86524670D01*
X170344682Y-86444908D01*
X170395893Y-86344401D01*
X170399537Y-86321398D01*
X170412770Y-86237843D01*
X170413539Y-86232988D01*
X170395893Y-86121575D01*
X170385484Y-86101145D01*
X170346915Y-86025451D01*
X170344682Y-86021068D01*
X170264920Y-85941306D01*
X170172234Y-85894080D01*
X170168798Y-85892329D01*
X170168797Y-85892329D01*
X170164413Y-85890095D01*
X170159556Y-85889326D01*
X170159554Y-85889325D01*
X170057855Y-85873218D01*
X170053000Y-85872449D01*
X170048145Y-85873218D01*
X169946446Y-85889325D01*
X169946444Y-85889326D01*
X169941587Y-85890095D01*
X169937203Y-85892329D01*
X169937202Y-85892329D01*
X169933766Y-85894080D01*
X169841080Y-85941306D01*
X169761318Y-86021068D01*
X169759085Y-86025451D01*
X169720517Y-86101145D01*
X169710107Y-86121575D01*
X169692461Y-86232988D01*
X138256957Y-86232988D01*
X138262659Y-86221798D01*
X138262659Y-86221797D01*
X138264893Y-86217413D01*
X138282539Y-86106000D01*
X138280118Y-86090716D01*
X138265663Y-85999446D01*
X138265662Y-85999444D01*
X138264893Y-85994587D01*
X138213682Y-85894080D01*
X138133920Y-85814318D01*
X138085316Y-85789553D01*
X138037798Y-85765341D01*
X138037797Y-85765341D01*
X138033413Y-85763107D01*
X138028556Y-85762338D01*
X138028554Y-85762337D01*
X137926855Y-85746230D01*
X137922000Y-85745461D01*
X137917145Y-85746230D01*
X137815446Y-85762337D01*
X137815444Y-85762338D01*
X137810587Y-85763107D01*
X137806203Y-85765341D01*
X137806202Y-85765341D01*
X137758684Y-85789553D01*
X137710080Y-85814318D01*
X137630318Y-85894080D01*
X137579107Y-85994587D01*
X137578338Y-85999444D01*
X137578337Y-85999446D01*
X137563882Y-86090716D01*
X137561461Y-86106000D01*
X122301000Y-86106000D01*
X122301000Y-85090000D01*
X137561461Y-85090000D01*
X137562230Y-85094855D01*
X137578336Y-85196542D01*
X137579107Y-85201413D01*
X137630318Y-85301920D01*
X137710080Y-85381682D01*
X137727216Y-85390413D01*
X137806202Y-85430659D01*
X137806203Y-85430659D01*
X137810587Y-85432893D01*
X137815444Y-85433662D01*
X137815446Y-85433663D01*
X137917145Y-85449770D01*
X137922000Y-85450539D01*
X137926855Y-85449770D01*
X138028554Y-85433663D01*
X138028556Y-85433662D01*
X138033413Y-85432893D01*
X138037797Y-85430659D01*
X138037798Y-85430659D01*
X138116784Y-85390413D01*
X138133920Y-85381682D01*
X138213682Y-85301920D01*
X138225360Y-85279000D01*
X153211461Y-85279000D01*
X153212230Y-85283855D01*
X153228078Y-85383915D01*
X153229107Y-85390413D01*
X153280318Y-85490920D01*
X153360080Y-85570682D01*
X153408684Y-85595447D01*
X153456202Y-85619659D01*
X153456203Y-85619659D01*
X153460587Y-85621893D01*
X153465444Y-85622662D01*
X153465446Y-85622663D01*
X153567145Y-85638770D01*
X153572000Y-85639539D01*
X153576855Y-85638770D01*
X153678554Y-85622663D01*
X153678556Y-85622662D01*
X153683413Y-85621893D01*
X153687797Y-85619659D01*
X153687798Y-85619659D01*
X153735316Y-85595447D01*
X153783920Y-85570682D01*
X153863682Y-85490920D01*
X153914893Y-85390413D01*
X153915923Y-85383915D01*
X153931770Y-85283855D01*
X153932539Y-85279000D01*
X154100461Y-85279000D01*
X154101230Y-85283855D01*
X154117078Y-85383915D01*
X154118107Y-85390413D01*
X154169318Y-85490920D01*
X154249080Y-85570682D01*
X154297684Y-85595447D01*
X154345202Y-85619659D01*
X154345203Y-85619659D01*
X154349587Y-85621893D01*
X154354444Y-85622662D01*
X154354446Y-85622663D01*
X154456145Y-85638770D01*
X154461000Y-85639539D01*
X154465855Y-85638770D01*
X154567554Y-85622663D01*
X154567556Y-85622662D01*
X154572413Y-85621893D01*
X154576797Y-85619659D01*
X154576798Y-85619659D01*
X154624316Y-85595447D01*
X154672920Y-85570682D01*
X154752682Y-85490920D01*
X154803893Y-85390413D01*
X154804923Y-85383915D01*
X154820770Y-85283855D01*
X154821539Y-85279000D01*
X155116461Y-85279000D01*
X155117230Y-85283855D01*
X155133078Y-85383915D01*
X155134107Y-85390413D01*
X155185318Y-85490920D01*
X155265080Y-85570682D01*
X155313684Y-85595447D01*
X155361202Y-85619659D01*
X155361203Y-85619659D01*
X155365587Y-85621893D01*
X155370444Y-85622662D01*
X155370446Y-85622663D01*
X155472145Y-85638770D01*
X155477000Y-85639539D01*
X155481855Y-85638770D01*
X155583554Y-85622663D01*
X155583556Y-85622662D01*
X155588413Y-85621893D01*
X155592797Y-85619659D01*
X155592798Y-85619659D01*
X155640316Y-85595447D01*
X155688920Y-85570682D01*
X155768682Y-85490920D01*
X155819893Y-85390413D01*
X155820923Y-85383915D01*
X155836770Y-85283855D01*
X155837539Y-85279000D01*
X156005461Y-85279000D01*
X156006230Y-85283855D01*
X156022078Y-85383915D01*
X156023107Y-85390413D01*
X156074318Y-85490920D01*
X156154080Y-85570682D01*
X156202684Y-85595447D01*
X156250202Y-85619659D01*
X156250203Y-85619659D01*
X156254587Y-85621893D01*
X156259444Y-85622662D01*
X156259446Y-85622663D01*
X156361145Y-85638770D01*
X156366000Y-85639539D01*
X156370855Y-85638770D01*
X156472554Y-85622663D01*
X156472556Y-85622662D01*
X156477413Y-85621893D01*
X156481797Y-85619659D01*
X156481798Y-85619659D01*
X156529316Y-85595447D01*
X156577920Y-85570682D01*
X156657682Y-85490920D01*
X156708893Y-85390413D01*
X156709923Y-85383915D01*
X156725770Y-85283855D01*
X156726539Y-85279000D01*
X157656461Y-85279000D01*
X157657230Y-85283855D01*
X157673078Y-85383915D01*
X157674107Y-85390413D01*
X157725318Y-85490920D01*
X157805080Y-85570682D01*
X157853684Y-85595447D01*
X157901202Y-85619659D01*
X157901203Y-85619659D01*
X157905587Y-85621893D01*
X157910444Y-85622662D01*
X157910446Y-85622663D01*
X158012145Y-85638770D01*
X158017000Y-85639539D01*
X158021855Y-85638770D01*
X158123554Y-85622663D01*
X158123556Y-85622662D01*
X158128413Y-85621893D01*
X158132797Y-85619659D01*
X158132798Y-85619659D01*
X158180316Y-85595447D01*
X158228920Y-85570682D01*
X158308682Y-85490920D01*
X158359893Y-85390413D01*
X158360923Y-85383915D01*
X158376770Y-85283855D01*
X158377539Y-85279000D01*
X158545461Y-85279000D01*
X158546230Y-85283855D01*
X158562078Y-85383915D01*
X158563107Y-85390413D01*
X158614318Y-85490920D01*
X158694080Y-85570682D01*
X158742684Y-85595447D01*
X158790202Y-85619659D01*
X158790203Y-85619659D01*
X158794587Y-85621893D01*
X158799444Y-85622662D01*
X158799446Y-85622663D01*
X158901145Y-85638770D01*
X158906000Y-85639539D01*
X158910855Y-85638770D01*
X159012554Y-85622663D01*
X159012556Y-85622662D01*
X159017413Y-85621893D01*
X159021797Y-85619659D01*
X159021798Y-85619659D01*
X159069316Y-85595447D01*
X159117920Y-85570682D01*
X159197682Y-85490920D01*
X159248893Y-85390413D01*
X159249923Y-85383915D01*
X159265770Y-85283855D01*
X159266539Y-85279000D01*
X159434461Y-85279000D01*
X159435230Y-85283855D01*
X159451078Y-85383915D01*
X159452107Y-85390413D01*
X159503318Y-85490920D01*
X159583080Y-85570682D01*
X159631684Y-85595447D01*
X159679202Y-85619659D01*
X159679203Y-85619659D01*
X159683587Y-85621893D01*
X159688444Y-85622662D01*
X159688446Y-85622663D01*
X159790145Y-85638770D01*
X159795000Y-85639539D01*
X159799855Y-85638770D01*
X159901554Y-85622663D01*
X159901556Y-85622662D01*
X159906413Y-85621893D01*
X159910797Y-85619659D01*
X159910798Y-85619659D01*
X159958316Y-85595447D01*
X160006920Y-85570682D01*
X160086682Y-85490920D01*
X160137893Y-85390413D01*
X160138923Y-85383915D01*
X160154770Y-85283855D01*
X160155539Y-85279000D01*
X160323461Y-85279000D01*
X160324230Y-85283855D01*
X160340078Y-85383915D01*
X160341107Y-85390413D01*
X160392318Y-85490920D01*
X160472080Y-85570682D01*
X160520684Y-85595447D01*
X160568202Y-85619659D01*
X160568203Y-85619659D01*
X160572587Y-85621893D01*
X160577444Y-85622662D01*
X160577446Y-85622663D01*
X160679145Y-85638770D01*
X160684000Y-85639539D01*
X160688855Y-85638770D01*
X160790554Y-85622663D01*
X160790556Y-85622662D01*
X160795413Y-85621893D01*
X160799797Y-85619659D01*
X160799798Y-85619659D01*
X160847316Y-85595447D01*
X160895920Y-85570682D01*
X160975682Y-85490920D01*
X161026893Y-85390413D01*
X161027923Y-85383915D01*
X161043770Y-85283855D01*
X161044539Y-85279000D01*
X161032943Y-85205786D01*
X161027663Y-85172446D01*
X161027662Y-85172444D01*
X161026893Y-85167587D01*
X160975682Y-85067080D01*
X160914296Y-85005694D01*
X160895990Y-84961500D01*
X160914296Y-84917306D01*
X160975682Y-84855920D01*
X160985832Y-84836000D01*
X161818461Y-84836000D01*
X161819230Y-84840855D01*
X161831339Y-84917306D01*
X161836107Y-84947413D01*
X161838341Y-84951797D01*
X161838341Y-84951798D01*
X161849757Y-84974202D01*
X161887318Y-85047920D01*
X161967080Y-85127682D01*
X162015684Y-85152447D01*
X162063202Y-85176659D01*
X162063203Y-85176659D01*
X162067587Y-85178893D01*
X162072444Y-85179662D01*
X162072446Y-85179663D01*
X162174145Y-85195770D01*
X162179000Y-85196539D01*
X162183855Y-85195770D01*
X162285554Y-85179663D01*
X162285556Y-85179662D01*
X162290413Y-85178893D01*
X162294797Y-85176659D01*
X162294798Y-85176659D01*
X162342316Y-85152447D01*
X162390920Y-85127682D01*
X162428614Y-85089988D01*
X169692456Y-85089988D01*
X169710102Y-85201401D01*
X169761313Y-85301908D01*
X169841075Y-85381670D01*
X169848698Y-85385554D01*
X169937197Y-85430647D01*
X169937198Y-85430647D01*
X169941582Y-85432881D01*
X169946439Y-85433650D01*
X169946441Y-85433651D01*
X170048140Y-85449758D01*
X170052995Y-85450527D01*
X170057850Y-85449758D01*
X170159549Y-85433651D01*
X170159551Y-85433650D01*
X170164408Y-85432881D01*
X170168792Y-85430647D01*
X170168793Y-85430647D01*
X170257292Y-85385554D01*
X170264915Y-85381670D01*
X170344677Y-85301908D01*
X170395888Y-85201401D01*
X170413534Y-85089988D01*
X170406177Y-85043537D01*
X170396658Y-84983434D01*
X170396657Y-84983432D01*
X170395888Y-84978575D01*
X170382245Y-84951798D01*
X170346910Y-84882451D01*
X170344677Y-84878068D01*
X170264915Y-84798306D01*
X170171197Y-84750554D01*
X170168793Y-84749329D01*
X170168792Y-84749329D01*
X170164408Y-84747095D01*
X170159551Y-84746326D01*
X170159549Y-84746325D01*
X170057850Y-84730218D01*
X170052995Y-84729449D01*
X170048140Y-84730218D01*
X169946441Y-84746325D01*
X169946439Y-84746326D01*
X169941582Y-84747095D01*
X169937198Y-84749329D01*
X169937197Y-84749329D01*
X169934793Y-84750554D01*
X169841075Y-84798306D01*
X169761313Y-84878068D01*
X169759080Y-84882451D01*
X169723746Y-84951798D01*
X169710102Y-84978575D01*
X169709333Y-84983432D01*
X169709332Y-84983434D01*
X169699813Y-85043537D01*
X169692456Y-85089988D01*
X162428614Y-85089988D01*
X162470682Y-85047920D01*
X162508243Y-84974202D01*
X162519659Y-84951798D01*
X162519659Y-84951797D01*
X162521893Y-84947413D01*
X162526662Y-84917306D01*
X162538770Y-84840855D01*
X162539539Y-84836000D01*
X162527470Y-84759798D01*
X162522663Y-84729446D01*
X162522662Y-84729444D01*
X162521893Y-84724587D01*
X162470682Y-84624080D01*
X162390920Y-84544318D01*
X162342316Y-84519553D01*
X162294798Y-84495341D01*
X162294797Y-84495341D01*
X162290413Y-84493107D01*
X162285556Y-84492338D01*
X162285554Y-84492337D01*
X162183855Y-84476230D01*
X162179000Y-84475461D01*
X162174145Y-84476230D01*
X162072446Y-84492337D01*
X162072444Y-84492338D01*
X162067587Y-84493107D01*
X162063203Y-84495341D01*
X162063202Y-84495341D01*
X162015684Y-84519553D01*
X161967080Y-84544318D01*
X161887318Y-84624080D01*
X161836107Y-84724587D01*
X161835338Y-84729444D01*
X161835337Y-84729446D01*
X161830530Y-84759798D01*
X161818461Y-84836000D01*
X160985832Y-84836000D01*
X161026893Y-84755413D01*
X161028211Y-84747095D01*
X161043770Y-84648855D01*
X161044539Y-84644000D01*
X161028751Y-84544318D01*
X161027663Y-84537446D01*
X161027662Y-84537444D01*
X161026893Y-84532587D01*
X160975682Y-84432080D01*
X160895920Y-84352318D01*
X160847316Y-84327553D01*
X160799798Y-84303341D01*
X160799797Y-84303341D01*
X160795413Y-84301107D01*
X160790556Y-84300338D01*
X160790554Y-84300337D01*
X160688855Y-84284230D01*
X160684000Y-84283461D01*
X160679145Y-84284230D01*
X160577446Y-84300337D01*
X160577444Y-84300338D01*
X160572587Y-84301107D01*
X160568203Y-84303341D01*
X160568202Y-84303341D01*
X160520684Y-84327553D01*
X160472080Y-84352318D01*
X160392318Y-84432080D01*
X160341107Y-84532587D01*
X160340338Y-84537444D01*
X160340337Y-84537446D01*
X160339249Y-84544318D01*
X160323461Y-84644000D01*
X160324230Y-84648855D01*
X160339790Y-84747095D01*
X160341107Y-84755413D01*
X160392318Y-84855920D01*
X160453704Y-84917306D01*
X160472010Y-84961500D01*
X160453704Y-85005694D01*
X160392318Y-85067080D01*
X160341107Y-85167587D01*
X160340338Y-85172444D01*
X160340337Y-85172446D01*
X160335057Y-85205786D01*
X160323461Y-85279000D01*
X160155539Y-85279000D01*
X160143943Y-85205786D01*
X160138663Y-85172446D01*
X160138662Y-85172444D01*
X160137893Y-85167587D01*
X160086682Y-85067080D01*
X160025296Y-85005694D01*
X160006990Y-84961500D01*
X160025296Y-84917306D01*
X160086682Y-84855920D01*
X160137893Y-84755413D01*
X160139211Y-84747095D01*
X160154770Y-84648855D01*
X160155539Y-84644000D01*
X160139751Y-84544318D01*
X160138663Y-84537446D01*
X160138662Y-84537444D01*
X160137893Y-84532587D01*
X160086682Y-84432080D01*
X160006920Y-84352318D01*
X159958316Y-84327553D01*
X159910798Y-84303341D01*
X159910797Y-84303341D01*
X159906413Y-84301107D01*
X159901556Y-84300338D01*
X159901554Y-84300337D01*
X159799855Y-84284230D01*
X159795000Y-84283461D01*
X159790145Y-84284230D01*
X159688446Y-84300337D01*
X159688444Y-84300338D01*
X159683587Y-84301107D01*
X159679203Y-84303341D01*
X159679202Y-84303341D01*
X159631684Y-84327553D01*
X159583080Y-84352318D01*
X159503318Y-84432080D01*
X159452107Y-84532587D01*
X159451338Y-84537444D01*
X159451337Y-84537446D01*
X159450249Y-84544318D01*
X159434461Y-84644000D01*
X159435230Y-84648855D01*
X159450790Y-84747095D01*
X159452107Y-84755413D01*
X159503318Y-84855920D01*
X159564704Y-84917306D01*
X159583010Y-84961500D01*
X159564704Y-85005694D01*
X159503318Y-85067080D01*
X159452107Y-85167587D01*
X159451338Y-85172444D01*
X159451337Y-85172446D01*
X159446057Y-85205786D01*
X159434461Y-85279000D01*
X159266539Y-85279000D01*
X159254943Y-85205786D01*
X159249663Y-85172446D01*
X159249662Y-85172444D01*
X159248893Y-85167587D01*
X159197682Y-85067080D01*
X159136296Y-85005694D01*
X159117990Y-84961500D01*
X159136296Y-84917306D01*
X159197682Y-84855920D01*
X159248893Y-84755413D01*
X159250211Y-84747095D01*
X159265770Y-84648855D01*
X159266539Y-84644000D01*
X159250751Y-84544318D01*
X159249663Y-84537446D01*
X159249662Y-84537444D01*
X159248893Y-84532587D01*
X159197682Y-84432080D01*
X159117920Y-84352318D01*
X159069316Y-84327553D01*
X159021798Y-84303341D01*
X159021797Y-84303341D01*
X159017413Y-84301107D01*
X159012556Y-84300338D01*
X159012554Y-84300337D01*
X158910855Y-84284230D01*
X158906000Y-84283461D01*
X158901145Y-84284230D01*
X158799446Y-84300337D01*
X158799444Y-84300338D01*
X158794587Y-84301107D01*
X158790203Y-84303341D01*
X158790202Y-84303341D01*
X158742684Y-84327553D01*
X158694080Y-84352318D01*
X158614318Y-84432080D01*
X158563107Y-84532587D01*
X158562338Y-84537444D01*
X158562337Y-84537446D01*
X158561249Y-84544318D01*
X158545461Y-84644000D01*
X158546230Y-84648855D01*
X158561790Y-84747095D01*
X158563107Y-84755413D01*
X158614318Y-84855920D01*
X158675704Y-84917306D01*
X158694010Y-84961500D01*
X158675704Y-85005694D01*
X158614318Y-85067080D01*
X158563107Y-85167587D01*
X158562338Y-85172444D01*
X158562337Y-85172446D01*
X158557057Y-85205786D01*
X158545461Y-85279000D01*
X158377539Y-85279000D01*
X158365943Y-85205786D01*
X158360663Y-85172446D01*
X158360662Y-85172444D01*
X158359893Y-85167587D01*
X158308682Y-85067080D01*
X158247296Y-85005694D01*
X158228990Y-84961500D01*
X158247296Y-84917306D01*
X158308682Y-84855920D01*
X158359893Y-84755413D01*
X158361211Y-84747095D01*
X158376770Y-84648855D01*
X158377539Y-84644000D01*
X158361751Y-84544318D01*
X158360663Y-84537446D01*
X158360662Y-84537444D01*
X158359893Y-84532587D01*
X158308682Y-84432080D01*
X158228920Y-84352318D01*
X158180316Y-84327553D01*
X158132798Y-84303341D01*
X158132797Y-84303341D01*
X158128413Y-84301107D01*
X158123556Y-84300338D01*
X158123554Y-84300337D01*
X158021855Y-84284230D01*
X158017000Y-84283461D01*
X158012145Y-84284230D01*
X157910446Y-84300337D01*
X157910444Y-84300338D01*
X157905587Y-84301107D01*
X157901203Y-84303341D01*
X157901202Y-84303341D01*
X157853684Y-84327553D01*
X157805080Y-84352318D01*
X157725318Y-84432080D01*
X157674107Y-84532587D01*
X157673338Y-84537444D01*
X157673337Y-84537446D01*
X157672249Y-84544318D01*
X157656461Y-84644000D01*
X157657230Y-84648855D01*
X157672790Y-84747095D01*
X157674107Y-84755413D01*
X157725318Y-84855920D01*
X157786704Y-84917306D01*
X157805010Y-84961500D01*
X157786704Y-85005694D01*
X157725318Y-85067080D01*
X157674107Y-85167587D01*
X157673338Y-85172444D01*
X157673337Y-85172446D01*
X157668057Y-85205786D01*
X157656461Y-85279000D01*
X156726539Y-85279000D01*
X156714943Y-85205786D01*
X156709663Y-85172446D01*
X156709662Y-85172444D01*
X156708893Y-85167587D01*
X156657682Y-85067080D01*
X156596296Y-85005694D01*
X156577990Y-84961500D01*
X156596296Y-84917306D01*
X156657682Y-84855920D01*
X156708893Y-84755413D01*
X156710211Y-84747095D01*
X156725770Y-84648855D01*
X156726539Y-84644000D01*
X156710751Y-84544318D01*
X156709663Y-84537446D01*
X156709662Y-84537444D01*
X156708893Y-84532587D01*
X156657682Y-84432080D01*
X156577920Y-84352318D01*
X156529316Y-84327553D01*
X156481798Y-84303341D01*
X156481797Y-84303341D01*
X156477413Y-84301107D01*
X156472556Y-84300338D01*
X156472554Y-84300337D01*
X156370855Y-84284230D01*
X156366000Y-84283461D01*
X156361145Y-84284230D01*
X156259446Y-84300337D01*
X156259444Y-84300338D01*
X156254587Y-84301107D01*
X156250203Y-84303341D01*
X156250202Y-84303341D01*
X156202684Y-84327553D01*
X156154080Y-84352318D01*
X156074318Y-84432080D01*
X156023107Y-84532587D01*
X156022338Y-84537444D01*
X156022337Y-84537446D01*
X156021249Y-84544318D01*
X156005461Y-84644000D01*
X156006230Y-84648855D01*
X156021790Y-84747095D01*
X156023107Y-84755413D01*
X156074318Y-84855920D01*
X156135704Y-84917306D01*
X156154010Y-84961500D01*
X156135704Y-85005694D01*
X156074318Y-85067080D01*
X156023107Y-85167587D01*
X156022338Y-85172444D01*
X156022337Y-85172446D01*
X156017057Y-85205786D01*
X156005461Y-85279000D01*
X155837539Y-85279000D01*
X155825943Y-85205786D01*
X155820663Y-85172446D01*
X155820662Y-85172444D01*
X155819893Y-85167587D01*
X155768682Y-85067080D01*
X155707296Y-85005694D01*
X155688990Y-84961500D01*
X155707296Y-84917306D01*
X155768682Y-84855920D01*
X155819893Y-84755413D01*
X155821211Y-84747095D01*
X155836770Y-84648855D01*
X155837539Y-84644000D01*
X155821751Y-84544318D01*
X155820663Y-84537446D01*
X155820662Y-84537444D01*
X155819893Y-84532587D01*
X155768682Y-84432080D01*
X155688920Y-84352318D01*
X155640316Y-84327553D01*
X155592798Y-84303341D01*
X155592797Y-84303341D01*
X155588413Y-84301107D01*
X155583556Y-84300338D01*
X155583554Y-84300337D01*
X155481855Y-84284230D01*
X155477000Y-84283461D01*
X155472145Y-84284230D01*
X155370446Y-84300337D01*
X155370444Y-84300338D01*
X155365587Y-84301107D01*
X155361203Y-84303341D01*
X155361202Y-84303341D01*
X155313684Y-84327553D01*
X155265080Y-84352318D01*
X155185318Y-84432080D01*
X155134107Y-84532587D01*
X155133338Y-84537444D01*
X155133337Y-84537446D01*
X155132249Y-84544318D01*
X155116461Y-84644000D01*
X155117230Y-84648855D01*
X155132790Y-84747095D01*
X155134107Y-84755413D01*
X155185318Y-84855920D01*
X155246704Y-84917306D01*
X155265010Y-84961500D01*
X155246704Y-85005694D01*
X155185318Y-85067080D01*
X155134107Y-85167587D01*
X155133338Y-85172444D01*
X155133337Y-85172446D01*
X155128057Y-85205786D01*
X155116461Y-85279000D01*
X154821539Y-85279000D01*
X154809943Y-85205786D01*
X154804663Y-85172446D01*
X154804662Y-85172444D01*
X154803893Y-85167587D01*
X154752682Y-85067080D01*
X154691296Y-85005694D01*
X154672990Y-84961500D01*
X154691296Y-84917306D01*
X154752682Y-84855920D01*
X154803893Y-84755413D01*
X154805211Y-84747095D01*
X154820770Y-84648855D01*
X154821539Y-84644000D01*
X154805751Y-84544318D01*
X154804663Y-84537446D01*
X154804662Y-84537444D01*
X154803893Y-84532587D01*
X154752682Y-84432080D01*
X154672920Y-84352318D01*
X154624316Y-84327553D01*
X154576798Y-84303341D01*
X154576797Y-84303341D01*
X154572413Y-84301107D01*
X154567556Y-84300338D01*
X154567554Y-84300337D01*
X154465855Y-84284230D01*
X154461000Y-84283461D01*
X154456145Y-84284230D01*
X154354446Y-84300337D01*
X154354444Y-84300338D01*
X154349587Y-84301107D01*
X154345203Y-84303341D01*
X154345202Y-84303341D01*
X154297684Y-84327553D01*
X154249080Y-84352318D01*
X154169318Y-84432080D01*
X154118107Y-84532587D01*
X154117338Y-84537444D01*
X154117337Y-84537446D01*
X154116249Y-84544318D01*
X154100461Y-84644000D01*
X154101230Y-84648855D01*
X154116790Y-84747095D01*
X154118107Y-84755413D01*
X154169318Y-84855920D01*
X154230704Y-84917306D01*
X154249010Y-84961500D01*
X154230704Y-85005694D01*
X154169318Y-85067080D01*
X154118107Y-85167587D01*
X154117338Y-85172444D01*
X154117337Y-85172446D01*
X154112057Y-85205786D01*
X154100461Y-85279000D01*
X153932539Y-85279000D01*
X153920943Y-85205786D01*
X153915663Y-85172446D01*
X153915662Y-85172444D01*
X153914893Y-85167587D01*
X153863682Y-85067080D01*
X153802296Y-85005694D01*
X153783990Y-84961500D01*
X153802296Y-84917306D01*
X153863682Y-84855920D01*
X153914893Y-84755413D01*
X153916211Y-84747095D01*
X153931770Y-84648855D01*
X153932539Y-84644000D01*
X153916751Y-84544318D01*
X153915663Y-84537446D01*
X153915662Y-84537444D01*
X153914893Y-84532587D01*
X153863682Y-84432080D01*
X153783920Y-84352318D01*
X153735316Y-84327553D01*
X153687798Y-84303341D01*
X153687797Y-84303341D01*
X153683413Y-84301107D01*
X153678556Y-84300338D01*
X153678554Y-84300337D01*
X153576855Y-84284230D01*
X153572000Y-84283461D01*
X153567145Y-84284230D01*
X153465446Y-84300337D01*
X153465444Y-84300338D01*
X153460587Y-84301107D01*
X153456203Y-84303341D01*
X153456202Y-84303341D01*
X153408684Y-84327553D01*
X153360080Y-84352318D01*
X153280318Y-84432080D01*
X153229107Y-84532587D01*
X153228338Y-84537444D01*
X153228337Y-84537446D01*
X153227249Y-84544318D01*
X153211461Y-84644000D01*
X153212230Y-84648855D01*
X153227790Y-84747095D01*
X153229107Y-84755413D01*
X153280318Y-84855920D01*
X153341704Y-84917306D01*
X153360010Y-84961500D01*
X153341704Y-85005694D01*
X153280318Y-85067080D01*
X153229107Y-85167587D01*
X153228338Y-85172444D01*
X153228337Y-85172446D01*
X153223057Y-85205786D01*
X153211461Y-85279000D01*
X138225360Y-85279000D01*
X138264893Y-85201413D01*
X138265665Y-85196542D01*
X138281770Y-85094855D01*
X138282539Y-85090000D01*
X138275180Y-85043537D01*
X138265663Y-84983446D01*
X138265662Y-84983444D01*
X138264893Y-84978587D01*
X138213682Y-84878080D01*
X138133920Y-84798318D01*
X138085316Y-84773553D01*
X138037798Y-84749341D01*
X138037797Y-84749341D01*
X138033413Y-84747107D01*
X138028556Y-84746338D01*
X138028554Y-84746337D01*
X137926855Y-84730230D01*
X137922000Y-84729461D01*
X137917145Y-84730230D01*
X137815446Y-84746337D01*
X137815444Y-84746338D01*
X137810587Y-84747107D01*
X137806203Y-84749341D01*
X137806202Y-84749341D01*
X137758684Y-84773553D01*
X137710080Y-84798318D01*
X137630318Y-84878080D01*
X137579107Y-84978587D01*
X137578338Y-84983444D01*
X137578337Y-84983446D01*
X137568820Y-85043537D01*
X137561461Y-85090000D01*
X122301000Y-85090000D01*
X122301000Y-83947000D01*
X125496461Y-83947000D01*
X125514107Y-84058413D01*
X125516341Y-84062797D01*
X125516341Y-84062798D01*
X125540553Y-84110316D01*
X125565318Y-84158920D01*
X125645080Y-84238682D01*
X125693684Y-84263447D01*
X125741202Y-84287659D01*
X125741203Y-84287659D01*
X125745587Y-84289893D01*
X125750444Y-84290662D01*
X125750446Y-84290663D01*
X125852145Y-84306770D01*
X125857000Y-84307539D01*
X125861855Y-84306770D01*
X125963554Y-84290663D01*
X125963556Y-84290662D01*
X125968413Y-84289893D01*
X125972797Y-84287659D01*
X125972798Y-84287659D01*
X126020316Y-84263447D01*
X126068920Y-84238682D01*
X126148682Y-84158920D01*
X126173447Y-84110316D01*
X126197659Y-84062798D01*
X126197659Y-84062797D01*
X126199893Y-84058413D01*
X126217539Y-83947000D01*
X136672461Y-83947000D01*
X136690107Y-84058413D01*
X136692341Y-84062797D01*
X136692341Y-84062798D01*
X136716553Y-84110316D01*
X136741318Y-84158920D01*
X136821080Y-84238682D01*
X136869684Y-84263447D01*
X136917202Y-84287659D01*
X136917203Y-84287659D01*
X136921587Y-84289893D01*
X136926444Y-84290662D01*
X136926446Y-84290663D01*
X137028145Y-84306770D01*
X137033000Y-84307539D01*
X137037855Y-84306770D01*
X137139554Y-84290663D01*
X137139556Y-84290662D01*
X137144413Y-84289893D01*
X137148797Y-84287659D01*
X137148798Y-84287659D01*
X137196316Y-84263447D01*
X137244920Y-84238682D01*
X137324682Y-84158920D01*
X137349447Y-84110316D01*
X137367957Y-84073988D01*
X169692456Y-84073988D01*
X169693225Y-84078843D01*
X169706459Y-84162398D01*
X169710102Y-84185401D01*
X169761313Y-84285908D01*
X169841075Y-84365670D01*
X169889679Y-84390435D01*
X169937197Y-84414647D01*
X169937198Y-84414647D01*
X169941582Y-84416881D01*
X169946439Y-84417650D01*
X169946441Y-84417651D01*
X170048140Y-84433758D01*
X170052995Y-84434527D01*
X170057850Y-84433758D01*
X170159549Y-84417651D01*
X170159551Y-84417650D01*
X170164408Y-84416881D01*
X170168792Y-84414647D01*
X170168793Y-84414647D01*
X170216311Y-84390435D01*
X170264915Y-84365670D01*
X170344677Y-84285908D01*
X170395888Y-84185401D01*
X170399532Y-84162398D01*
X170412765Y-84078843D01*
X170413534Y-84073988D01*
X170395888Y-83962575D01*
X170385479Y-83942145D01*
X170346910Y-83866451D01*
X170344677Y-83862068D01*
X170264915Y-83782306D01*
X170172229Y-83735080D01*
X170168793Y-83733329D01*
X170168792Y-83733329D01*
X170164408Y-83731095D01*
X170159551Y-83730326D01*
X170159549Y-83730325D01*
X170057850Y-83714218D01*
X170052995Y-83713449D01*
X170048140Y-83714218D01*
X169946441Y-83730325D01*
X169946439Y-83730326D01*
X169941582Y-83731095D01*
X169937198Y-83733329D01*
X169937197Y-83733329D01*
X169933761Y-83735080D01*
X169841075Y-83782306D01*
X169761313Y-83862068D01*
X169759080Y-83866451D01*
X169720512Y-83942145D01*
X169710102Y-83962575D01*
X169692456Y-84073988D01*
X137367957Y-84073988D01*
X137373659Y-84062798D01*
X137373659Y-84062797D01*
X137375893Y-84058413D01*
X137393539Y-83947000D01*
X137391118Y-83931716D01*
X137376663Y-83840446D01*
X137376662Y-83840444D01*
X137375893Y-83835587D01*
X137324682Y-83735080D01*
X137244920Y-83655318D01*
X137196316Y-83630553D01*
X137148798Y-83606341D01*
X137148797Y-83606341D01*
X137144413Y-83604107D01*
X137139556Y-83603338D01*
X137139554Y-83603337D01*
X137037855Y-83587230D01*
X137033000Y-83586461D01*
X137028145Y-83587230D01*
X136926446Y-83603337D01*
X136926444Y-83603338D01*
X136921587Y-83604107D01*
X136917203Y-83606341D01*
X136917202Y-83606341D01*
X136869684Y-83630553D01*
X136821080Y-83655318D01*
X136741318Y-83735080D01*
X136690107Y-83835587D01*
X136689338Y-83840444D01*
X136689337Y-83840446D01*
X136674882Y-83931716D01*
X136672461Y-83947000D01*
X126217539Y-83947000D01*
X126215118Y-83931716D01*
X126200663Y-83840446D01*
X126200662Y-83840444D01*
X126199893Y-83835587D01*
X126148682Y-83735080D01*
X126068920Y-83655318D01*
X126020316Y-83630553D01*
X125972798Y-83606341D01*
X125972797Y-83606341D01*
X125968413Y-83604107D01*
X125963556Y-83603338D01*
X125963554Y-83603337D01*
X125861855Y-83587230D01*
X125857000Y-83586461D01*
X125852145Y-83587230D01*
X125750446Y-83603337D01*
X125750444Y-83603338D01*
X125745587Y-83604107D01*
X125741203Y-83606341D01*
X125741202Y-83606341D01*
X125693684Y-83630553D01*
X125645080Y-83655318D01*
X125565318Y-83735080D01*
X125514107Y-83835587D01*
X125513338Y-83840444D01*
X125513337Y-83840446D01*
X125498882Y-83931716D01*
X125496461Y-83947000D01*
X122301000Y-83947000D01*
X122301000Y-83185000D01*
X142133461Y-83185000D01*
X142134230Y-83189855D01*
X142147462Y-83273398D01*
X142151107Y-83296413D01*
X142202318Y-83396920D01*
X142282080Y-83476682D01*
X142330684Y-83501447D01*
X142378202Y-83525659D01*
X142378203Y-83525659D01*
X142382587Y-83527893D01*
X142387444Y-83528662D01*
X142387446Y-83528663D01*
X142489145Y-83544770D01*
X142494000Y-83545539D01*
X142498855Y-83544770D01*
X142600554Y-83528663D01*
X142600556Y-83528662D01*
X142605413Y-83527893D01*
X142609797Y-83525659D01*
X142609798Y-83525659D01*
X142657316Y-83501447D01*
X142705920Y-83476682D01*
X142785682Y-83396920D01*
X142836893Y-83296413D01*
X142840539Y-83273398D01*
X142853770Y-83189855D01*
X142854539Y-83185000D01*
X142836893Y-83073587D01*
X142828951Y-83058000D01*
X151150461Y-83058000D01*
X151168107Y-83169413D01*
X151219318Y-83269920D01*
X151299080Y-83349682D01*
X151347684Y-83374447D01*
X151395202Y-83398659D01*
X151395203Y-83398659D01*
X151399587Y-83400893D01*
X151404444Y-83401662D01*
X151404446Y-83401663D01*
X151506145Y-83417770D01*
X151511000Y-83418539D01*
X151515855Y-83417770D01*
X151617554Y-83401663D01*
X151617556Y-83401662D01*
X151622413Y-83400893D01*
X151626797Y-83398659D01*
X151626798Y-83398659D01*
X151674316Y-83374447D01*
X151722920Y-83349682D01*
X151802682Y-83269920D01*
X151853893Y-83169413D01*
X151871539Y-83058000D01*
X151868299Y-83037542D01*
X151854663Y-82951446D01*
X151854662Y-82951444D01*
X151853893Y-82946587D01*
X151845945Y-82930988D01*
X169692456Y-82930988D01*
X169710102Y-83042401D01*
X169761313Y-83142908D01*
X169841075Y-83222670D01*
X169889679Y-83247435D01*
X169937197Y-83271647D01*
X169937198Y-83271647D01*
X169941582Y-83273881D01*
X169946439Y-83274650D01*
X169946441Y-83274651D01*
X170048140Y-83290758D01*
X170052995Y-83291527D01*
X170057850Y-83290758D01*
X170159549Y-83274651D01*
X170159551Y-83274650D01*
X170164408Y-83273881D01*
X170168792Y-83271647D01*
X170168793Y-83271647D01*
X170216311Y-83247435D01*
X170264915Y-83222670D01*
X170344677Y-83142908D01*
X170395888Y-83042401D01*
X170413534Y-82930988D01*
X170395888Y-82819575D01*
X170344677Y-82719068D01*
X170264915Y-82639306D01*
X170216311Y-82614541D01*
X170168793Y-82590329D01*
X170168792Y-82590329D01*
X170164408Y-82588095D01*
X170159551Y-82587326D01*
X170159549Y-82587325D01*
X170057850Y-82571218D01*
X170052995Y-82570449D01*
X170048140Y-82571218D01*
X169946441Y-82587325D01*
X169946439Y-82587326D01*
X169941582Y-82588095D01*
X169937198Y-82590329D01*
X169937197Y-82590329D01*
X169889679Y-82614541D01*
X169841075Y-82639306D01*
X169761313Y-82719068D01*
X169710102Y-82819575D01*
X169692456Y-82930988D01*
X151845945Y-82930988D01*
X151802682Y-82846080D01*
X151722920Y-82766318D01*
X151630187Y-82719068D01*
X151626798Y-82717341D01*
X151626797Y-82717341D01*
X151622413Y-82715107D01*
X151617556Y-82714338D01*
X151617554Y-82714337D01*
X151515855Y-82698230D01*
X151511000Y-82697461D01*
X151506145Y-82698230D01*
X151404446Y-82714337D01*
X151404444Y-82714338D01*
X151399587Y-82715107D01*
X151395203Y-82717341D01*
X151395202Y-82717341D01*
X151391813Y-82719068D01*
X151299080Y-82766318D01*
X151219318Y-82846080D01*
X151168107Y-82946587D01*
X151167338Y-82951444D01*
X151167337Y-82951446D01*
X151153701Y-83037542D01*
X151150461Y-83058000D01*
X142828951Y-83058000D01*
X142785682Y-82973080D01*
X142705920Y-82893318D01*
X142621813Y-82850463D01*
X142609798Y-82844341D01*
X142609797Y-82844341D01*
X142605413Y-82842107D01*
X142600556Y-82841338D01*
X142600554Y-82841337D01*
X142498855Y-82825230D01*
X142494000Y-82824461D01*
X142489145Y-82825230D01*
X142387446Y-82841337D01*
X142387444Y-82841338D01*
X142382587Y-82842107D01*
X142378203Y-82844341D01*
X142378202Y-82844341D01*
X142366187Y-82850463D01*
X142282080Y-82893318D01*
X142202318Y-82973080D01*
X142151107Y-83073587D01*
X142133461Y-83185000D01*
X122301000Y-83185000D01*
X122301000Y-80518000D01*
X149753461Y-80518000D01*
X149771107Y-80629413D01*
X149822318Y-80729920D01*
X149902080Y-80809682D01*
X149950684Y-80834447D01*
X149998202Y-80858659D01*
X149998203Y-80858659D01*
X150002587Y-80860893D01*
X150007444Y-80861662D01*
X150007446Y-80861663D01*
X150109145Y-80877770D01*
X150114000Y-80878539D01*
X150118855Y-80877770D01*
X150220554Y-80861663D01*
X150220556Y-80861662D01*
X150225413Y-80860893D01*
X150229797Y-80858659D01*
X150229798Y-80858659D01*
X150277316Y-80834447D01*
X150325920Y-80809682D01*
X150405682Y-80729920D01*
X150456893Y-80629413D01*
X150474539Y-80518000D01*
X150471177Y-80496770D01*
X150457663Y-80411446D01*
X150457662Y-80411444D01*
X150456893Y-80406587D01*
X150405682Y-80306080D01*
X150363602Y-80264000D01*
X156230461Y-80264000D01*
X156231230Y-80268855D01*
X156244462Y-80352398D01*
X156248107Y-80375413D01*
X156299318Y-80475920D01*
X156379080Y-80555682D01*
X156427684Y-80580447D01*
X156475202Y-80604659D01*
X156475203Y-80604659D01*
X156479587Y-80606893D01*
X156484444Y-80607662D01*
X156484446Y-80607663D01*
X156586145Y-80623770D01*
X156591000Y-80624539D01*
X156595855Y-80623770D01*
X156697554Y-80607663D01*
X156697556Y-80607662D01*
X156702413Y-80606893D01*
X156706797Y-80604659D01*
X156706798Y-80604659D01*
X156754316Y-80580447D01*
X156802920Y-80555682D01*
X156882682Y-80475920D01*
X156933893Y-80375413D01*
X156937539Y-80352398D01*
X156950770Y-80268855D01*
X156951539Y-80264000D01*
X156933893Y-80152587D01*
X156882682Y-80052080D01*
X156840602Y-80010000D01*
X170200461Y-80010000D01*
X170218107Y-80121413D01*
X170269318Y-80221920D01*
X170349080Y-80301682D01*
X170357712Y-80306080D01*
X170445202Y-80350659D01*
X170445203Y-80350659D01*
X170449587Y-80352893D01*
X170454444Y-80353662D01*
X170454446Y-80353663D01*
X170556145Y-80369770D01*
X170561000Y-80370539D01*
X170565855Y-80369770D01*
X170667554Y-80353663D01*
X170667556Y-80353662D01*
X170672413Y-80352893D01*
X170676797Y-80350659D01*
X170676798Y-80350659D01*
X170764288Y-80306080D01*
X170772920Y-80301682D01*
X170852682Y-80221920D01*
X170903893Y-80121413D01*
X170921539Y-80010000D01*
X170915217Y-79970085D01*
X170904663Y-79903446D01*
X170904662Y-79903444D01*
X170903893Y-79898587D01*
X170852682Y-79798080D01*
X170772920Y-79718318D01*
X170724316Y-79693553D01*
X170676798Y-79669341D01*
X170676797Y-79669341D01*
X170672413Y-79667107D01*
X170667556Y-79666338D01*
X170667554Y-79666337D01*
X170565855Y-79650230D01*
X170561000Y-79649461D01*
X170556145Y-79650230D01*
X170454446Y-79666337D01*
X170454444Y-79666338D01*
X170449587Y-79667107D01*
X170445203Y-79669341D01*
X170445202Y-79669341D01*
X170397684Y-79693553D01*
X170349080Y-79718318D01*
X170269318Y-79798080D01*
X170218107Y-79898587D01*
X170217338Y-79903444D01*
X170217337Y-79903446D01*
X170206783Y-79970085D01*
X170200461Y-80010000D01*
X156840602Y-80010000D01*
X156802920Y-79972318D01*
X156718813Y-79929463D01*
X156706798Y-79923341D01*
X156706797Y-79923341D01*
X156702413Y-79921107D01*
X156697556Y-79920338D01*
X156697554Y-79920337D01*
X156595855Y-79904230D01*
X156591000Y-79903461D01*
X156586145Y-79904230D01*
X156484446Y-79920337D01*
X156484444Y-79920338D01*
X156479587Y-79921107D01*
X156475203Y-79923341D01*
X156475202Y-79923341D01*
X156463187Y-79929463D01*
X156379080Y-79972318D01*
X156299318Y-80052080D01*
X156248107Y-80152587D01*
X156230461Y-80264000D01*
X150363602Y-80264000D01*
X150325920Y-80226318D01*
X150277316Y-80201553D01*
X150229798Y-80177341D01*
X150229797Y-80177341D01*
X150225413Y-80175107D01*
X150220556Y-80174338D01*
X150220554Y-80174337D01*
X150118855Y-80158230D01*
X150114000Y-80157461D01*
X150109145Y-80158230D01*
X150007446Y-80174337D01*
X150007444Y-80174338D01*
X150002587Y-80175107D01*
X149998203Y-80177341D01*
X149998202Y-80177341D01*
X149950684Y-80201553D01*
X149902080Y-80226318D01*
X149822318Y-80306080D01*
X149771107Y-80406587D01*
X149770338Y-80411444D01*
X149770337Y-80411446D01*
X149756823Y-80496770D01*
X149753461Y-80518000D01*
X122301000Y-80518000D01*
X122301000Y-80137000D01*
X132227461Y-80137000D01*
X132228230Y-80141855D01*
X132241608Y-80226318D01*
X132245107Y-80248413D01*
X132296318Y-80348920D01*
X132376080Y-80428682D01*
X132424684Y-80453447D01*
X132472202Y-80477659D01*
X132472203Y-80477659D01*
X132476587Y-80479893D01*
X132481444Y-80480662D01*
X132481446Y-80480663D01*
X132583145Y-80496770D01*
X132588000Y-80497539D01*
X132592855Y-80496770D01*
X132694554Y-80480663D01*
X132694556Y-80480662D01*
X132699413Y-80479893D01*
X132703797Y-80477659D01*
X132703798Y-80477659D01*
X132751316Y-80453447D01*
X132799920Y-80428682D01*
X132879682Y-80348920D01*
X132930893Y-80248413D01*
X132934393Y-80226318D01*
X132947770Y-80141855D01*
X132948539Y-80137000D01*
X133116461Y-80137000D01*
X133117230Y-80141855D01*
X133130608Y-80226318D01*
X133134107Y-80248413D01*
X133185318Y-80348920D01*
X133265080Y-80428682D01*
X133313684Y-80453447D01*
X133361202Y-80477659D01*
X133361203Y-80477659D01*
X133365587Y-80479893D01*
X133370444Y-80480662D01*
X133370446Y-80480663D01*
X133472145Y-80496770D01*
X133477000Y-80497539D01*
X133481855Y-80496770D01*
X133583554Y-80480663D01*
X133583556Y-80480662D01*
X133588413Y-80479893D01*
X133592797Y-80477659D01*
X133592798Y-80477659D01*
X133640316Y-80453447D01*
X133688920Y-80428682D01*
X133768682Y-80348920D01*
X133819893Y-80248413D01*
X133823393Y-80226318D01*
X133836770Y-80141855D01*
X133837539Y-80137000D01*
X133834301Y-80116554D01*
X133820663Y-80030446D01*
X133820662Y-80030444D01*
X133819893Y-80025587D01*
X133768682Y-79925080D01*
X133688920Y-79845318D01*
X133604813Y-79802463D01*
X133592798Y-79796341D01*
X133592797Y-79796341D01*
X133588413Y-79794107D01*
X133583556Y-79793338D01*
X133583554Y-79793337D01*
X133481855Y-79777230D01*
X133477000Y-79776461D01*
X133472145Y-79777230D01*
X133370446Y-79793337D01*
X133370444Y-79793338D01*
X133365587Y-79794107D01*
X133361203Y-79796341D01*
X133361202Y-79796341D01*
X133349187Y-79802463D01*
X133265080Y-79845318D01*
X133185318Y-79925080D01*
X133134107Y-80025587D01*
X133133338Y-80030444D01*
X133133337Y-80030446D01*
X133119699Y-80116554D01*
X133116461Y-80137000D01*
X132948539Y-80137000D01*
X132945301Y-80116554D01*
X132931663Y-80030446D01*
X132931662Y-80030444D01*
X132930893Y-80025587D01*
X132879682Y-79925080D01*
X132799920Y-79845318D01*
X132715813Y-79802463D01*
X132703798Y-79796341D01*
X132703797Y-79796341D01*
X132699413Y-79794107D01*
X132694556Y-79793338D01*
X132694554Y-79793337D01*
X132592855Y-79777230D01*
X132588000Y-79776461D01*
X132583145Y-79777230D01*
X132481446Y-79793337D01*
X132481444Y-79793338D01*
X132476587Y-79794107D01*
X132472203Y-79796341D01*
X132472202Y-79796341D01*
X132460187Y-79802463D01*
X132376080Y-79845318D01*
X132296318Y-79925080D01*
X132245107Y-80025587D01*
X132244338Y-80030444D01*
X132244337Y-80030446D01*
X132230699Y-80116554D01*
X132227461Y-80137000D01*
X122301000Y-80137000D01*
X122301000Y-79248000D01*
X151150461Y-79248000D01*
X151168107Y-79359413D01*
X151219318Y-79459920D01*
X151299080Y-79539682D01*
X151347684Y-79564447D01*
X151395202Y-79588659D01*
X151395203Y-79588659D01*
X151399587Y-79590893D01*
X151404444Y-79591662D01*
X151404446Y-79591663D01*
X151506145Y-79607770D01*
X151511000Y-79608539D01*
X151515855Y-79607770D01*
X151617554Y-79591663D01*
X151617556Y-79591662D01*
X151622413Y-79590893D01*
X151626797Y-79588659D01*
X151626798Y-79588659D01*
X151674316Y-79564447D01*
X151722920Y-79539682D01*
X151802682Y-79459920D01*
X151853893Y-79359413D01*
X151871539Y-79248000D01*
X151868177Y-79226770D01*
X151854663Y-79141446D01*
X151854662Y-79141444D01*
X151853893Y-79136587D01*
X151802682Y-79036080D01*
X151722920Y-78956318D01*
X151674316Y-78931553D01*
X151626798Y-78907341D01*
X151626797Y-78907341D01*
X151622413Y-78905107D01*
X151617556Y-78904338D01*
X151617554Y-78904337D01*
X151515855Y-78888230D01*
X151511000Y-78887461D01*
X151506145Y-78888230D01*
X151404446Y-78904337D01*
X151404444Y-78904338D01*
X151399587Y-78905107D01*
X151395203Y-78907341D01*
X151395202Y-78907341D01*
X151347684Y-78931553D01*
X151299080Y-78956318D01*
X151219318Y-79036080D01*
X151168107Y-79136587D01*
X151167338Y-79141444D01*
X151167337Y-79141446D01*
X151153823Y-79226770D01*
X151150461Y-79248000D01*
X122301000Y-79248000D01*
X122301000Y-78867000D01*
X145435461Y-78867000D01*
X145436230Y-78871855D01*
X145449608Y-78956318D01*
X145453107Y-78978413D01*
X145504318Y-79078920D01*
X145584080Y-79158682D01*
X145632684Y-79183447D01*
X145680202Y-79207659D01*
X145680203Y-79207659D01*
X145684587Y-79209893D01*
X145689444Y-79210662D01*
X145689446Y-79210663D01*
X145791145Y-79226770D01*
X145796000Y-79227539D01*
X145800855Y-79226770D01*
X145902554Y-79210663D01*
X145902556Y-79210662D01*
X145907413Y-79209893D01*
X145911797Y-79207659D01*
X145911798Y-79207659D01*
X145959316Y-79183447D01*
X146007920Y-79158682D01*
X146087682Y-79078920D01*
X146138893Y-78978413D01*
X146142393Y-78956318D01*
X146155770Y-78871855D01*
X146156539Y-78867000D01*
X149118461Y-78867000D01*
X149119230Y-78871855D01*
X149132608Y-78956318D01*
X149136107Y-78978413D01*
X149187318Y-79078920D01*
X149267080Y-79158682D01*
X149315684Y-79183447D01*
X149363202Y-79207659D01*
X149363203Y-79207659D01*
X149367587Y-79209893D01*
X149372444Y-79210662D01*
X149372446Y-79210663D01*
X149474145Y-79226770D01*
X149479000Y-79227539D01*
X149483855Y-79226770D01*
X149585554Y-79210663D01*
X149585556Y-79210662D01*
X149590413Y-79209893D01*
X149594797Y-79207659D01*
X149594798Y-79207659D01*
X149642316Y-79183447D01*
X149690920Y-79158682D01*
X149770682Y-79078920D01*
X149821893Y-78978413D01*
X149825393Y-78956318D01*
X149838770Y-78871855D01*
X149839539Y-78867000D01*
X149821893Y-78755587D01*
X149770682Y-78655080D01*
X149690920Y-78575318D01*
X149642316Y-78550553D01*
X149594798Y-78526341D01*
X149594797Y-78526341D01*
X149590413Y-78524107D01*
X149585556Y-78523338D01*
X149585554Y-78523337D01*
X149483855Y-78507230D01*
X149479000Y-78506461D01*
X149474145Y-78507230D01*
X149372446Y-78523337D01*
X149372444Y-78523338D01*
X149367587Y-78524107D01*
X149363203Y-78526341D01*
X149363202Y-78526341D01*
X149315684Y-78550553D01*
X149267080Y-78575318D01*
X149187318Y-78655080D01*
X149136107Y-78755587D01*
X149118461Y-78867000D01*
X146156539Y-78867000D01*
X146138893Y-78755587D01*
X146087682Y-78655080D01*
X146007920Y-78575318D01*
X145959316Y-78550553D01*
X145911798Y-78526341D01*
X145911797Y-78526341D01*
X145907413Y-78524107D01*
X145902556Y-78523338D01*
X145902554Y-78523337D01*
X145800855Y-78507230D01*
X145796000Y-78506461D01*
X145791145Y-78507230D01*
X145689446Y-78523337D01*
X145689444Y-78523338D01*
X145684587Y-78524107D01*
X145680203Y-78526341D01*
X145680202Y-78526341D01*
X145632684Y-78550553D01*
X145584080Y-78575318D01*
X145504318Y-78655080D01*
X145453107Y-78755587D01*
X145435461Y-78867000D01*
X122301000Y-78867000D01*
X122301000Y-78232000D01*
X155214461Y-78232000D01*
X155232107Y-78343413D01*
X155283318Y-78443920D01*
X155363080Y-78523682D01*
X155368299Y-78526341D01*
X155459202Y-78572659D01*
X155459203Y-78572659D01*
X155463587Y-78574893D01*
X155468444Y-78575662D01*
X155468446Y-78575663D01*
X155570145Y-78591770D01*
X155575000Y-78592539D01*
X155579855Y-78591770D01*
X155681554Y-78575663D01*
X155681556Y-78575662D01*
X155686413Y-78574893D01*
X155690797Y-78572659D01*
X155690798Y-78572659D01*
X155781701Y-78526341D01*
X155786920Y-78523682D01*
X155866682Y-78443920D01*
X155917893Y-78343413D01*
X155935539Y-78232000D01*
X155917893Y-78120587D01*
X155866682Y-78020080D01*
X155786920Y-77940318D01*
X155738316Y-77915553D01*
X155690798Y-77891341D01*
X155690797Y-77891341D01*
X155686413Y-77889107D01*
X155681556Y-77888338D01*
X155681554Y-77888337D01*
X155579855Y-77872230D01*
X155575000Y-77871461D01*
X155570145Y-77872230D01*
X155468446Y-77888337D01*
X155468444Y-77888338D01*
X155463587Y-77889107D01*
X155459203Y-77891341D01*
X155459202Y-77891341D01*
X155411684Y-77915553D01*
X155363080Y-77940318D01*
X155283318Y-78020080D01*
X155232107Y-78120587D01*
X155214461Y-78232000D01*
X122301000Y-78232000D01*
X122301000Y-77470000D01*
X125369461Y-77470000D01*
X125387107Y-77581413D01*
X125438318Y-77681920D01*
X125518080Y-77761682D01*
X125566684Y-77786447D01*
X125614202Y-77810659D01*
X125614203Y-77810659D01*
X125618587Y-77812893D01*
X125623444Y-77813662D01*
X125623446Y-77813663D01*
X125725145Y-77829770D01*
X125730000Y-77830539D01*
X125734855Y-77829770D01*
X125836554Y-77813663D01*
X125836556Y-77813662D01*
X125841413Y-77812893D01*
X125845797Y-77810659D01*
X125845798Y-77810659D01*
X125893316Y-77786447D01*
X125941920Y-77761682D01*
X126021682Y-77681920D01*
X126064951Y-77597000D01*
X147594461Y-77597000D01*
X147595230Y-77601855D01*
X147608462Y-77685398D01*
X147612107Y-77708413D01*
X147663318Y-77808920D01*
X147743080Y-77888682D01*
X147748299Y-77891341D01*
X147839202Y-77937659D01*
X147839203Y-77937659D01*
X147843587Y-77939893D01*
X147848444Y-77940662D01*
X147848446Y-77940663D01*
X147950145Y-77956770D01*
X147955000Y-77957539D01*
X147959855Y-77956770D01*
X148061554Y-77940663D01*
X148061556Y-77940662D01*
X148066413Y-77939893D01*
X148070797Y-77937659D01*
X148070798Y-77937659D01*
X148161701Y-77891341D01*
X148166920Y-77888682D01*
X148246682Y-77808920D01*
X148297893Y-77708413D01*
X148301539Y-77685398D01*
X148314770Y-77601855D01*
X148315539Y-77597000D01*
X148297893Y-77485587D01*
X148246682Y-77385080D01*
X148166920Y-77305318D01*
X148082813Y-77262463D01*
X148070798Y-77256341D01*
X148070797Y-77256341D01*
X148066413Y-77254107D01*
X148061556Y-77253338D01*
X148061554Y-77253337D01*
X147959855Y-77237230D01*
X147955000Y-77236461D01*
X147950145Y-77237230D01*
X147848446Y-77253337D01*
X147848444Y-77253338D01*
X147843587Y-77254107D01*
X147839203Y-77256341D01*
X147839202Y-77256341D01*
X147827187Y-77262463D01*
X147743080Y-77305318D01*
X147663318Y-77385080D01*
X147612107Y-77485587D01*
X147594461Y-77597000D01*
X126064951Y-77597000D01*
X126072893Y-77581413D01*
X126090539Y-77470000D01*
X126088118Y-77454716D01*
X126073663Y-77363446D01*
X126073662Y-77363444D01*
X126072893Y-77358587D01*
X126021682Y-77258080D01*
X125941920Y-77178318D01*
X125893316Y-77153553D01*
X125845798Y-77129341D01*
X125845797Y-77129341D01*
X125841413Y-77127107D01*
X125836556Y-77126338D01*
X125836554Y-77126337D01*
X125734855Y-77110230D01*
X125730000Y-77109461D01*
X125725145Y-77110230D01*
X125623446Y-77126337D01*
X125623444Y-77126338D01*
X125618587Y-77127107D01*
X125614203Y-77129341D01*
X125614202Y-77129341D01*
X125566684Y-77153553D01*
X125518080Y-77178318D01*
X125438318Y-77258080D01*
X125387107Y-77358587D01*
X125386338Y-77363444D01*
X125386337Y-77363446D01*
X125371882Y-77454716D01*
X125369461Y-77470000D01*
X122301000Y-77470000D01*
X122301000Y-76327000D01*
X128798461Y-76327000D01*
X128816107Y-76438413D01*
X128867318Y-76538920D01*
X128947080Y-76618682D01*
X128995684Y-76643447D01*
X129043202Y-76667659D01*
X129043203Y-76667659D01*
X129047587Y-76669893D01*
X129052444Y-76670662D01*
X129052446Y-76670663D01*
X129154145Y-76686770D01*
X129159000Y-76687539D01*
X129163855Y-76686770D01*
X129265554Y-76670663D01*
X129265556Y-76670662D01*
X129270413Y-76669893D01*
X129274797Y-76667659D01*
X129274798Y-76667659D01*
X129322316Y-76643447D01*
X129370920Y-76618682D01*
X129450682Y-76538920D01*
X129501893Y-76438413D01*
X129519539Y-76327000D01*
X129501893Y-76215587D01*
X129450682Y-76115080D01*
X129370920Y-76035318D01*
X129322316Y-76010553D01*
X129274798Y-75986341D01*
X129274797Y-75986341D01*
X129270413Y-75984107D01*
X129265556Y-75983338D01*
X129265554Y-75983337D01*
X129163855Y-75967230D01*
X129159000Y-75966461D01*
X129154145Y-75967230D01*
X129052446Y-75983337D01*
X129052444Y-75983338D01*
X129047587Y-75984107D01*
X129043203Y-75986341D01*
X129043202Y-75986341D01*
X128995684Y-76010553D01*
X128947080Y-76035318D01*
X128867318Y-76115080D01*
X128816107Y-76215587D01*
X128798461Y-76327000D01*
X122301000Y-76327000D01*
X122301000Y-75438000D01*
X128798461Y-75438000D01*
X128816107Y-75549413D01*
X128867318Y-75649920D01*
X128947080Y-75729682D01*
X128995684Y-75754447D01*
X129043202Y-75778659D01*
X129043203Y-75778659D01*
X129047587Y-75780893D01*
X129052444Y-75781662D01*
X129052446Y-75781663D01*
X129154145Y-75797770D01*
X129159000Y-75798539D01*
X129163855Y-75797770D01*
X129265554Y-75781663D01*
X129265556Y-75781662D01*
X129270413Y-75780893D01*
X129274797Y-75778659D01*
X129274798Y-75778659D01*
X129322316Y-75754447D01*
X129370920Y-75729682D01*
X129450682Y-75649920D01*
X129501893Y-75549413D01*
X129519539Y-75438000D01*
X129501893Y-75326587D01*
X129450682Y-75226080D01*
X129370920Y-75146318D01*
X129322316Y-75121553D01*
X129274798Y-75097341D01*
X129274797Y-75097341D01*
X129270413Y-75095107D01*
X129265556Y-75094338D01*
X129265554Y-75094337D01*
X129163855Y-75078230D01*
X129159000Y-75077461D01*
X129154145Y-75078230D01*
X129052446Y-75094337D01*
X129052444Y-75094338D01*
X129047587Y-75095107D01*
X129043203Y-75097341D01*
X129043202Y-75097341D01*
X128995684Y-75121553D01*
X128947080Y-75146318D01*
X128867318Y-75226080D01*
X128816107Y-75326587D01*
X128798461Y-75438000D01*
X122301000Y-75438000D01*
X122301000Y-73188324D01*
X123618790Y-73188324D01*
X123624983Y-73451080D01*
X123625398Y-73453419D01*
X123669083Y-73699915D01*
X123670848Y-73709876D01*
X123671609Y-73712117D01*
X123671610Y-73712122D01*
X123728820Y-73880655D01*
X123755332Y-73958757D01*
X123756425Y-73960861D01*
X123819010Y-74081341D01*
X123876490Y-74191995D01*
X124031533Y-74404223D01*
X124124511Y-74497690D01*
X124215219Y-74588875D01*
X124215225Y-74588880D01*
X124216894Y-74590558D01*
X124218802Y-74591967D01*
X124218804Y-74591969D01*
X124426392Y-74745296D01*
X124426396Y-74745298D01*
X124428307Y-74746710D01*
X124430411Y-74747817D01*
X124658814Y-74867986D01*
X124658822Y-74867989D01*
X124660908Y-74869087D01*
X124663144Y-74869859D01*
X124663146Y-74869860D01*
X124778100Y-74909554D01*
X124909343Y-74954873D01*
X124911674Y-74955299D01*
X124911675Y-74955299D01*
X125165917Y-75001732D01*
X125165924Y-75001733D01*
X125167896Y-75002093D01*
X125251989Y-75006500D01*
X125415836Y-75006500D01*
X125438500Y-75004776D01*
X125608707Y-74991829D01*
X125608708Y-74991829D01*
X125611072Y-74991649D01*
X125613379Y-74991114D01*
X125613381Y-74991114D01*
X125864809Y-74932836D01*
X125867113Y-74932302D01*
X126111232Y-74834908D01*
X126113276Y-74833707D01*
X126113283Y-74833703D01*
X126165510Y-74803000D01*
X151658461Y-74803000D01*
X151659230Y-74807855D01*
X151669051Y-74869860D01*
X151676107Y-74914413D01*
X151678341Y-74918797D01*
X151678341Y-74918798D01*
X151702553Y-74966316D01*
X151727318Y-75014920D01*
X151807080Y-75094682D01*
X151812299Y-75097341D01*
X151903202Y-75143659D01*
X151903203Y-75143659D01*
X151907587Y-75145893D01*
X151912444Y-75146662D01*
X151912446Y-75146663D01*
X152014145Y-75162770D01*
X152019000Y-75163539D01*
X152023855Y-75162770D01*
X152125554Y-75146663D01*
X152125556Y-75146662D01*
X152130413Y-75145893D01*
X152134797Y-75143659D01*
X152134798Y-75143659D01*
X152225701Y-75097341D01*
X152230920Y-75094682D01*
X152310682Y-75014920D01*
X152335447Y-74966316D01*
X152359659Y-74918798D01*
X152359659Y-74918797D01*
X152361893Y-74914413D01*
X152368950Y-74869860D01*
X152378770Y-74807855D01*
X152379539Y-74803000D01*
X152376177Y-74781770D01*
X152362663Y-74696446D01*
X152362662Y-74696444D01*
X152361893Y-74691587D01*
X152310682Y-74591080D01*
X152230920Y-74511318D01*
X152182316Y-74486553D01*
X152134798Y-74462341D01*
X152134797Y-74462341D01*
X152130413Y-74460107D01*
X152125556Y-74459338D01*
X152125554Y-74459337D01*
X152023855Y-74443230D01*
X152019000Y-74442461D01*
X152014145Y-74443230D01*
X151912446Y-74459337D01*
X151912444Y-74459338D01*
X151907587Y-74460107D01*
X151903203Y-74462341D01*
X151903202Y-74462341D01*
X151855684Y-74486553D01*
X151807080Y-74511318D01*
X151727318Y-74591080D01*
X151676107Y-74691587D01*
X151675338Y-74696444D01*
X151675337Y-74696446D01*
X151661823Y-74781770D01*
X151658461Y-74803000D01*
X126165510Y-74803000D01*
X126335758Y-74702916D01*
X126335761Y-74702914D01*
X126337809Y-74701710D01*
X126355630Y-74687202D01*
X126539791Y-74537271D01*
X126539792Y-74537270D01*
X126541632Y-74535772D01*
X126644614Y-74422000D01*
X128798461Y-74422000D01*
X128799230Y-74426855D01*
X128812608Y-74511318D01*
X128816107Y-74533413D01*
X128867318Y-74633920D01*
X128947080Y-74713682D01*
X128995684Y-74738447D01*
X129043202Y-74762659D01*
X129043203Y-74762659D01*
X129047587Y-74764893D01*
X129052444Y-74765662D01*
X129052446Y-74765663D01*
X129154145Y-74781770D01*
X129159000Y-74782539D01*
X129163855Y-74781770D01*
X129265554Y-74765663D01*
X129265556Y-74765662D01*
X129270413Y-74764893D01*
X129274797Y-74762659D01*
X129274798Y-74762659D01*
X129322316Y-74738447D01*
X129370920Y-74713682D01*
X129450682Y-74633920D01*
X129501893Y-74533413D01*
X129505393Y-74511318D01*
X129518770Y-74426855D01*
X129519539Y-74422000D01*
X141059461Y-74422000D01*
X141060230Y-74426855D01*
X141073608Y-74511318D01*
X141077107Y-74533413D01*
X141128318Y-74633920D01*
X141208080Y-74713682D01*
X141256684Y-74738447D01*
X141304202Y-74762659D01*
X141304203Y-74762659D01*
X141308587Y-74764893D01*
X141313444Y-74765662D01*
X141313446Y-74765663D01*
X141415145Y-74781770D01*
X141420000Y-74782539D01*
X141424855Y-74781770D01*
X141526554Y-74765663D01*
X141526556Y-74765662D01*
X141531413Y-74764893D01*
X141535797Y-74762659D01*
X141535798Y-74762659D01*
X141583316Y-74738447D01*
X141631920Y-74713682D01*
X141711682Y-74633920D01*
X141762893Y-74533413D01*
X141766393Y-74511318D01*
X141779770Y-74426855D01*
X141780539Y-74422000D01*
X141762893Y-74310587D01*
X141711682Y-74210080D01*
X141631920Y-74130318D01*
X141583316Y-74105553D01*
X141535798Y-74081341D01*
X141535797Y-74081341D01*
X141531413Y-74079107D01*
X141526556Y-74078338D01*
X141526554Y-74078337D01*
X141424855Y-74062230D01*
X141420000Y-74061461D01*
X141415145Y-74062230D01*
X141313446Y-74078337D01*
X141313444Y-74078338D01*
X141308587Y-74079107D01*
X141304203Y-74081341D01*
X141304202Y-74081341D01*
X141256684Y-74105553D01*
X141208080Y-74130318D01*
X141128318Y-74210080D01*
X141077107Y-74310587D01*
X141059461Y-74422000D01*
X129519539Y-74422000D01*
X129501893Y-74310587D01*
X129450682Y-74210080D01*
X129370920Y-74130318D01*
X129322316Y-74105553D01*
X129274798Y-74081341D01*
X129274797Y-74081341D01*
X129270413Y-74079107D01*
X129265556Y-74078338D01*
X129265554Y-74078337D01*
X129163855Y-74062230D01*
X129159000Y-74061461D01*
X129154145Y-74062230D01*
X129052446Y-74078337D01*
X129052444Y-74078338D01*
X129047587Y-74079107D01*
X129043203Y-74081341D01*
X129043202Y-74081341D01*
X128995684Y-74105553D01*
X128947080Y-74130318D01*
X128867318Y-74210080D01*
X128816107Y-74310587D01*
X128798461Y-74422000D01*
X126644614Y-74422000D01*
X126718010Y-74340913D01*
X126734835Y-74315446D01*
X126861576Y-74123597D01*
X126862884Y-74121617D01*
X126972920Y-73882930D01*
X126973573Y-73880661D01*
X126973575Y-73880655D01*
X127044931Y-73632622D01*
X127045586Y-73630346D01*
X127046741Y-73621398D01*
X127074525Y-73406000D01*
X128798461Y-73406000D01*
X128816107Y-73517413D01*
X128867318Y-73617920D01*
X128947080Y-73697682D01*
X128971012Y-73709876D01*
X129043202Y-73746659D01*
X129043203Y-73746659D01*
X129047587Y-73748893D01*
X129052444Y-73749662D01*
X129052446Y-73749663D01*
X129154145Y-73765770D01*
X129159000Y-73766539D01*
X129163855Y-73765770D01*
X129265554Y-73749663D01*
X129265556Y-73749662D01*
X129270413Y-73748893D01*
X129274797Y-73746659D01*
X129274798Y-73746659D01*
X129346988Y-73709876D01*
X129370920Y-73697682D01*
X129450682Y-73617920D01*
X129501893Y-73517413D01*
X129519539Y-73406000D01*
X129501893Y-73294587D01*
X129450682Y-73194080D01*
X129444926Y-73188324D01*
X167560790Y-73188324D01*
X167566983Y-73451080D01*
X167567398Y-73453419D01*
X167611083Y-73699915D01*
X167612848Y-73709876D01*
X167613609Y-73712117D01*
X167613610Y-73712122D01*
X167670820Y-73880655D01*
X167697332Y-73958757D01*
X167698425Y-73960861D01*
X167761010Y-74081341D01*
X167818490Y-74191995D01*
X167973533Y-74404223D01*
X168066511Y-74497690D01*
X168157219Y-74588875D01*
X168157225Y-74588880D01*
X168158894Y-74590558D01*
X168160802Y-74591967D01*
X168160804Y-74591969D01*
X168368392Y-74745296D01*
X168368396Y-74745298D01*
X168370307Y-74746710D01*
X168372411Y-74747817D01*
X168600814Y-74867986D01*
X168600822Y-74867989D01*
X168602908Y-74869087D01*
X168605144Y-74869859D01*
X168605146Y-74869860D01*
X168720100Y-74909554D01*
X168851343Y-74954873D01*
X168853674Y-74955299D01*
X168853675Y-74955299D01*
X169107917Y-75001732D01*
X169107924Y-75001733D01*
X169109896Y-75002093D01*
X169193989Y-75006500D01*
X169357836Y-75006500D01*
X169380500Y-75004776D01*
X169550707Y-74991829D01*
X169550708Y-74991829D01*
X169553072Y-74991649D01*
X169555379Y-74991114D01*
X169555381Y-74991114D01*
X169806809Y-74932836D01*
X169809113Y-74932302D01*
X170053232Y-74834908D01*
X170055276Y-74833707D01*
X170055283Y-74833703D01*
X170277758Y-74702916D01*
X170277761Y-74702914D01*
X170279809Y-74701710D01*
X170297630Y-74687202D01*
X170481791Y-74537271D01*
X170481792Y-74537270D01*
X170483632Y-74535772D01*
X170660010Y-74340913D01*
X170676835Y-74315446D01*
X170803576Y-74123597D01*
X170804884Y-74121617D01*
X170914920Y-73882930D01*
X170915573Y-73880661D01*
X170915575Y-73880655D01*
X170986931Y-73632622D01*
X170987586Y-73630346D01*
X170988741Y-73621398D01*
X171020906Y-73372032D01*
X171021210Y-73369676D01*
X171015017Y-73106920D01*
X170969152Y-72848124D01*
X170884668Y-72599243D01*
X170799040Y-72434403D01*
X170764607Y-72368116D01*
X170764604Y-72368112D01*
X170763510Y-72366005D01*
X170608467Y-72153777D01*
X170484801Y-72029461D01*
X170424781Y-71969125D01*
X170424775Y-71969120D01*
X170423106Y-71967442D01*
X170278684Y-71860770D01*
X170213608Y-71812704D01*
X170213604Y-71812702D01*
X170211693Y-71811290D01*
X170176325Y-71792682D01*
X169981186Y-71690014D01*
X169981178Y-71690011D01*
X169979092Y-71688913D01*
X169976856Y-71688141D01*
X169976854Y-71688140D01*
X169757549Y-71612413D01*
X169730657Y-71603127D01*
X169728326Y-71602701D01*
X169728325Y-71602701D01*
X169474083Y-71556268D01*
X169474076Y-71556267D01*
X169472104Y-71555907D01*
X169388011Y-71551500D01*
X169224164Y-71551500D01*
X169222981Y-71551590D01*
X169031293Y-71566171D01*
X169031292Y-71566171D01*
X169028928Y-71566351D01*
X169026621Y-71566886D01*
X169026619Y-71566886D01*
X168815474Y-71615827D01*
X168772887Y-71625698D01*
X168528768Y-71723092D01*
X168526724Y-71724293D01*
X168526717Y-71724297D01*
X168321969Y-71844663D01*
X168302191Y-71856290D01*
X168300349Y-71857790D01*
X168300347Y-71857791D01*
X168167395Y-71966031D01*
X168098368Y-72022228D01*
X167921990Y-72217087D01*
X167777116Y-72436383D01*
X167667080Y-72675070D01*
X167666427Y-72677339D01*
X167666425Y-72677345D01*
X167645368Y-72750539D01*
X167594414Y-72927654D01*
X167594111Y-72930001D01*
X167594110Y-72930007D01*
X167571592Y-73104581D01*
X167560790Y-73188324D01*
X129444926Y-73188324D01*
X129370920Y-73114318D01*
X129322316Y-73089553D01*
X129274798Y-73065341D01*
X129274797Y-73065341D01*
X129270413Y-73063107D01*
X129265556Y-73062338D01*
X129265554Y-73062337D01*
X129163855Y-73046230D01*
X129159000Y-73045461D01*
X129154145Y-73046230D01*
X129052446Y-73062337D01*
X129052444Y-73062338D01*
X129047587Y-73063107D01*
X129043203Y-73065341D01*
X129043202Y-73065341D01*
X128995684Y-73089553D01*
X128947080Y-73114318D01*
X128867318Y-73194080D01*
X128816107Y-73294587D01*
X128798461Y-73406000D01*
X127074525Y-73406000D01*
X127078906Y-73372032D01*
X127079210Y-73369676D01*
X127073017Y-73106920D01*
X127027152Y-72848124D01*
X126942668Y-72599243D01*
X126857040Y-72434403D01*
X126833975Y-72390000D01*
X128798461Y-72390000D01*
X128816107Y-72501413D01*
X128867318Y-72601920D01*
X128947080Y-72681682D01*
X128995684Y-72706447D01*
X129043202Y-72730659D01*
X129043203Y-72730659D01*
X129047587Y-72732893D01*
X129052444Y-72733662D01*
X129052446Y-72733663D01*
X129154145Y-72749770D01*
X129159000Y-72750539D01*
X129163855Y-72749770D01*
X129265554Y-72733663D01*
X129265556Y-72733662D01*
X129270413Y-72732893D01*
X129274797Y-72730659D01*
X129274798Y-72730659D01*
X129322316Y-72706447D01*
X129370920Y-72681682D01*
X129450682Y-72601920D01*
X129501893Y-72501413D01*
X129519539Y-72390000D01*
X129941461Y-72390000D01*
X129959107Y-72501413D01*
X130010318Y-72601920D01*
X130090080Y-72681682D01*
X130138684Y-72706447D01*
X130186202Y-72730659D01*
X130186203Y-72730659D01*
X130190587Y-72732893D01*
X130195444Y-72733662D01*
X130195446Y-72733663D01*
X130297145Y-72749770D01*
X130302000Y-72750539D01*
X130306855Y-72749770D01*
X130408554Y-72733663D01*
X130408556Y-72733662D01*
X130413413Y-72732893D01*
X130417797Y-72730659D01*
X130417798Y-72730659D01*
X130465316Y-72706447D01*
X130513920Y-72681682D01*
X130593682Y-72601920D01*
X130644893Y-72501413D01*
X130662539Y-72390000D01*
X135275461Y-72390000D01*
X135293107Y-72501413D01*
X135344318Y-72601920D01*
X135424080Y-72681682D01*
X135472684Y-72706447D01*
X135520202Y-72730659D01*
X135520203Y-72730659D01*
X135524587Y-72732893D01*
X135529444Y-72733662D01*
X135529446Y-72733663D01*
X135631145Y-72749770D01*
X135636000Y-72750539D01*
X135640855Y-72749770D01*
X135742554Y-72733663D01*
X135742556Y-72733662D01*
X135747413Y-72732893D01*
X135751797Y-72730659D01*
X135751798Y-72730659D01*
X135799316Y-72706447D01*
X135847920Y-72681682D01*
X135927682Y-72601920D01*
X135978893Y-72501413D01*
X135996539Y-72390000D01*
X136291461Y-72390000D01*
X136309107Y-72501413D01*
X136360318Y-72601920D01*
X136440080Y-72681682D01*
X136488684Y-72706447D01*
X136536202Y-72730659D01*
X136536203Y-72730659D01*
X136540587Y-72732893D01*
X136545444Y-72733662D01*
X136545446Y-72733663D01*
X136647145Y-72749770D01*
X136652000Y-72750539D01*
X136656855Y-72749770D01*
X136758554Y-72733663D01*
X136758556Y-72733662D01*
X136763413Y-72732893D01*
X136767797Y-72730659D01*
X136767798Y-72730659D01*
X136815316Y-72706447D01*
X136863920Y-72681682D01*
X136943682Y-72601920D01*
X136994893Y-72501413D01*
X137012539Y-72390000D01*
X137008739Y-72366005D01*
X136995663Y-72283446D01*
X136995662Y-72283444D01*
X136994893Y-72278587D01*
X136943682Y-72178080D01*
X136863920Y-72098318D01*
X136815316Y-72073553D01*
X136767798Y-72049341D01*
X136767797Y-72049341D01*
X136763413Y-72047107D01*
X136758556Y-72046338D01*
X136758554Y-72046337D01*
X136656855Y-72030230D01*
X136652000Y-72029461D01*
X136647145Y-72030230D01*
X136545446Y-72046337D01*
X136545444Y-72046338D01*
X136540587Y-72047107D01*
X136536203Y-72049341D01*
X136536202Y-72049341D01*
X136488684Y-72073553D01*
X136440080Y-72098318D01*
X136360318Y-72178080D01*
X136309107Y-72278587D01*
X136308338Y-72283444D01*
X136308337Y-72283446D01*
X136295261Y-72366005D01*
X136291461Y-72390000D01*
X135996539Y-72390000D01*
X135992739Y-72366005D01*
X135979663Y-72283446D01*
X135979662Y-72283444D01*
X135978893Y-72278587D01*
X135927682Y-72178080D01*
X135847920Y-72098318D01*
X135799316Y-72073553D01*
X135751798Y-72049341D01*
X135751797Y-72049341D01*
X135747413Y-72047107D01*
X135742556Y-72046338D01*
X135742554Y-72046337D01*
X135640855Y-72030230D01*
X135636000Y-72029461D01*
X135631145Y-72030230D01*
X135529446Y-72046337D01*
X135529444Y-72046338D01*
X135524587Y-72047107D01*
X135520203Y-72049341D01*
X135520202Y-72049341D01*
X135472684Y-72073553D01*
X135424080Y-72098318D01*
X135344318Y-72178080D01*
X135293107Y-72278587D01*
X135292338Y-72283444D01*
X135292337Y-72283446D01*
X135279261Y-72366005D01*
X135275461Y-72390000D01*
X130662539Y-72390000D01*
X130658739Y-72366005D01*
X130645663Y-72283446D01*
X130645662Y-72283444D01*
X130644893Y-72278587D01*
X130593682Y-72178080D01*
X130513920Y-72098318D01*
X130465316Y-72073553D01*
X130417798Y-72049341D01*
X130417797Y-72049341D01*
X130413413Y-72047107D01*
X130408556Y-72046338D01*
X130408554Y-72046337D01*
X130306855Y-72030230D01*
X130302000Y-72029461D01*
X130297145Y-72030230D01*
X130195446Y-72046337D01*
X130195444Y-72046338D01*
X130190587Y-72047107D01*
X130186203Y-72049341D01*
X130186202Y-72049341D01*
X130138684Y-72073553D01*
X130090080Y-72098318D01*
X130010318Y-72178080D01*
X129959107Y-72278587D01*
X129958338Y-72283444D01*
X129958337Y-72283446D01*
X129945261Y-72366005D01*
X129941461Y-72390000D01*
X129519539Y-72390000D01*
X129515739Y-72366005D01*
X129502663Y-72283446D01*
X129502662Y-72283444D01*
X129501893Y-72278587D01*
X129450682Y-72178080D01*
X129370920Y-72098318D01*
X129322316Y-72073553D01*
X129274798Y-72049341D01*
X129274797Y-72049341D01*
X129270413Y-72047107D01*
X129265556Y-72046338D01*
X129265554Y-72046337D01*
X129163855Y-72030230D01*
X129159000Y-72029461D01*
X129154145Y-72030230D01*
X129052446Y-72046337D01*
X129052444Y-72046338D01*
X129047587Y-72047107D01*
X129043203Y-72049341D01*
X129043202Y-72049341D01*
X128995684Y-72073553D01*
X128947080Y-72098318D01*
X128867318Y-72178080D01*
X128816107Y-72278587D01*
X128815338Y-72283444D01*
X128815337Y-72283446D01*
X128802261Y-72366005D01*
X128798461Y-72390000D01*
X126833975Y-72390000D01*
X126822607Y-72368116D01*
X126822604Y-72368112D01*
X126821510Y-72366005D01*
X126666467Y-72153777D01*
X126542801Y-72029461D01*
X126482781Y-71969125D01*
X126482775Y-71969120D01*
X126481106Y-71967442D01*
X126336684Y-71860770D01*
X126271608Y-71812704D01*
X126271604Y-71812702D01*
X126269693Y-71811290D01*
X126234325Y-71792682D01*
X126039186Y-71690014D01*
X126039178Y-71690011D01*
X126037092Y-71688913D01*
X126034856Y-71688141D01*
X126034854Y-71688140D01*
X125815549Y-71612413D01*
X125788657Y-71603127D01*
X125786326Y-71602701D01*
X125786325Y-71602701D01*
X125532083Y-71556268D01*
X125532076Y-71556267D01*
X125530104Y-71555907D01*
X125446011Y-71551500D01*
X125282164Y-71551500D01*
X125280981Y-71551590D01*
X125089293Y-71566171D01*
X125089292Y-71566171D01*
X125086928Y-71566351D01*
X125084621Y-71566886D01*
X125084619Y-71566886D01*
X124873474Y-71615827D01*
X124830887Y-71625698D01*
X124586768Y-71723092D01*
X124584724Y-71724293D01*
X124584717Y-71724297D01*
X124379969Y-71844663D01*
X124360191Y-71856290D01*
X124358349Y-71857790D01*
X124358347Y-71857791D01*
X124225395Y-71966031D01*
X124156368Y-72022228D01*
X123979990Y-72217087D01*
X123835116Y-72436383D01*
X123725080Y-72675070D01*
X123724427Y-72677339D01*
X123724425Y-72677345D01*
X123703368Y-72750539D01*
X123652414Y-72927654D01*
X123652111Y-72930001D01*
X123652110Y-72930007D01*
X123629592Y-73104581D01*
X123618790Y-73188324D01*
X122301000Y-73188324D01*
X122301000Y-71501000D01*
X128798461Y-71501000D01*
X128799230Y-71505855D01*
X128814759Y-71603901D01*
X128816107Y-71612413D01*
X128867318Y-71712920D01*
X128947080Y-71792682D01*
X128981428Y-71810183D01*
X129043202Y-71841659D01*
X129043203Y-71841659D01*
X129047587Y-71843893D01*
X129052444Y-71844662D01*
X129052446Y-71844663D01*
X129154145Y-71860770D01*
X129159000Y-71861539D01*
X129163855Y-71860770D01*
X129265554Y-71844663D01*
X129265556Y-71844662D01*
X129270413Y-71843893D01*
X129274797Y-71841659D01*
X129274798Y-71841659D01*
X129336572Y-71810183D01*
X129370920Y-71792682D01*
X129450682Y-71712920D01*
X129501893Y-71612413D01*
X129503242Y-71603901D01*
X129518770Y-71505855D01*
X129519539Y-71501000D01*
X129941461Y-71501000D01*
X129942230Y-71505855D01*
X129957759Y-71603901D01*
X129959107Y-71612413D01*
X130010318Y-71712920D01*
X130090080Y-71792682D01*
X130124428Y-71810183D01*
X130186202Y-71841659D01*
X130186203Y-71841659D01*
X130190587Y-71843893D01*
X130195444Y-71844662D01*
X130195446Y-71844663D01*
X130297145Y-71860770D01*
X130302000Y-71861539D01*
X130306855Y-71860770D01*
X130408554Y-71844663D01*
X130408556Y-71844662D01*
X130413413Y-71843893D01*
X130417797Y-71841659D01*
X130417798Y-71841659D01*
X130479572Y-71810183D01*
X130513920Y-71792682D01*
X130593682Y-71712920D01*
X130644893Y-71612413D01*
X130646242Y-71603901D01*
X130661770Y-71505855D01*
X130662539Y-71501000D01*
X135275461Y-71501000D01*
X135276230Y-71505855D01*
X135291759Y-71603901D01*
X135293107Y-71612413D01*
X135344318Y-71712920D01*
X135424080Y-71792682D01*
X135458428Y-71810183D01*
X135520202Y-71841659D01*
X135520203Y-71841659D01*
X135524587Y-71843893D01*
X135529444Y-71844662D01*
X135529446Y-71844663D01*
X135631145Y-71860770D01*
X135636000Y-71861539D01*
X135640855Y-71860770D01*
X135742554Y-71844663D01*
X135742556Y-71844662D01*
X135747413Y-71843893D01*
X135751797Y-71841659D01*
X135751798Y-71841659D01*
X135813572Y-71810183D01*
X135847920Y-71792682D01*
X135927682Y-71712920D01*
X135978893Y-71612413D01*
X135980242Y-71603901D01*
X135995770Y-71505855D01*
X135996539Y-71501000D01*
X136291461Y-71501000D01*
X136292230Y-71505855D01*
X136307759Y-71603901D01*
X136309107Y-71612413D01*
X136360318Y-71712920D01*
X136440080Y-71792682D01*
X136474428Y-71810183D01*
X136536202Y-71841659D01*
X136536203Y-71841659D01*
X136540587Y-71843893D01*
X136545444Y-71844662D01*
X136545446Y-71844663D01*
X136647145Y-71860770D01*
X136652000Y-71861539D01*
X136656855Y-71860770D01*
X136758554Y-71844663D01*
X136758556Y-71844662D01*
X136763413Y-71843893D01*
X136767797Y-71841659D01*
X136767798Y-71841659D01*
X136829572Y-71810183D01*
X136863920Y-71792682D01*
X136943682Y-71712920D01*
X136994893Y-71612413D01*
X136996242Y-71603901D01*
X137011770Y-71505855D01*
X137012539Y-71501000D01*
X136994893Y-71389587D01*
X136943682Y-71289080D01*
X136863920Y-71209318D01*
X136815316Y-71184553D01*
X136767798Y-71160341D01*
X136767797Y-71160341D01*
X136763413Y-71158107D01*
X136758556Y-71157338D01*
X136758554Y-71157337D01*
X136656855Y-71141230D01*
X136652000Y-71140461D01*
X136647145Y-71141230D01*
X136545446Y-71157337D01*
X136545444Y-71157338D01*
X136540587Y-71158107D01*
X136536203Y-71160341D01*
X136536202Y-71160341D01*
X136488684Y-71184553D01*
X136440080Y-71209318D01*
X136360318Y-71289080D01*
X136309107Y-71389587D01*
X136291461Y-71501000D01*
X135996539Y-71501000D01*
X135978893Y-71389587D01*
X135927682Y-71289080D01*
X135847920Y-71209318D01*
X135799316Y-71184553D01*
X135751798Y-71160341D01*
X135751797Y-71160341D01*
X135747413Y-71158107D01*
X135742556Y-71157338D01*
X135742554Y-71157337D01*
X135640855Y-71141230D01*
X135636000Y-71140461D01*
X135631145Y-71141230D01*
X135529446Y-71157337D01*
X135529444Y-71157338D01*
X135524587Y-71158107D01*
X135520203Y-71160341D01*
X135520202Y-71160341D01*
X135472684Y-71184553D01*
X135424080Y-71209318D01*
X135344318Y-71289080D01*
X135293107Y-71389587D01*
X135275461Y-71501000D01*
X130662539Y-71501000D01*
X130644893Y-71389587D01*
X130593682Y-71289080D01*
X130513920Y-71209318D01*
X130465316Y-71184553D01*
X130417798Y-71160341D01*
X130417797Y-71160341D01*
X130413413Y-71158107D01*
X130408556Y-71157338D01*
X130408554Y-71157337D01*
X130306855Y-71141230D01*
X130302000Y-71140461D01*
X130297145Y-71141230D01*
X130195446Y-71157337D01*
X130195444Y-71157338D01*
X130190587Y-71158107D01*
X130186203Y-71160341D01*
X130186202Y-71160341D01*
X130138684Y-71184553D01*
X130090080Y-71209318D01*
X130010318Y-71289080D01*
X129959107Y-71389587D01*
X129941461Y-71501000D01*
X129519539Y-71501000D01*
X129501893Y-71389587D01*
X129450682Y-71289080D01*
X129370920Y-71209318D01*
X129322316Y-71184553D01*
X129274798Y-71160341D01*
X129274797Y-71160341D01*
X129270413Y-71158107D01*
X129265556Y-71157338D01*
X129265554Y-71157337D01*
X129163855Y-71141230D01*
X129159000Y-71140461D01*
X129154145Y-71141230D01*
X129052446Y-71157337D01*
X129052444Y-71157338D01*
X129047587Y-71158107D01*
X129043203Y-71160341D01*
X129043202Y-71160341D01*
X128995684Y-71184553D01*
X128947080Y-71209318D01*
X128867318Y-71289080D01*
X128816107Y-71389587D01*
X128798461Y-71501000D01*
X122301000Y-71501000D01*
X122301000Y-70293500D01*
X122319306Y-70249306D01*
X122363500Y-70231000D01*
X172276500Y-70231000D01*
X172320694Y-70249306D01*
G37*
%TD.AperFunction*%
%TD*%
M02*
