%FSLAX45Y45*%
G04 Gerber Fmt 4.5, Leading zero omitted, Abs format (unit mm)*
G04 Created by KiCad (PCBNEW 6.0.0) date 2022-01-02 17:59:27*
%MOMM*%
%LPD*%
G01*
G04 APERTURE LIST*
%TA.AperFunction,Profile*%
%ADD10C,0.100000*%
%TD*%
%ADD11C,0.200000*%
%ADD12C,0.025400*%
%ADD13C,0.033000*%
%ADD14C,0.060000*%
%ADD15C,0.085000*%
G04 APERTURE END LIST*
D10*
X17272000Y-6985000D02*
X12192000Y-6985000D01*
X18482000Y-10875000D02*
X18482000Y-10925000D01*
X19272000Y-9905000D02*
G75*
G03*
X19192000Y-9825000I-80000J0D01*
G01*
X17272000Y-12065000D02*
X17272000Y-11005000D01*
X17352000Y-10925000D02*
X18292000Y-10925000D01*
X19192000Y-10795000D02*
G75*
G03*
X19272000Y-10715000I0J80000D01*
G01*
X19272000Y-10715000D02*
X19272000Y-9905000D01*
X18482000Y-10875000D02*
G75*
G03*
X18462000Y-10855000I-20000J0D01*
G01*
X12192000Y-6985000D02*
X12192000Y-12065000D01*
X18632000Y-10925000D02*
X18762000Y-10795000D01*
X19192000Y-9825000D02*
X17352000Y-9825000D01*
X17272000Y-12065000D02*
X12192000Y-12065000D01*
X17272000Y-9745000D02*
G75*
G03*
X17352000Y-9825000I80000J0D01*
G01*
X19192000Y-10795000D02*
X18762000Y-10795000D01*
X18482000Y-10925000D02*
X18632000Y-10925000D01*
X17352000Y-10925000D02*
G75*
G03*
X17272000Y-11005000I0J-80000D01*
G01*
X17272000Y-9715500D02*
X17272000Y-6985000D01*
X18362000Y-10855000D02*
X18462000Y-10855000D01*
X18362000Y-10855000D02*
X18292000Y-10925000D01*
X17272000Y-9745000D02*
X17272000Y-9715500D01*
D11*
D12*
X12446000Y-10680700D02*
X12471400Y-10706100D01*
X12471400Y-10680700D02*
X12446000Y-10706100D01*
X12446000Y-10807700D02*
X12471400Y-10833100D01*
X12471400Y-10807700D02*
X12446000Y-10833100D01*
X12446000Y-10934700D02*
X12471400Y-10960100D01*
X12471400Y-10934700D02*
X12446000Y-10960100D01*
X12509500Y-11061700D02*
X12534900Y-11087100D01*
X12534900Y-11061700D02*
X12509500Y-11087100D01*
X12547600Y-9994900D02*
X12573000Y-10020300D01*
X12573000Y-9994900D02*
X12547600Y-10020300D01*
X12547600Y-10172700D02*
X12573000Y-10198100D01*
X12573000Y-10172700D02*
X12547600Y-10198100D01*
X12560300Y-7734300D02*
X12585700Y-7759700D01*
X12585700Y-7734300D02*
X12560300Y-7759700D01*
X12573000Y-8382000D02*
X12598400Y-8407400D01*
X12598400Y-8382000D02*
X12573000Y-8407400D01*
X12725400Y-9067800D02*
X12750800Y-9093200D01*
X12750800Y-9067800D02*
X12725400Y-9093200D01*
X12738100Y-9334500D02*
X12763500Y-9359900D01*
X12763500Y-9334500D02*
X12738100Y-9359900D01*
X12776200Y-9067800D02*
X12801600Y-9093200D01*
X12801600Y-9067800D02*
X12776200Y-9093200D01*
X12827000Y-8940800D02*
X12852400Y-8966200D01*
X12852400Y-8940800D02*
X12827000Y-8966200D01*
X12827000Y-9067800D02*
X12852400Y-9093200D01*
X12852400Y-9067800D02*
X12827000Y-9093200D01*
X12877800Y-10033000D02*
X12903200Y-10058400D01*
X12903200Y-10033000D02*
X12877800Y-10058400D01*
X12903200Y-7137400D02*
X12928600Y-7162800D01*
X12928600Y-7137400D02*
X12903200Y-7162800D01*
X12903200Y-7226300D02*
X12928600Y-7251700D01*
X12928600Y-7226300D02*
X12903200Y-7251700D01*
X12903200Y-7327900D02*
X12928600Y-7353300D01*
X12928600Y-7327900D02*
X12903200Y-7353300D01*
X12903200Y-7429500D02*
X12928600Y-7454900D01*
X12928600Y-7429500D02*
X12903200Y-7454900D01*
X12903200Y-7531100D02*
X12928600Y-7556500D01*
X12928600Y-7531100D02*
X12903200Y-7556500D01*
X12903200Y-7620000D02*
X12928600Y-7645400D01*
X12928600Y-7620000D02*
X12903200Y-7645400D01*
X12903200Y-7759700D02*
X12928600Y-7785100D01*
X12928600Y-7759700D02*
X12903200Y-7785100D01*
X12903200Y-7848600D02*
X12928600Y-7874000D01*
X12928600Y-7848600D02*
X12903200Y-7874000D01*
X12903200Y-7937500D02*
X12928600Y-7962900D01*
X12928600Y-7937500D02*
X12903200Y-7962900D01*
X12903200Y-8026400D02*
X12928600Y-8051800D01*
X12928600Y-8026400D02*
X12903200Y-8051800D01*
X12903200Y-8115300D02*
X12928600Y-8140700D01*
X12928600Y-8115300D02*
X12903200Y-8140700D01*
X12903200Y-8204200D02*
X12928600Y-8229600D01*
X12928600Y-8204200D02*
X12903200Y-8229600D01*
X12941300Y-8826500D02*
X12966700Y-8851900D01*
X12966700Y-8826500D02*
X12941300Y-8851900D01*
X12941300Y-11226800D02*
X12966700Y-11252200D01*
X12966700Y-11226800D02*
X12941300Y-11252200D01*
X13017500Y-7137400D02*
X13042900Y-7162800D01*
X13042900Y-7137400D02*
X13017500Y-7162800D01*
X13017500Y-7226300D02*
X13042900Y-7251700D01*
X13042900Y-7226300D02*
X13017500Y-7251700D01*
X13017500Y-10464800D02*
X13042900Y-10490200D01*
X13042900Y-10464800D02*
X13017500Y-10490200D01*
X13042900Y-9563100D02*
X13068300Y-9588500D01*
X13068300Y-9563100D02*
X13042900Y-9588500D01*
X13042900Y-9880600D02*
X13068300Y-9906000D01*
X13068300Y-9880600D02*
X13042900Y-9906000D01*
X13081000Y-10160000D02*
X13106400Y-10185400D01*
X13106400Y-10160000D02*
X13081000Y-10185400D01*
X13093700Y-10464800D02*
X13119100Y-10490200D01*
X13119100Y-10464800D02*
X13093700Y-10490200D01*
X13119100Y-8737600D02*
X13144500Y-8763000D01*
X13144500Y-8737600D02*
X13119100Y-8763000D01*
X13119100Y-8813800D02*
X13144500Y-8839200D01*
X13144500Y-8813800D02*
X13119100Y-8839200D01*
X13169900Y-10071100D02*
X13195300Y-10096500D01*
X13195300Y-10071100D02*
X13169900Y-10096500D01*
X13169900Y-10160000D02*
X13195300Y-10185400D01*
X13195300Y-10160000D02*
X13169900Y-10185400D01*
X13169900Y-10248900D02*
X13195300Y-10274300D01*
X13195300Y-10248900D02*
X13169900Y-10274300D01*
X13208000Y-8737600D02*
X13233400Y-8763000D01*
X13233400Y-8737600D02*
X13208000Y-8763000D01*
X13208000Y-8813800D02*
X13233400Y-8839200D01*
X13233400Y-8813800D02*
X13208000Y-8839200D01*
X13233400Y-11366500D02*
X13258800Y-11391900D01*
X13258800Y-11366500D02*
X13233400Y-11391900D01*
X13246100Y-8001000D02*
X13271500Y-8026400D01*
X13271500Y-8001000D02*
X13246100Y-8026400D01*
X13246100Y-9880600D02*
X13271500Y-9906000D01*
X13271500Y-9880600D02*
X13246100Y-9906000D01*
X13258800Y-10160000D02*
X13284200Y-10185400D01*
X13284200Y-10160000D02*
X13258800Y-10185400D01*
X13309600Y-10680700D02*
X13335000Y-10706100D01*
X13335000Y-10680700D02*
X13309600Y-10706100D01*
X13309600Y-10833100D02*
X13335000Y-10858500D01*
X13335000Y-10833100D02*
X13309600Y-10858500D01*
X13322300Y-8953500D02*
X13347700Y-8978900D01*
X13347700Y-8953500D02*
X13322300Y-8978900D01*
X13322300Y-9017000D02*
X13347700Y-9042400D01*
X13347700Y-9017000D02*
X13322300Y-9042400D01*
X13322300Y-9093200D02*
X13347700Y-9118600D01*
X13347700Y-9093200D02*
X13322300Y-9118600D01*
X13322300Y-9156700D02*
X13347700Y-9182100D01*
X13347700Y-9156700D02*
X13322300Y-9182100D01*
X13322300Y-9321800D02*
X13347700Y-9347200D01*
X13347700Y-9321800D02*
X13322300Y-9347200D01*
X13335000Y-8001000D02*
X13360400Y-8026400D01*
X13360400Y-8001000D02*
X13335000Y-8026400D01*
X13423900Y-9779000D02*
X13449300Y-9804400D01*
X13449300Y-9779000D02*
X13423900Y-9804400D01*
X13436600Y-10502900D02*
X13462000Y-10528300D01*
X13462000Y-10502900D02*
X13436600Y-10528300D01*
X13449300Y-10185400D02*
X13474700Y-10210800D01*
X13474700Y-10185400D02*
X13449300Y-10210800D01*
X13449300Y-10261600D02*
X13474700Y-10287000D01*
X13474700Y-10261600D02*
X13449300Y-10287000D01*
X13550900Y-7137400D02*
X13576300Y-7162800D01*
X13576300Y-7137400D02*
X13550900Y-7162800D01*
X13550900Y-7226300D02*
X13576300Y-7251700D01*
X13576300Y-7226300D02*
X13550900Y-7251700D01*
X13550900Y-10528300D02*
X13576300Y-10553700D01*
X13576300Y-10528300D02*
X13550900Y-10553700D01*
X13563600Y-10934700D02*
X13589000Y-10960100D01*
X13589000Y-10934700D02*
X13563600Y-10960100D01*
X13614400Y-11366500D02*
X13639800Y-11391900D01*
X13639800Y-11366500D02*
X13614400Y-11391900D01*
X13639800Y-9613900D02*
X13665200Y-9639300D01*
X13665200Y-9613900D02*
X13639800Y-9639300D01*
X13639800Y-9804400D02*
X13665200Y-9829800D01*
X13665200Y-9804400D02*
X13639800Y-9829800D01*
X13639800Y-9867900D02*
X13665200Y-9893300D01*
X13665200Y-9867900D02*
X13639800Y-9893300D01*
X13639800Y-9969500D02*
X13665200Y-9994900D01*
X13665200Y-9969500D02*
X13639800Y-9994900D01*
X13639800Y-10121900D02*
X13665200Y-10147300D01*
X13665200Y-10121900D02*
X13639800Y-10147300D01*
X13652500Y-7137400D02*
X13677900Y-7162800D01*
X13677900Y-7137400D02*
X13652500Y-7162800D01*
X13652500Y-7226300D02*
X13677900Y-7251700D01*
X13677900Y-7226300D02*
X13652500Y-7251700D01*
X13677900Y-9321800D02*
X13703300Y-9347200D01*
X13703300Y-9321800D02*
X13677900Y-9347200D01*
X13690600Y-8382000D02*
X13716000Y-8407400D01*
X13716000Y-8382000D02*
X13690600Y-8407400D01*
X13716000Y-8686800D02*
X13741400Y-8712200D01*
X13741400Y-8686800D02*
X13716000Y-8712200D01*
X13728700Y-10591800D02*
X13754100Y-10617200D01*
X13754100Y-10591800D02*
X13728700Y-10617200D01*
X13728700Y-10934700D02*
X13754100Y-10960100D01*
X13754100Y-10934700D02*
X13728700Y-10960100D01*
X13754100Y-7327900D02*
X13779500Y-7353300D01*
X13779500Y-7327900D02*
X13754100Y-7353300D01*
X13754100Y-7404100D02*
X13779500Y-7429500D01*
X13779500Y-7404100D02*
X13754100Y-7429500D01*
X13779500Y-8496300D02*
X13804900Y-8521700D01*
X13804900Y-8496300D02*
X13779500Y-8521700D01*
X13779500Y-8597900D02*
X13804900Y-8623300D01*
X13804900Y-8597900D02*
X13779500Y-8623300D01*
X13830300Y-10464800D02*
X13855700Y-10490200D01*
X13855700Y-10464800D02*
X13830300Y-10490200D01*
X13843000Y-7327900D02*
X13868400Y-7353300D01*
X13868400Y-7327900D02*
X13843000Y-7353300D01*
X13843000Y-7404100D02*
X13868400Y-7429500D01*
X13868400Y-7404100D02*
X13843000Y-7429500D01*
X13893800Y-8648700D02*
X13919200Y-8674100D01*
X13919200Y-8648700D02*
X13893800Y-8674100D01*
X13931900Y-7327900D02*
X13957300Y-7353300D01*
X13957300Y-7327900D02*
X13931900Y-7353300D01*
X13931900Y-7404100D02*
X13957300Y-7429500D01*
X13957300Y-7404100D02*
X13931900Y-7429500D01*
X13944600Y-10121900D02*
X13970000Y-10147300D01*
X13970000Y-10121900D02*
X13944600Y-10147300D01*
X13982700Y-10464800D02*
X14008100Y-10490200D01*
X14008100Y-10464800D02*
X13982700Y-10490200D01*
X14008100Y-11214100D02*
X14033500Y-11239500D01*
X14033500Y-11214100D02*
X14008100Y-11239500D01*
X14020800Y-10121900D02*
X14046200Y-10147300D01*
X14046200Y-10121900D02*
X14020800Y-10147300D01*
X14046200Y-9194800D02*
X14071600Y-9220200D01*
X14071600Y-9194800D02*
X14046200Y-9220200D01*
X14071600Y-11150600D02*
X14097000Y-11176000D01*
X14097000Y-11150600D02*
X14071600Y-11176000D01*
X14097000Y-9258300D02*
X14122400Y-9283700D01*
X14122400Y-9258300D02*
X14097000Y-9283700D01*
X14122400Y-9017000D02*
X14147800Y-9042400D01*
X14147800Y-9017000D02*
X14122400Y-9042400D01*
X14129300Y-7429500D02*
X14154700Y-7454900D01*
X14154700Y-7429500D02*
X14129300Y-7454900D01*
X14129300Y-8305800D02*
X14154700Y-8331200D01*
X14154700Y-8305800D02*
X14129300Y-8331200D01*
X14173200Y-10591800D02*
X14198600Y-10617200D01*
X14198600Y-10591800D02*
X14173200Y-10617200D01*
X14173200Y-10680700D02*
X14198600Y-10706100D01*
X14198600Y-10680700D02*
X14173200Y-10706100D01*
X14173200Y-10795000D02*
X14198600Y-10820400D01*
X14198600Y-10795000D02*
X14173200Y-10820400D01*
X14173200Y-10896600D02*
X14198600Y-10922000D01*
X14198600Y-10896600D02*
X14173200Y-10922000D01*
X14185900Y-9245600D02*
X14211300Y-9271000D01*
X14211300Y-9245600D02*
X14185900Y-9271000D01*
X14236700Y-8305800D02*
X14262100Y-8331200D01*
X14262100Y-8305800D02*
X14236700Y-8331200D01*
X14300200Y-8991600D02*
X14325600Y-9017000D01*
X14325600Y-8991600D02*
X14300200Y-9017000D01*
X14414500Y-10591800D02*
X14439900Y-10617200D01*
X14439900Y-10591800D02*
X14414500Y-10617200D01*
X14414500Y-10680700D02*
X14439900Y-10706100D01*
X14439900Y-10680700D02*
X14414500Y-10706100D01*
X14414500Y-10795000D02*
X14439900Y-10820400D01*
X14439900Y-10795000D02*
X14414500Y-10820400D01*
X14414500Y-10896600D02*
X14439900Y-10922000D01*
X14439900Y-10896600D02*
X14414500Y-10922000D01*
X14452600Y-8648700D02*
X14478000Y-8674100D01*
X14478000Y-8648700D02*
X14452600Y-8674100D01*
X14465300Y-11620500D02*
X14490700Y-11645900D01*
X14490700Y-11620500D02*
X14465300Y-11645900D01*
X14503400Y-9956800D02*
X14528800Y-9982200D01*
X14528800Y-9956800D02*
X14503400Y-9982200D01*
X14566900Y-7874000D02*
X14592300Y-7899400D01*
X14592300Y-7874000D02*
X14566900Y-7899400D01*
X14589500Y-9515100D02*
X14614900Y-9540500D01*
X14614900Y-9515100D02*
X14589500Y-9540500D01*
X14605000Y-8648700D02*
X14630400Y-8674100D01*
X14630400Y-8648700D02*
X14605000Y-8674100D01*
X14605000Y-9728200D02*
X14630400Y-9753600D01*
X14630400Y-9728200D02*
X14605000Y-9753600D01*
X14605000Y-10071100D02*
X14630400Y-10096500D01*
X14630400Y-10071100D02*
X14605000Y-10096500D01*
X14655800Y-10299700D02*
X14681200Y-10325100D01*
X14681200Y-10299700D02*
X14655800Y-10325100D01*
X14719300Y-11010900D02*
X14744700Y-11036300D01*
X14744700Y-11010900D02*
X14719300Y-11036300D01*
X14782800Y-7747000D02*
X14808200Y-7772400D01*
X14808200Y-7747000D02*
X14782800Y-7772400D01*
X14820900Y-9271000D02*
X14846300Y-9296400D01*
X14846300Y-9271000D02*
X14820900Y-9296400D01*
X14833600Y-8915400D02*
X14859000Y-8940800D01*
X14859000Y-8915400D02*
X14833600Y-8940800D01*
X14846300Y-10045700D02*
X14871700Y-10071100D01*
X14871700Y-10045700D02*
X14846300Y-10071100D01*
X14871700Y-10236200D02*
X14897100Y-10261600D01*
X14897100Y-10236200D02*
X14871700Y-10261600D01*
X14909800Y-9639300D02*
X14935200Y-9664700D01*
X14935200Y-9639300D02*
X14909800Y-9664700D01*
X14935200Y-7810500D02*
X14960600Y-7835900D01*
X14960600Y-7810500D02*
X14935200Y-7835900D01*
X14935200Y-7874000D02*
X14960600Y-7899400D01*
X14960600Y-7874000D02*
X14935200Y-7899400D01*
X14960600Y-8128000D02*
X14986000Y-8153400D01*
X14986000Y-8128000D02*
X14960600Y-8153400D01*
X14973300Y-11061700D02*
X14998700Y-11087100D01*
X14998700Y-11061700D02*
X14973300Y-11087100D01*
X14998700Y-8039100D02*
X15024100Y-8064500D01*
X15024100Y-8039100D02*
X14998700Y-8064500D01*
X15024100Y-10058400D02*
X15049500Y-10083800D01*
X15049500Y-10058400D02*
X15024100Y-10083800D01*
X15049500Y-7810500D02*
X15074900Y-7835900D01*
X15074900Y-7810500D02*
X15049500Y-7835900D01*
X15049500Y-8915400D02*
X15074900Y-8940800D01*
X15074900Y-8915400D02*
X15049500Y-8940800D01*
X15087600Y-9232900D02*
X15113000Y-9258300D01*
X15113000Y-9232900D02*
X15087600Y-9258300D01*
X15138400Y-7912100D02*
X15163800Y-7937500D01*
X15163800Y-7912100D02*
X15138400Y-7937500D01*
X15138400Y-8293100D02*
X15163800Y-8318500D01*
X15163800Y-8293100D02*
X15138400Y-8318500D01*
X15151100Y-9550400D02*
X15176500Y-9575800D01*
X15176500Y-9550400D02*
X15151100Y-9575800D01*
X15151100Y-9613900D02*
X15176500Y-9639300D01*
X15176500Y-9613900D02*
X15151100Y-9639300D01*
X15151100Y-9690100D02*
X15176500Y-9715500D01*
X15176500Y-9690100D02*
X15151100Y-9715500D01*
X15151100Y-9753600D02*
X15176500Y-9779000D01*
X15176500Y-9753600D02*
X15151100Y-9779000D01*
X15151100Y-9817100D02*
X15176500Y-9842500D01*
X15176500Y-9817100D02*
X15151100Y-9842500D01*
X15151100Y-9880600D02*
X15176500Y-9906000D01*
X15176500Y-9880600D02*
X15151100Y-9906000D01*
X15151100Y-9944100D02*
X15176500Y-9969500D01*
X15176500Y-9944100D02*
X15151100Y-9969500D01*
X15151100Y-10007600D02*
X15176500Y-10033000D01*
X15176500Y-10007600D02*
X15151100Y-10033000D01*
X15189200Y-7467600D02*
X15214600Y-7493000D01*
X15214600Y-7467600D02*
X15189200Y-7493000D01*
X15201900Y-8847400D02*
X15227300Y-8872800D01*
X15227300Y-8847400D02*
X15201900Y-8872800D01*
X15227300Y-11391900D02*
X15252700Y-11417300D01*
X15252700Y-11391900D02*
X15227300Y-11417300D01*
X15344500Y-8451700D02*
X15369900Y-8477100D01*
X15369900Y-8451700D02*
X15344500Y-8477100D01*
X15344500Y-8515200D02*
X15369900Y-8540600D01*
X15369900Y-8515200D02*
X15344500Y-8540600D01*
X15379700Y-8001000D02*
X15405100Y-8026400D01*
X15405100Y-8001000D02*
X15379700Y-8026400D01*
X15379700Y-11493500D02*
X15405100Y-11518900D01*
X15405100Y-11493500D02*
X15379700Y-11518900D01*
X15382600Y-8845400D02*
X15408000Y-8870800D01*
X15408000Y-8845400D02*
X15382600Y-8870800D01*
X15392400Y-10071100D02*
X15417800Y-10096500D01*
X15417800Y-10071100D02*
X15392400Y-10096500D01*
X15433400Y-8451700D02*
X15458800Y-8477100D01*
X15458800Y-8451700D02*
X15433400Y-8477100D01*
X15433400Y-8515200D02*
X15458800Y-8540600D01*
X15458800Y-8515200D02*
X15433400Y-8540600D01*
X15481300Y-8293100D02*
X15506700Y-8318500D01*
X15506700Y-8293100D02*
X15481300Y-8318500D01*
X15494000Y-9486900D02*
X15519400Y-9512300D01*
X15519400Y-9486900D02*
X15494000Y-9512300D01*
X15506700Y-8686800D02*
X15532100Y-8712200D01*
X15532100Y-8686800D02*
X15506700Y-8712200D01*
X15532100Y-7708900D02*
X15557500Y-7734300D01*
X15557500Y-7708900D02*
X15532100Y-7734300D01*
X15535000Y-8451700D02*
X15560400Y-8477100D01*
X15560400Y-8451700D02*
X15535000Y-8477100D01*
X15535000Y-8515200D02*
X15560400Y-8540600D01*
X15560400Y-8515200D02*
X15535000Y-8540600D01*
X15544800Y-7810500D02*
X15570200Y-7835900D01*
X15570200Y-7810500D02*
X15544800Y-7835900D01*
X15595600Y-8140700D02*
X15621000Y-8166100D01*
X15621000Y-8140700D02*
X15595600Y-8166100D01*
X15595600Y-9309100D02*
X15621000Y-9334500D01*
X15621000Y-9309100D02*
X15595600Y-9334500D01*
X15595600Y-10185400D02*
X15621000Y-10210800D01*
X15621000Y-10185400D02*
X15595600Y-10210800D01*
X15621000Y-11150600D02*
X15646400Y-11176000D01*
X15646400Y-11150600D02*
X15621000Y-11176000D01*
X15623900Y-8451700D02*
X15649300Y-8477100D01*
X15649300Y-8451700D02*
X15623900Y-8477100D01*
X15623900Y-8515200D02*
X15649300Y-8540600D01*
X15649300Y-8515200D02*
X15623900Y-8540600D01*
X15646400Y-8013700D02*
X15671800Y-8039100D01*
X15671800Y-8013700D02*
X15646400Y-8039100D01*
X15684500Y-9575800D02*
X15709900Y-9601200D01*
X15709900Y-9575800D02*
X15684500Y-9601200D01*
X15789000Y-8451700D02*
X15814400Y-8477100D01*
X15814400Y-8451700D02*
X15789000Y-8477100D01*
X15789000Y-8515200D02*
X15814400Y-8540600D01*
X15814400Y-8515200D02*
X15789000Y-8540600D01*
X15852500Y-8934300D02*
X15877900Y-8959700D01*
X15877900Y-8934300D02*
X15852500Y-8959700D01*
X15877900Y-8451700D02*
X15903300Y-8477100D01*
X15903300Y-8451700D02*
X15877900Y-8477100D01*
X15877900Y-8515200D02*
X15903300Y-8540600D01*
X15903300Y-8515200D02*
X15877900Y-8540600D01*
X15887700Y-11214100D02*
X15913100Y-11239500D01*
X15913100Y-11214100D02*
X15887700Y-11239500D01*
X15913100Y-10160000D02*
X15938500Y-10185400D01*
X15938500Y-10160000D02*
X15913100Y-10185400D01*
X15951200Y-8788400D02*
X15976600Y-8813800D01*
X15976600Y-8788400D02*
X15951200Y-8813800D01*
X15951200Y-10693400D02*
X15976600Y-10718800D01*
X15976600Y-10693400D02*
X15951200Y-10718800D01*
X15966800Y-8451700D02*
X15992200Y-8477100D01*
X15992200Y-8451700D02*
X15966800Y-8477100D01*
X15966800Y-8515200D02*
X15992200Y-8540600D01*
X15992200Y-8515200D02*
X15966800Y-8540600D01*
X15989300Y-9613900D02*
X16014700Y-9639300D01*
X16014700Y-9613900D02*
X15989300Y-9639300D01*
X16027400Y-10071100D02*
X16052800Y-10096500D01*
X16052800Y-10071100D02*
X16027400Y-10096500D01*
X16040100Y-8255000D02*
X16065500Y-8280400D01*
X16065500Y-8255000D02*
X16040100Y-8280400D01*
X16052800Y-10477500D02*
X16078200Y-10502900D01*
X16078200Y-10477500D02*
X16052800Y-10502900D01*
X16055700Y-8451700D02*
X16081100Y-8477100D01*
X16081100Y-8451700D02*
X16055700Y-8477100D01*
X16055700Y-8515200D02*
X16081100Y-8540600D01*
X16081100Y-8515200D02*
X16055700Y-8540600D01*
X16055700Y-8845400D02*
X16081100Y-8870800D01*
X16081100Y-8845400D02*
X16055700Y-8870800D01*
X16078200Y-10185400D02*
X16103600Y-10210800D01*
X16103600Y-10185400D02*
X16078200Y-10210800D01*
X16205200Y-8255000D02*
X16230600Y-8280400D01*
X16230600Y-8255000D02*
X16205200Y-8280400D01*
X16205200Y-8470900D02*
X16230600Y-8496300D01*
X16230600Y-8470900D02*
X16205200Y-8496300D01*
X16243300Y-11696700D02*
X16268700Y-11722100D01*
X16268700Y-11696700D02*
X16243300Y-11722100D01*
X16433800Y-8001000D02*
X16459200Y-8026400D01*
X16459200Y-8001000D02*
X16433800Y-8026400D01*
X16433800Y-8318500D02*
X16459200Y-8343900D01*
X16459200Y-8318500D02*
X16433800Y-8343900D01*
X16433800Y-8851900D02*
X16459200Y-8877300D01*
X16459200Y-8851900D02*
X16433800Y-8877300D01*
X16446500Y-10464800D02*
X16471900Y-10490200D01*
X16471900Y-10464800D02*
X16446500Y-10490200D01*
X16497300Y-9258300D02*
X16522700Y-9283700D01*
X16522700Y-9258300D02*
X16497300Y-9283700D01*
X16535400Y-10693400D02*
X16560800Y-10718800D01*
X16560800Y-10693400D02*
X16535400Y-10718800D01*
X16548100Y-10845800D02*
X16573500Y-10871200D01*
X16573500Y-10845800D02*
X16548100Y-10871200D01*
X16687800Y-10185401D02*
X16713200Y-10210801D01*
X16713200Y-10185401D02*
X16687800Y-10210801D01*
X16700500Y-8001000D02*
X16725900Y-8026400D01*
X16725900Y-8001000D02*
X16700500Y-8026400D01*
X16713200Y-10287001D02*
X16738600Y-10312401D01*
X16738600Y-10287001D02*
X16713200Y-10312401D01*
X16713200Y-10388601D02*
X16738600Y-10414001D01*
X16738600Y-10388601D02*
X16713200Y-10414001D01*
X16713200Y-10541000D02*
X16738600Y-10566400D01*
X16738600Y-10541000D02*
X16713200Y-10566400D01*
X16814800Y-9258300D02*
X16840200Y-9283700D01*
X16840200Y-9258300D02*
X16814800Y-9283700D01*
X16916400Y-10248900D02*
X16941800Y-10274300D01*
X16941800Y-10248900D02*
X16916400Y-10274300D01*
X16916400Y-10325100D02*
X16941800Y-10350500D01*
X16941800Y-10325100D02*
X16916400Y-10350500D01*
X16916400Y-10439400D02*
X16941800Y-10464800D01*
X16941800Y-10439400D02*
X16916400Y-10464800D01*
X16967200Y-10490200D02*
X16992600Y-10515600D01*
X16992600Y-10490200D02*
X16967200Y-10515600D01*
X16992600Y-8280399D02*
X17018000Y-8305799D01*
X17018000Y-8280399D02*
X16992600Y-8305799D01*
X16992600Y-8394699D02*
X17018000Y-8420099D01*
X17018000Y-8394699D02*
X16992600Y-8420099D01*
X16992600Y-8496299D02*
X17018000Y-8521699D01*
X17018000Y-8496299D02*
X16992600Y-8521699D01*
X16992600Y-8724899D02*
X17018000Y-8750299D01*
X17018000Y-8724899D02*
X16992600Y-8750299D01*
X16992600Y-8826499D02*
X17018000Y-8851899D01*
X17018000Y-8826499D02*
X16992600Y-8851899D01*
X16992600Y-8940799D02*
X17018000Y-8966199D01*
X17018000Y-8940799D02*
X16992600Y-8966199D01*
X16992600Y-9055099D02*
X17018000Y-9080499D01*
X17018000Y-9055099D02*
X16992600Y-9080499D01*
X16992600Y-8610599D02*
X17018000Y-8635999D01*
X17018000Y-8610599D02*
X16992600Y-8635999D01*
X16992600Y-9842501D02*
X17018000Y-9867901D01*
X17018000Y-9842501D02*
X16992600Y-9867901D01*
X16992600Y-10883901D02*
X17018000Y-10909301D01*
X17018000Y-10883901D02*
X16992600Y-10909301D01*
X17043399Y-10388601D02*
X17068799Y-10414001D01*
X17068799Y-10388601D02*
X17043399Y-10414001D01*
X17043400Y-7988300D02*
X17068800Y-8013700D01*
X17068800Y-7988300D02*
X17043400Y-8013700D01*
X17043400Y-10287000D02*
X17068800Y-10312400D01*
X17068800Y-10287000D02*
X17043400Y-10312400D01*
X17068800Y-11239500D02*
X17094200Y-11264900D01*
X17094200Y-11239500D02*
X17068800Y-11264900D01*
X17106899Y-10388601D02*
X17132299Y-10414001D01*
X17132299Y-10388601D02*
X17106899Y-10414001D01*
X17106900Y-10287000D02*
X17132300Y-10312400D01*
X17132300Y-10287000D02*
X17106900Y-10312400D01*
X17170399Y-10388601D02*
X17195799Y-10414001D01*
X17195799Y-10388601D02*
X17170399Y-10414001D01*
X17170400Y-10287000D02*
X17195800Y-10312400D01*
X17195800Y-10287000D02*
X17170400Y-10312400D01*
D13*
X13920800Y-9522800D02*
G75*
G03*
X13920800Y-9522800I-16500J0D01*
G01*
X13920800Y-9642800D02*
G75*
G03*
X13920800Y-9642800I-16500J0D01*
G01*
X13920800Y-9762800D02*
G75*
G03*
X13920800Y-9762800I-16500J0D01*
G01*
X13920800Y-9882800D02*
G75*
G03*
X13920800Y-9882800I-16500J0D01*
G01*
X14040800Y-9522800D02*
G75*
G03*
X14040800Y-9522800I-16500J0D01*
G01*
X14040800Y-9642800D02*
G75*
G03*
X14040800Y-9642800I-16500J0D01*
G01*
X14040800Y-9762800D02*
G75*
G03*
X14040800Y-9762800I-16500J0D01*
G01*
X14040800Y-9882800D02*
G75*
G03*
X14040800Y-9882800I-16500J0D01*
G01*
X14160800Y-9522800D02*
G75*
G03*
X14160800Y-9522800I-16500J0D01*
G01*
X14160800Y-9642800D02*
G75*
G03*
X14160800Y-9642800I-16500J0D01*
G01*
X14160800Y-9762800D02*
G75*
G03*
X14160800Y-9762800I-16500J0D01*
G01*
X14160800Y-9882800D02*
G75*
G03*
X14160800Y-9882800I-16500J0D01*
G01*
X14280800Y-9522800D02*
G75*
G03*
X14280800Y-9522800I-16500J0D01*
G01*
X14280800Y-9642800D02*
G75*
G03*
X14280800Y-9642800I-16500J0D01*
G01*
X14280800Y-9762800D02*
G75*
G03*
X14280800Y-9762800I-16500J0D01*
G01*
X14280800Y-9882800D02*
G75*
G03*
X14280800Y-9882800I-16500J0D01*
G01*
D14*
X12347650Y-8827500D02*
X12347650Y-8887500D01*
X12317650Y-8857500D02*
X12377650Y-8857500D01*
D11*
X12312650Y-8877500D02*
X12382650Y-8877500D01*
X12312650Y-8837500D02*
X12382650Y-8837500D01*
X12382650Y-8877500D02*
G75*
G03*
X12382650Y-8837500I0J20000D01*
G01*
X12312650Y-8837500D02*
G75*
G03*
X12312650Y-8877500I0J-20000D01*
G01*
D14*
X12347650Y-9527500D02*
X12347650Y-9587500D01*
X12317650Y-9557500D02*
X12377650Y-9557500D01*
D11*
X12382650Y-9537500D02*
X12312650Y-9537500D01*
X12382650Y-9577500D02*
X12312650Y-9577500D01*
X12312650Y-9537500D02*
G75*
G03*
X12312650Y-9577500I0J-20000D01*
G01*
X12382650Y-9577500D02*
G75*
G03*
X12382650Y-9537500I0J20000D01*
G01*
D15*
X12647702Y-8987552D02*
X12647702Y-8927448D01*
X12587598Y-8927448D01*
X12587598Y-8987552D01*
X12647702Y-8987552D01*
X12647702Y-9487552D02*
X12647702Y-9427448D01*
X12587598Y-9427448D01*
X12587598Y-9487552D01*
X12647702Y-9487552D01*
D11*
X12444619Y-12380476D02*
X12444619Y-12180476D01*
X12492238Y-12180476D01*
X12520809Y-12190000D01*
X12539857Y-12209048D01*
X12549381Y-12228095D01*
X12558905Y-12266190D01*
X12558905Y-12294762D01*
X12549381Y-12332857D01*
X12539857Y-12351905D01*
X12520809Y-12370952D01*
X12492238Y-12380476D01*
X12444619Y-12380476D01*
X12644619Y-12380476D02*
X12644619Y-12247143D01*
X12644619Y-12285238D02*
X12654143Y-12266190D01*
X12663667Y-12256667D01*
X12682714Y-12247143D01*
X12701762Y-12247143D01*
X12768428Y-12380476D02*
X12768428Y-12247143D01*
X12768428Y-12180476D02*
X12758905Y-12190000D01*
X12768428Y-12199524D01*
X12777952Y-12190000D01*
X12768428Y-12180476D01*
X12768428Y-12199524D01*
X12892238Y-12380476D02*
X12873190Y-12370952D01*
X12863667Y-12351905D01*
X12863667Y-12180476D01*
X12997000Y-12380476D02*
X12977952Y-12370952D01*
X12968428Y-12351905D01*
X12968428Y-12180476D01*
X13225571Y-12380476D02*
X13225571Y-12180476D01*
X13292238Y-12323333D01*
X13358905Y-12180476D01*
X13358905Y-12380476D01*
X13539857Y-12380476D02*
X13539857Y-12275714D01*
X13530333Y-12256667D01*
X13511286Y-12247143D01*
X13473190Y-12247143D01*
X13454143Y-12256667D01*
X13539857Y-12370952D02*
X13520809Y-12380476D01*
X13473190Y-12380476D01*
X13454143Y-12370952D01*
X13444619Y-12351905D01*
X13444619Y-12332857D01*
X13454143Y-12313809D01*
X13473190Y-12304286D01*
X13520809Y-12304286D01*
X13539857Y-12294762D01*
X13635095Y-12247143D02*
X13635095Y-12447143D01*
X13635095Y-12256667D02*
X13654143Y-12247143D01*
X13692238Y-12247143D01*
X13711286Y-12256667D01*
X13720809Y-12266190D01*
X13730333Y-12285238D01*
X13730333Y-12342381D01*
X13720809Y-12361428D01*
X13711286Y-12370952D01*
X13692238Y-12380476D01*
X13654143Y-12380476D01*
X13635095Y-12370952D01*
X13816048Y-12361428D02*
X13825571Y-12370952D01*
X13816048Y-12380476D01*
X13806524Y-12370952D01*
X13816048Y-12361428D01*
X13816048Y-12380476D01*
X13816048Y-12256667D02*
X13825571Y-12266190D01*
X13816048Y-12275714D01*
X13806524Y-12266190D01*
X13816048Y-12256667D01*
X13816048Y-12275714D01*
D12*
X12161600Y-12697300D02*
X12187000Y-12722700D01*
X12187000Y-12697300D02*
X12161600Y-12722700D01*
D11*
X12482714Y-12600476D02*
X12501762Y-12600476D01*
X12520809Y-12610000D01*
X12530333Y-12619524D01*
X12539857Y-12638571D01*
X12549381Y-12676667D01*
X12549381Y-12724286D01*
X12539857Y-12762381D01*
X12530333Y-12781428D01*
X12520809Y-12790952D01*
X12501762Y-12800476D01*
X12482714Y-12800476D01*
X12463667Y-12790952D01*
X12454143Y-12781428D01*
X12444619Y-12762381D01*
X12435095Y-12724286D01*
X12435095Y-12676667D01*
X12444619Y-12638571D01*
X12454143Y-12619524D01*
X12463667Y-12610000D01*
X12482714Y-12600476D01*
X12635095Y-12781428D02*
X12644619Y-12790952D01*
X12635095Y-12800476D01*
X12625571Y-12790952D01*
X12635095Y-12781428D01*
X12635095Y-12800476D01*
X12720809Y-12619524D02*
X12730333Y-12610000D01*
X12749381Y-12600476D01*
X12797000Y-12600476D01*
X12816048Y-12610000D01*
X12825571Y-12619524D01*
X12835095Y-12638571D01*
X12835095Y-12657619D01*
X12825571Y-12686190D01*
X12711286Y-12800476D01*
X12835095Y-12800476D01*
X13016048Y-12600476D02*
X12920809Y-12600476D01*
X12911286Y-12695714D01*
X12920809Y-12686190D01*
X12939857Y-12676667D01*
X12987476Y-12676667D01*
X13006524Y-12686190D01*
X13016048Y-12695714D01*
X13025571Y-12714762D01*
X13025571Y-12762381D01*
X13016048Y-12781428D01*
X13006524Y-12790952D01*
X12987476Y-12800476D01*
X12939857Y-12800476D01*
X12920809Y-12790952D01*
X12911286Y-12781428D01*
X13197000Y-12667143D02*
X13197000Y-12800476D01*
X13149381Y-12590952D02*
X13101762Y-12733809D01*
X13225571Y-12733809D01*
X13301762Y-12800476D02*
X13301762Y-12667143D01*
X13301762Y-12686190D02*
X13311286Y-12676667D01*
X13330333Y-12667143D01*
X13358905Y-12667143D01*
X13377952Y-12676667D01*
X13387476Y-12695714D01*
X13387476Y-12800476D01*
X13387476Y-12695714D02*
X13397000Y-12676667D01*
X13416048Y-12667143D01*
X13444619Y-12667143D01*
X13463667Y-12676667D01*
X13473190Y-12695714D01*
X13473190Y-12800476D01*
X13568428Y-12800476D02*
X13568428Y-12667143D01*
X13568428Y-12686190D02*
X13577952Y-12676667D01*
X13597000Y-12667143D01*
X13625571Y-12667143D01*
X13644619Y-12676667D01*
X13654143Y-12695714D01*
X13654143Y-12800476D01*
X13654143Y-12695714D02*
X13663667Y-12676667D01*
X13682714Y-12667143D01*
X13711286Y-12667143D01*
X13730333Y-12676667D01*
X13739857Y-12695714D01*
X13739857Y-12800476D01*
X14130333Y-12590952D02*
X13958905Y-12848095D01*
X14387476Y-12600476D02*
X14406524Y-12600476D01*
X14425571Y-12610000D01*
X14435095Y-12619524D01*
X14444619Y-12638571D01*
X14454143Y-12676667D01*
X14454143Y-12724286D01*
X14444619Y-12762381D01*
X14435095Y-12781428D01*
X14425571Y-12790952D01*
X14406524Y-12800476D01*
X14387476Y-12800476D01*
X14368428Y-12790952D01*
X14358905Y-12781428D01*
X14349381Y-12762381D01*
X14339857Y-12724286D01*
X14339857Y-12676667D01*
X14349381Y-12638571D01*
X14358905Y-12619524D01*
X14368428Y-12610000D01*
X14387476Y-12600476D01*
X14539857Y-12781428D02*
X14549381Y-12790952D01*
X14539857Y-12800476D01*
X14530333Y-12790952D01*
X14539857Y-12781428D01*
X14539857Y-12800476D01*
X14673190Y-12600476D02*
X14692238Y-12600476D01*
X14711286Y-12610000D01*
X14720809Y-12619524D01*
X14730333Y-12638571D01*
X14739857Y-12676667D01*
X14739857Y-12724286D01*
X14730333Y-12762381D01*
X14720809Y-12781428D01*
X14711286Y-12790952D01*
X14692238Y-12800476D01*
X14673190Y-12800476D01*
X14654143Y-12790952D01*
X14644619Y-12781428D01*
X14635095Y-12762381D01*
X14625571Y-12724286D01*
X14625571Y-12676667D01*
X14635095Y-12638571D01*
X14644619Y-12619524D01*
X14654143Y-12610000D01*
X14673190Y-12600476D01*
X14930333Y-12800476D02*
X14816048Y-12800476D01*
X14873190Y-12800476D02*
X14873190Y-12600476D01*
X14854143Y-12629048D01*
X14835095Y-12648095D01*
X14816048Y-12657619D01*
X15054143Y-12600476D02*
X15073190Y-12600476D01*
X15092238Y-12610000D01*
X15101762Y-12619524D01*
X15111286Y-12638571D01*
X15120809Y-12676667D01*
X15120809Y-12724286D01*
X15111286Y-12762381D01*
X15101762Y-12781428D01*
X15092238Y-12790952D01*
X15073190Y-12800476D01*
X15054143Y-12800476D01*
X15035095Y-12790952D01*
X15025571Y-12781428D01*
X15016048Y-12762381D01*
X15006524Y-12724286D01*
X15006524Y-12676667D01*
X15016048Y-12638571D01*
X15025571Y-12619524D01*
X15035095Y-12610000D01*
X15054143Y-12600476D01*
X15244619Y-12600476D02*
X15263667Y-12600476D01*
X15282714Y-12610000D01*
X15292238Y-12619524D01*
X15301762Y-12638571D01*
X15311286Y-12676667D01*
X15311286Y-12724286D01*
X15301762Y-12762381D01*
X15292238Y-12781428D01*
X15282714Y-12790952D01*
X15263667Y-12800476D01*
X15244619Y-12800476D01*
X15225571Y-12790952D01*
X15216048Y-12781428D01*
X15206524Y-12762381D01*
X15197000Y-12724286D01*
X15197000Y-12676667D01*
X15206524Y-12638571D01*
X15216048Y-12619524D01*
X15225571Y-12610000D01*
X15244619Y-12600476D01*
X15387476Y-12600476D02*
X15387476Y-12638571D01*
X15463667Y-12600476D02*
X15463667Y-12638571D01*
X15758905Y-12876667D02*
X15749381Y-12867143D01*
X15730333Y-12838571D01*
X15720809Y-12819524D01*
X15711286Y-12790952D01*
X15701762Y-12743333D01*
X15701762Y-12705238D01*
X15711286Y-12657619D01*
X15720809Y-12629048D01*
X15730333Y-12610000D01*
X15749381Y-12581428D01*
X15758905Y-12571905D01*
X15825571Y-12619524D02*
X15835095Y-12610000D01*
X15854143Y-12600476D01*
X15901762Y-12600476D01*
X15920809Y-12610000D01*
X15930333Y-12619524D01*
X15939857Y-12638571D01*
X15939857Y-12657619D01*
X15930333Y-12686190D01*
X15816048Y-12800476D01*
X15939857Y-12800476D01*
X16016048Y-12619524D02*
X16025571Y-12610000D01*
X16044619Y-12600476D01*
X16092238Y-12600476D01*
X16111286Y-12610000D01*
X16120809Y-12619524D01*
X16130333Y-12638571D01*
X16130333Y-12657619D01*
X16120809Y-12686190D01*
X16006524Y-12800476D01*
X16130333Y-12800476D01*
X16301762Y-12667143D02*
X16301762Y-12800476D01*
X16254143Y-12590952D02*
X16206524Y-12733809D01*
X16330333Y-12733809D01*
X16558905Y-12800476D02*
X16558905Y-12600476D01*
X16644619Y-12800476D02*
X16644619Y-12695714D01*
X16635095Y-12676667D01*
X16616048Y-12667143D01*
X16587476Y-12667143D01*
X16568428Y-12676667D01*
X16558905Y-12686190D01*
X16768428Y-12800476D02*
X16749381Y-12790952D01*
X16739857Y-12781428D01*
X16730333Y-12762381D01*
X16730333Y-12705238D01*
X16739857Y-12686190D01*
X16749381Y-12676667D01*
X16768428Y-12667143D01*
X16797000Y-12667143D01*
X16816048Y-12676667D01*
X16825571Y-12686190D01*
X16835095Y-12705238D01*
X16835095Y-12762381D01*
X16825571Y-12781428D01*
X16816048Y-12790952D01*
X16797000Y-12800476D01*
X16768428Y-12800476D01*
X16949381Y-12800476D02*
X16930333Y-12790952D01*
X16920810Y-12771905D01*
X16920810Y-12600476D01*
X17101762Y-12790952D02*
X17082714Y-12800476D01*
X17044619Y-12800476D01*
X17025571Y-12790952D01*
X17016048Y-12771905D01*
X17016048Y-12695714D01*
X17025571Y-12676667D01*
X17044619Y-12667143D01*
X17082714Y-12667143D01*
X17101762Y-12676667D01*
X17111286Y-12695714D01*
X17111286Y-12714762D01*
X17016048Y-12733809D01*
X17187476Y-12790952D02*
X17206524Y-12800476D01*
X17244619Y-12800476D01*
X17263667Y-12790952D01*
X17273190Y-12771905D01*
X17273190Y-12762381D01*
X17263667Y-12743333D01*
X17244619Y-12733809D01*
X17216048Y-12733809D01*
X17197000Y-12724286D01*
X17187476Y-12705238D01*
X17187476Y-12695714D01*
X17197000Y-12676667D01*
X17216048Y-12667143D01*
X17244619Y-12667143D01*
X17263667Y-12676667D01*
X17339857Y-12876667D02*
X17349381Y-12867143D01*
X17368429Y-12838571D01*
X17377952Y-12819524D01*
X17387476Y-12790952D01*
X17397000Y-12743333D01*
X17397000Y-12705238D01*
X17387476Y-12657619D01*
X17377952Y-12629048D01*
X17368429Y-12610000D01*
X17349381Y-12581428D01*
X17339857Y-12571905D01*
D13*
X12187000Y-12974000D02*
G75*
G03*
X12187000Y-12974000I-16500J0D01*
G01*
D11*
X12482714Y-12864476D02*
X12501762Y-12864476D01*
X12520809Y-12874000D01*
X12530333Y-12883524D01*
X12539857Y-12902571D01*
X12549381Y-12940667D01*
X12549381Y-12988286D01*
X12539857Y-13026381D01*
X12530333Y-13045428D01*
X12520809Y-13054952D01*
X12501762Y-13064476D01*
X12482714Y-13064476D01*
X12463667Y-13054952D01*
X12454143Y-13045428D01*
X12444619Y-13026381D01*
X12435095Y-12988286D01*
X12435095Y-12940667D01*
X12444619Y-12902571D01*
X12454143Y-12883524D01*
X12463667Y-12874000D01*
X12482714Y-12864476D01*
X12635095Y-13045428D02*
X12644619Y-13054952D01*
X12635095Y-13064476D01*
X12625571Y-13054952D01*
X12635095Y-13045428D01*
X12635095Y-13064476D01*
X12711286Y-12864476D02*
X12835095Y-12864476D01*
X12768428Y-12940667D01*
X12797000Y-12940667D01*
X12816048Y-12950190D01*
X12825571Y-12959714D01*
X12835095Y-12978762D01*
X12835095Y-13026381D01*
X12825571Y-13045428D01*
X12816048Y-13054952D01*
X12797000Y-13064476D01*
X12739857Y-13064476D01*
X12720809Y-13054952D01*
X12711286Y-13045428D01*
X12901762Y-12864476D02*
X13025571Y-12864476D01*
X12958905Y-12940667D01*
X12987476Y-12940667D01*
X13006524Y-12950190D01*
X13016048Y-12959714D01*
X13025571Y-12978762D01*
X13025571Y-13026381D01*
X13016048Y-13045428D01*
X13006524Y-13054952D01*
X12987476Y-13064476D01*
X12930333Y-13064476D01*
X12911286Y-13054952D01*
X12901762Y-13045428D01*
X13149381Y-12864476D02*
X13168428Y-12864476D01*
X13187476Y-12874000D01*
X13197000Y-12883524D01*
X13206524Y-12902571D01*
X13216048Y-12940667D01*
X13216048Y-12988286D01*
X13206524Y-13026381D01*
X13197000Y-13045428D01*
X13187476Y-13054952D01*
X13168428Y-13064476D01*
X13149381Y-13064476D01*
X13130333Y-13054952D01*
X13120809Y-13045428D01*
X13111286Y-13026381D01*
X13101762Y-12988286D01*
X13101762Y-12940667D01*
X13111286Y-12902571D01*
X13120809Y-12883524D01*
X13130333Y-12874000D01*
X13149381Y-12864476D01*
X13301762Y-13064476D02*
X13301762Y-12931143D01*
X13301762Y-12950190D02*
X13311286Y-12940667D01*
X13330333Y-12931143D01*
X13358905Y-12931143D01*
X13377952Y-12940667D01*
X13387476Y-12959714D01*
X13387476Y-13064476D01*
X13387476Y-12959714D02*
X13397000Y-12940667D01*
X13416048Y-12931143D01*
X13444619Y-12931143D01*
X13463667Y-12940667D01*
X13473190Y-12959714D01*
X13473190Y-13064476D01*
X13568428Y-13064476D02*
X13568428Y-12931143D01*
X13568428Y-12950190D02*
X13577952Y-12940667D01*
X13597000Y-12931143D01*
X13625571Y-12931143D01*
X13644619Y-12940667D01*
X13654143Y-12959714D01*
X13654143Y-13064476D01*
X13654143Y-12959714D02*
X13663667Y-12940667D01*
X13682714Y-12931143D01*
X13711286Y-12931143D01*
X13730333Y-12940667D01*
X13739857Y-12959714D01*
X13739857Y-13064476D01*
X14130333Y-12854952D02*
X13958905Y-13112095D01*
X14387476Y-12864476D02*
X14406524Y-12864476D01*
X14425571Y-12874000D01*
X14435095Y-12883524D01*
X14444619Y-12902571D01*
X14454143Y-12940667D01*
X14454143Y-12988286D01*
X14444619Y-13026381D01*
X14435095Y-13045428D01*
X14425571Y-13054952D01*
X14406524Y-13064476D01*
X14387476Y-13064476D01*
X14368428Y-13054952D01*
X14358905Y-13045428D01*
X14349381Y-13026381D01*
X14339857Y-12988286D01*
X14339857Y-12940667D01*
X14349381Y-12902571D01*
X14358905Y-12883524D01*
X14368428Y-12874000D01*
X14387476Y-12864476D01*
X14539857Y-13045428D02*
X14549381Y-13054952D01*
X14539857Y-13064476D01*
X14530333Y-13054952D01*
X14539857Y-13045428D01*
X14539857Y-13064476D01*
X14673190Y-12864476D02*
X14692238Y-12864476D01*
X14711286Y-12874000D01*
X14720809Y-12883524D01*
X14730333Y-12902571D01*
X14739857Y-12940667D01*
X14739857Y-12988286D01*
X14730333Y-13026381D01*
X14720809Y-13045428D01*
X14711286Y-13054952D01*
X14692238Y-13064476D01*
X14673190Y-13064476D01*
X14654143Y-13054952D01*
X14644619Y-13045428D01*
X14635095Y-13026381D01*
X14625571Y-12988286D01*
X14625571Y-12940667D01*
X14635095Y-12902571D01*
X14644619Y-12883524D01*
X14654143Y-12874000D01*
X14673190Y-12864476D01*
X14930333Y-13064476D02*
X14816048Y-13064476D01*
X14873190Y-13064476D02*
X14873190Y-12864476D01*
X14854143Y-12893048D01*
X14835095Y-12912095D01*
X14816048Y-12921619D01*
X14997000Y-12864476D02*
X15120809Y-12864476D01*
X15054143Y-12940667D01*
X15082714Y-12940667D01*
X15101762Y-12950190D01*
X15111286Y-12959714D01*
X15120809Y-12978762D01*
X15120809Y-13026381D01*
X15111286Y-13045428D01*
X15101762Y-13054952D01*
X15082714Y-13064476D01*
X15025571Y-13064476D01*
X15006524Y-13054952D01*
X14997000Y-13045428D01*
X15244619Y-12864476D02*
X15263667Y-12864476D01*
X15282714Y-12874000D01*
X15292238Y-12883524D01*
X15301762Y-12902571D01*
X15311286Y-12940667D01*
X15311286Y-12988286D01*
X15301762Y-13026381D01*
X15292238Y-13045428D01*
X15282714Y-13054952D01*
X15263667Y-13064476D01*
X15244619Y-13064476D01*
X15225571Y-13054952D01*
X15216048Y-13045428D01*
X15206524Y-13026381D01*
X15197000Y-12988286D01*
X15197000Y-12940667D01*
X15206524Y-12902571D01*
X15216048Y-12883524D01*
X15225571Y-12874000D01*
X15244619Y-12864476D01*
X15387476Y-12864476D02*
X15387476Y-12902571D01*
X15463667Y-12864476D02*
X15463667Y-12902571D01*
X15758905Y-13140667D02*
X15749381Y-13131143D01*
X15730333Y-13102571D01*
X15720809Y-13083524D01*
X15711286Y-13054952D01*
X15701762Y-13007333D01*
X15701762Y-12969238D01*
X15711286Y-12921619D01*
X15720809Y-12893048D01*
X15730333Y-12874000D01*
X15749381Y-12845428D01*
X15758905Y-12835905D01*
X15939857Y-13064476D02*
X15825571Y-13064476D01*
X15882714Y-13064476D02*
X15882714Y-12864476D01*
X15863667Y-12893048D01*
X15844619Y-12912095D01*
X15825571Y-12921619D01*
X16111286Y-12864476D02*
X16073190Y-12864476D01*
X16054143Y-12874000D01*
X16044619Y-12883524D01*
X16025571Y-12912095D01*
X16016048Y-12950190D01*
X16016048Y-13026381D01*
X16025571Y-13045428D01*
X16035095Y-13054952D01*
X16054143Y-13064476D01*
X16092238Y-13064476D01*
X16111286Y-13054952D01*
X16120809Y-13045428D01*
X16130333Y-13026381D01*
X16130333Y-12978762D01*
X16120809Y-12959714D01*
X16111286Y-12950190D01*
X16092238Y-12940667D01*
X16054143Y-12940667D01*
X16035095Y-12950190D01*
X16025571Y-12959714D01*
X16016048Y-12978762D01*
X16368428Y-13064476D02*
X16368428Y-12864476D01*
X16454143Y-13064476D02*
X16454143Y-12959714D01*
X16444619Y-12940667D01*
X16425571Y-12931143D01*
X16397000Y-12931143D01*
X16377952Y-12940667D01*
X16368428Y-12950190D01*
X16577952Y-13064476D02*
X16558905Y-13054952D01*
X16549381Y-13045428D01*
X16539857Y-13026381D01*
X16539857Y-12969238D01*
X16549381Y-12950190D01*
X16558905Y-12940667D01*
X16577952Y-12931143D01*
X16606524Y-12931143D01*
X16625571Y-12940667D01*
X16635095Y-12950190D01*
X16644619Y-12969238D01*
X16644619Y-13026381D01*
X16635095Y-13045428D01*
X16625571Y-13054952D01*
X16606524Y-13064476D01*
X16577952Y-13064476D01*
X16758905Y-13064476D02*
X16739857Y-13054952D01*
X16730333Y-13035905D01*
X16730333Y-12864476D01*
X16911286Y-13054952D02*
X16892238Y-13064476D01*
X16854143Y-13064476D01*
X16835095Y-13054952D01*
X16825571Y-13035905D01*
X16825571Y-12959714D01*
X16835095Y-12940667D01*
X16854143Y-12931143D01*
X16892238Y-12931143D01*
X16911286Y-12940667D01*
X16920810Y-12959714D01*
X16920810Y-12978762D01*
X16825571Y-12997809D01*
X16997000Y-13054952D02*
X17016048Y-13064476D01*
X17054143Y-13064476D01*
X17073190Y-13054952D01*
X17082714Y-13035905D01*
X17082714Y-13026381D01*
X17073190Y-13007333D01*
X17054143Y-12997809D01*
X17025571Y-12997809D01*
X17006524Y-12988286D01*
X16997000Y-12969238D01*
X16997000Y-12959714D01*
X17006524Y-12940667D01*
X17025571Y-12931143D01*
X17054143Y-12931143D01*
X17073190Y-12940667D01*
X17149381Y-13140667D02*
X17158905Y-13131143D01*
X17177952Y-13102571D01*
X17187476Y-13083524D01*
X17197000Y-13054952D01*
X17206524Y-13007333D01*
X17206524Y-12969238D01*
X17197000Y-12921619D01*
X17187476Y-12893048D01*
X17177952Y-12874000D01*
X17158905Y-12845428D01*
X17149381Y-12835905D01*
D14*
X12157000Y-13208000D02*
X12157000Y-13268000D01*
X12127000Y-13238000D02*
X12187000Y-13238000D01*
D11*
X12482714Y-13128476D02*
X12501762Y-13128476D01*
X12520809Y-13138000D01*
X12530333Y-13147524D01*
X12539857Y-13166571D01*
X12549381Y-13204667D01*
X12549381Y-13252286D01*
X12539857Y-13290381D01*
X12530333Y-13309428D01*
X12520809Y-13318952D01*
X12501762Y-13328476D01*
X12482714Y-13328476D01*
X12463667Y-13318952D01*
X12454143Y-13309428D01*
X12444619Y-13290381D01*
X12435095Y-13252286D01*
X12435095Y-13204667D01*
X12444619Y-13166571D01*
X12454143Y-13147524D01*
X12463667Y-13138000D01*
X12482714Y-13128476D01*
X12635095Y-13309428D02*
X12644619Y-13318952D01*
X12635095Y-13328476D01*
X12625571Y-13318952D01*
X12635095Y-13309428D01*
X12635095Y-13328476D01*
X12816048Y-13128476D02*
X12777952Y-13128476D01*
X12758905Y-13138000D01*
X12749381Y-13147524D01*
X12730333Y-13176095D01*
X12720809Y-13214190D01*
X12720809Y-13290381D01*
X12730333Y-13309428D01*
X12739857Y-13318952D01*
X12758905Y-13328476D01*
X12797000Y-13328476D01*
X12816048Y-13318952D01*
X12825571Y-13309428D01*
X12835095Y-13290381D01*
X12835095Y-13242762D01*
X12825571Y-13223714D01*
X12816048Y-13214190D01*
X12797000Y-13204667D01*
X12758905Y-13204667D01*
X12739857Y-13214190D01*
X12730333Y-13223714D01*
X12720809Y-13242762D01*
X12958905Y-13128476D02*
X12977952Y-13128476D01*
X12997000Y-13138000D01*
X13006524Y-13147524D01*
X13016048Y-13166571D01*
X13025571Y-13204667D01*
X13025571Y-13252286D01*
X13016048Y-13290381D01*
X13006524Y-13309428D01*
X12997000Y-13318952D01*
X12977952Y-13328476D01*
X12958905Y-13328476D01*
X12939857Y-13318952D01*
X12930333Y-13309428D01*
X12920809Y-13290381D01*
X12911286Y-13252286D01*
X12911286Y-13204667D01*
X12920809Y-13166571D01*
X12930333Y-13147524D01*
X12939857Y-13138000D01*
X12958905Y-13128476D01*
X13149381Y-13128476D02*
X13168428Y-13128476D01*
X13187476Y-13138000D01*
X13197000Y-13147524D01*
X13206524Y-13166571D01*
X13216048Y-13204667D01*
X13216048Y-13252286D01*
X13206524Y-13290381D01*
X13197000Y-13309428D01*
X13187476Y-13318952D01*
X13168428Y-13328476D01*
X13149381Y-13328476D01*
X13130333Y-13318952D01*
X13120809Y-13309428D01*
X13111286Y-13290381D01*
X13101762Y-13252286D01*
X13101762Y-13204667D01*
X13111286Y-13166571D01*
X13120809Y-13147524D01*
X13130333Y-13138000D01*
X13149381Y-13128476D01*
X13301762Y-13328476D02*
X13301762Y-13195143D01*
X13301762Y-13214190D02*
X13311286Y-13204667D01*
X13330333Y-13195143D01*
X13358905Y-13195143D01*
X13377952Y-13204667D01*
X13387476Y-13223714D01*
X13387476Y-13328476D01*
X13387476Y-13223714D02*
X13397000Y-13204667D01*
X13416048Y-13195143D01*
X13444619Y-13195143D01*
X13463667Y-13204667D01*
X13473190Y-13223714D01*
X13473190Y-13328476D01*
X13568428Y-13328476D02*
X13568428Y-13195143D01*
X13568428Y-13214190D02*
X13577952Y-13204667D01*
X13597000Y-13195143D01*
X13625571Y-13195143D01*
X13644619Y-13204667D01*
X13654143Y-13223714D01*
X13654143Y-13328476D01*
X13654143Y-13223714D02*
X13663667Y-13204667D01*
X13682714Y-13195143D01*
X13711286Y-13195143D01*
X13730333Y-13204667D01*
X13739857Y-13223714D01*
X13739857Y-13328476D01*
X14130333Y-13118952D02*
X13958905Y-13376095D01*
X14387476Y-13128476D02*
X14406524Y-13128476D01*
X14425571Y-13138000D01*
X14435095Y-13147524D01*
X14444619Y-13166571D01*
X14454143Y-13204667D01*
X14454143Y-13252286D01*
X14444619Y-13290381D01*
X14435095Y-13309428D01*
X14425571Y-13318952D01*
X14406524Y-13328476D01*
X14387476Y-13328476D01*
X14368428Y-13318952D01*
X14358905Y-13309428D01*
X14349381Y-13290381D01*
X14339857Y-13252286D01*
X14339857Y-13204667D01*
X14349381Y-13166571D01*
X14358905Y-13147524D01*
X14368428Y-13138000D01*
X14387476Y-13128476D01*
X14539857Y-13309428D02*
X14549381Y-13318952D01*
X14539857Y-13328476D01*
X14530333Y-13318952D01*
X14539857Y-13309428D01*
X14539857Y-13328476D01*
X14673190Y-13128476D02*
X14692238Y-13128476D01*
X14711286Y-13138000D01*
X14720809Y-13147524D01*
X14730333Y-13166571D01*
X14739857Y-13204667D01*
X14739857Y-13252286D01*
X14730333Y-13290381D01*
X14720809Y-13309428D01*
X14711286Y-13318952D01*
X14692238Y-13328476D01*
X14673190Y-13328476D01*
X14654143Y-13318952D01*
X14644619Y-13309428D01*
X14635095Y-13290381D01*
X14625571Y-13252286D01*
X14625571Y-13204667D01*
X14635095Y-13166571D01*
X14644619Y-13147524D01*
X14654143Y-13138000D01*
X14673190Y-13128476D01*
X14816048Y-13147524D02*
X14825571Y-13138000D01*
X14844619Y-13128476D01*
X14892238Y-13128476D01*
X14911286Y-13138000D01*
X14920809Y-13147524D01*
X14930333Y-13166571D01*
X14930333Y-13185619D01*
X14920809Y-13214190D01*
X14806524Y-13328476D01*
X14930333Y-13328476D01*
X14997000Y-13128476D02*
X15120809Y-13128476D01*
X15054143Y-13204667D01*
X15082714Y-13204667D01*
X15101762Y-13214190D01*
X15111286Y-13223714D01*
X15120809Y-13242762D01*
X15120809Y-13290381D01*
X15111286Y-13309428D01*
X15101762Y-13318952D01*
X15082714Y-13328476D01*
X15025571Y-13328476D01*
X15006524Y-13318952D01*
X14997000Y-13309428D01*
X15292238Y-13128476D02*
X15254143Y-13128476D01*
X15235095Y-13138000D01*
X15225571Y-13147524D01*
X15206524Y-13176095D01*
X15197000Y-13214190D01*
X15197000Y-13290381D01*
X15206524Y-13309428D01*
X15216048Y-13318952D01*
X15235095Y-13328476D01*
X15273190Y-13328476D01*
X15292238Y-13318952D01*
X15301762Y-13309428D01*
X15311286Y-13290381D01*
X15311286Y-13242762D01*
X15301762Y-13223714D01*
X15292238Y-13214190D01*
X15273190Y-13204667D01*
X15235095Y-13204667D01*
X15216048Y-13214190D01*
X15206524Y-13223714D01*
X15197000Y-13242762D01*
X15387476Y-13128476D02*
X15387476Y-13166571D01*
X15463667Y-13128476D02*
X15463667Y-13166571D01*
X15758905Y-13404667D02*
X15749381Y-13395143D01*
X15730333Y-13366571D01*
X15720809Y-13347524D01*
X15711286Y-13318952D01*
X15701762Y-13271333D01*
X15701762Y-13233238D01*
X15711286Y-13185619D01*
X15720809Y-13157048D01*
X15730333Y-13138000D01*
X15749381Y-13109428D01*
X15758905Y-13099905D01*
X15873190Y-13128476D02*
X15892238Y-13128476D01*
X15911286Y-13138000D01*
X15920809Y-13147524D01*
X15930333Y-13166571D01*
X15939857Y-13204667D01*
X15939857Y-13252286D01*
X15930333Y-13290381D01*
X15920809Y-13309428D01*
X15911286Y-13318952D01*
X15892238Y-13328476D01*
X15873190Y-13328476D01*
X15854143Y-13318952D01*
X15844619Y-13309428D01*
X15835095Y-13290381D01*
X15825571Y-13252286D01*
X15825571Y-13204667D01*
X15835095Y-13166571D01*
X15844619Y-13147524D01*
X15854143Y-13138000D01*
X15873190Y-13128476D01*
X16177952Y-13328476D02*
X16177952Y-13128476D01*
X16263667Y-13328476D02*
X16263667Y-13223714D01*
X16254143Y-13204667D01*
X16235095Y-13195143D01*
X16206524Y-13195143D01*
X16187476Y-13204667D01*
X16177952Y-13214190D01*
X16387476Y-13328476D02*
X16368428Y-13318952D01*
X16358905Y-13309428D01*
X16349381Y-13290381D01*
X16349381Y-13233238D01*
X16358905Y-13214190D01*
X16368428Y-13204667D01*
X16387476Y-13195143D01*
X16416048Y-13195143D01*
X16435095Y-13204667D01*
X16444619Y-13214190D01*
X16454143Y-13233238D01*
X16454143Y-13290381D01*
X16444619Y-13309428D01*
X16435095Y-13318952D01*
X16416048Y-13328476D01*
X16387476Y-13328476D01*
X16568428Y-13328476D02*
X16549381Y-13318952D01*
X16539857Y-13299905D01*
X16539857Y-13128476D01*
X16720809Y-13318952D02*
X16701762Y-13328476D01*
X16663667Y-13328476D01*
X16644619Y-13318952D01*
X16635095Y-13299905D01*
X16635095Y-13223714D01*
X16644619Y-13204667D01*
X16663667Y-13195143D01*
X16701762Y-13195143D01*
X16720809Y-13204667D01*
X16730333Y-13223714D01*
X16730333Y-13242762D01*
X16635095Y-13261809D01*
X16806524Y-13318952D02*
X16825571Y-13328476D01*
X16863667Y-13328476D01*
X16882714Y-13318952D01*
X16892238Y-13299905D01*
X16892238Y-13290381D01*
X16882714Y-13271333D01*
X16863667Y-13261809D01*
X16835095Y-13261809D01*
X16816048Y-13252286D01*
X16806524Y-13233238D01*
X16806524Y-13223714D01*
X16816048Y-13204667D01*
X16835095Y-13195143D01*
X16863667Y-13195143D01*
X16882714Y-13204667D01*
X17130333Y-13252286D02*
X17282714Y-13252286D01*
X17206524Y-13328476D02*
X17206524Y-13176095D01*
X17520810Y-13147524D02*
X17530333Y-13138000D01*
X17549381Y-13128476D01*
X17597000Y-13128476D01*
X17616048Y-13138000D01*
X17625571Y-13147524D01*
X17635095Y-13166571D01*
X17635095Y-13185619D01*
X17625571Y-13214190D01*
X17511286Y-13328476D01*
X17635095Y-13328476D01*
X17863667Y-13318952D02*
X17882714Y-13328476D01*
X17920810Y-13328476D01*
X17939857Y-13318952D01*
X17949381Y-13299905D01*
X17949381Y-13290381D01*
X17939857Y-13271333D01*
X17920810Y-13261809D01*
X17892238Y-13261809D01*
X17873190Y-13252286D01*
X17863667Y-13233238D01*
X17863667Y-13223714D01*
X17873190Y-13204667D01*
X17892238Y-13195143D01*
X17920810Y-13195143D01*
X17939857Y-13204667D01*
X18063667Y-13328476D02*
X18044619Y-13318952D01*
X18035095Y-13299905D01*
X18035095Y-13128476D01*
X18168429Y-13328476D02*
X18149381Y-13318952D01*
X18139857Y-13309428D01*
X18130333Y-13290381D01*
X18130333Y-13233238D01*
X18139857Y-13214190D01*
X18149381Y-13204667D01*
X18168429Y-13195143D01*
X18197000Y-13195143D01*
X18216048Y-13204667D01*
X18225571Y-13214190D01*
X18235095Y-13233238D01*
X18235095Y-13290381D01*
X18225571Y-13309428D01*
X18216048Y-13318952D01*
X18197000Y-13328476D01*
X18168429Y-13328476D01*
X18292238Y-13195143D02*
X18368429Y-13195143D01*
X18320810Y-13128476D02*
X18320810Y-13299905D01*
X18330333Y-13318952D01*
X18349381Y-13328476D01*
X18368429Y-13328476D01*
X18425571Y-13318952D02*
X18444619Y-13328476D01*
X18482714Y-13328476D01*
X18501762Y-13318952D01*
X18511286Y-13299905D01*
X18511286Y-13290381D01*
X18501762Y-13271333D01*
X18482714Y-13261809D01*
X18454143Y-13261809D01*
X18435095Y-13252286D01*
X18425571Y-13233238D01*
X18425571Y-13223714D01*
X18435095Y-13204667D01*
X18454143Y-13195143D01*
X18482714Y-13195143D01*
X18501762Y-13204667D01*
X18577952Y-13404667D02*
X18587476Y-13395143D01*
X18606524Y-13366571D01*
X18616048Y-13347524D01*
X18625571Y-13318952D01*
X18635095Y-13271333D01*
X18635095Y-13233238D01*
X18625571Y-13185619D01*
X18616048Y-13157048D01*
X18606524Y-13138000D01*
X18587476Y-13109428D01*
X18577952Y-13099905D01*
D15*
X12174552Y-13532052D02*
X12174552Y-13471948D01*
X12114448Y-13471948D01*
X12114448Y-13532052D01*
X12174552Y-13532052D01*
D11*
X12482714Y-13392476D02*
X12501762Y-13392476D01*
X12520809Y-13402000D01*
X12530333Y-13411524D01*
X12539857Y-13430571D01*
X12549381Y-13468667D01*
X12549381Y-13516286D01*
X12539857Y-13554381D01*
X12530333Y-13573428D01*
X12520809Y-13582952D01*
X12501762Y-13592476D01*
X12482714Y-13592476D01*
X12463667Y-13582952D01*
X12454143Y-13573428D01*
X12444619Y-13554381D01*
X12435095Y-13516286D01*
X12435095Y-13468667D01*
X12444619Y-13430571D01*
X12454143Y-13411524D01*
X12463667Y-13402000D01*
X12482714Y-13392476D01*
X12635095Y-13573428D02*
X12644619Y-13582952D01*
X12635095Y-13592476D01*
X12625571Y-13582952D01*
X12635095Y-13573428D01*
X12635095Y-13592476D01*
X12758905Y-13478190D02*
X12739857Y-13468667D01*
X12730333Y-13459143D01*
X12720809Y-13440095D01*
X12720809Y-13430571D01*
X12730333Y-13411524D01*
X12739857Y-13402000D01*
X12758905Y-13392476D01*
X12797000Y-13392476D01*
X12816048Y-13402000D01*
X12825571Y-13411524D01*
X12835095Y-13430571D01*
X12835095Y-13440095D01*
X12825571Y-13459143D01*
X12816048Y-13468667D01*
X12797000Y-13478190D01*
X12758905Y-13478190D01*
X12739857Y-13487714D01*
X12730333Y-13497238D01*
X12720809Y-13516286D01*
X12720809Y-13554381D01*
X12730333Y-13573428D01*
X12739857Y-13582952D01*
X12758905Y-13592476D01*
X12797000Y-13592476D01*
X12816048Y-13582952D01*
X12825571Y-13573428D01*
X12835095Y-13554381D01*
X12835095Y-13516286D01*
X12825571Y-13497238D01*
X12816048Y-13487714D01*
X12797000Y-13478190D01*
X13016048Y-13392476D02*
X12920809Y-13392476D01*
X12911286Y-13487714D01*
X12920809Y-13478190D01*
X12939857Y-13468667D01*
X12987476Y-13468667D01*
X13006524Y-13478190D01*
X13016048Y-13487714D01*
X13025571Y-13506762D01*
X13025571Y-13554381D01*
X13016048Y-13573428D01*
X13006524Y-13582952D01*
X12987476Y-13592476D01*
X12939857Y-13592476D01*
X12920809Y-13582952D01*
X12911286Y-13573428D01*
X13149381Y-13392476D02*
X13168428Y-13392476D01*
X13187476Y-13402000D01*
X13197000Y-13411524D01*
X13206524Y-13430571D01*
X13216048Y-13468667D01*
X13216048Y-13516286D01*
X13206524Y-13554381D01*
X13197000Y-13573428D01*
X13187476Y-13582952D01*
X13168428Y-13592476D01*
X13149381Y-13592476D01*
X13130333Y-13582952D01*
X13120809Y-13573428D01*
X13111286Y-13554381D01*
X13101762Y-13516286D01*
X13101762Y-13468667D01*
X13111286Y-13430571D01*
X13120809Y-13411524D01*
X13130333Y-13402000D01*
X13149381Y-13392476D01*
X13301762Y-13592476D02*
X13301762Y-13459143D01*
X13301762Y-13478190D02*
X13311286Y-13468667D01*
X13330333Y-13459143D01*
X13358905Y-13459143D01*
X13377952Y-13468667D01*
X13387476Y-13487714D01*
X13387476Y-13592476D01*
X13387476Y-13487714D02*
X13397000Y-13468667D01*
X13416048Y-13459143D01*
X13444619Y-13459143D01*
X13463667Y-13468667D01*
X13473190Y-13487714D01*
X13473190Y-13592476D01*
X13568428Y-13592476D02*
X13568428Y-13459143D01*
X13568428Y-13478190D02*
X13577952Y-13468667D01*
X13597000Y-13459143D01*
X13625571Y-13459143D01*
X13644619Y-13468667D01*
X13654143Y-13487714D01*
X13654143Y-13592476D01*
X13654143Y-13487714D02*
X13663667Y-13468667D01*
X13682714Y-13459143D01*
X13711286Y-13459143D01*
X13730333Y-13468667D01*
X13739857Y-13487714D01*
X13739857Y-13592476D01*
X14130333Y-13382952D02*
X13958905Y-13640095D01*
X14387476Y-13392476D02*
X14406524Y-13392476D01*
X14425571Y-13402000D01*
X14435095Y-13411524D01*
X14444619Y-13430571D01*
X14454143Y-13468667D01*
X14454143Y-13516286D01*
X14444619Y-13554381D01*
X14435095Y-13573428D01*
X14425571Y-13582952D01*
X14406524Y-13592476D01*
X14387476Y-13592476D01*
X14368428Y-13582952D01*
X14358905Y-13573428D01*
X14349381Y-13554381D01*
X14339857Y-13516286D01*
X14339857Y-13468667D01*
X14349381Y-13430571D01*
X14358905Y-13411524D01*
X14368428Y-13402000D01*
X14387476Y-13392476D01*
X14539857Y-13573428D02*
X14549381Y-13582952D01*
X14539857Y-13592476D01*
X14530333Y-13582952D01*
X14539857Y-13573428D01*
X14539857Y-13592476D01*
X14673190Y-13392476D02*
X14692238Y-13392476D01*
X14711286Y-13402000D01*
X14720809Y-13411524D01*
X14730333Y-13430571D01*
X14739857Y-13468667D01*
X14739857Y-13516286D01*
X14730333Y-13554381D01*
X14720809Y-13573428D01*
X14711286Y-13582952D01*
X14692238Y-13592476D01*
X14673190Y-13592476D01*
X14654143Y-13582952D01*
X14644619Y-13573428D01*
X14635095Y-13554381D01*
X14625571Y-13516286D01*
X14625571Y-13468667D01*
X14635095Y-13430571D01*
X14644619Y-13411524D01*
X14654143Y-13402000D01*
X14673190Y-13392476D01*
X14806524Y-13392476D02*
X14930333Y-13392476D01*
X14863667Y-13468667D01*
X14892238Y-13468667D01*
X14911286Y-13478190D01*
X14920809Y-13487714D01*
X14930333Y-13506762D01*
X14930333Y-13554381D01*
X14920809Y-13573428D01*
X14911286Y-13582952D01*
X14892238Y-13592476D01*
X14835095Y-13592476D01*
X14816048Y-13582952D01*
X14806524Y-13573428D01*
X14997000Y-13392476D02*
X15120809Y-13392476D01*
X15054143Y-13468667D01*
X15082714Y-13468667D01*
X15101762Y-13478190D01*
X15111286Y-13487714D01*
X15120809Y-13506762D01*
X15120809Y-13554381D01*
X15111286Y-13573428D01*
X15101762Y-13582952D01*
X15082714Y-13592476D01*
X15025571Y-13592476D01*
X15006524Y-13582952D01*
X14997000Y-13573428D01*
X15301762Y-13392476D02*
X15206524Y-13392476D01*
X15197000Y-13487714D01*
X15206524Y-13478190D01*
X15225571Y-13468667D01*
X15273190Y-13468667D01*
X15292238Y-13478190D01*
X15301762Y-13487714D01*
X15311286Y-13506762D01*
X15311286Y-13554381D01*
X15301762Y-13573428D01*
X15292238Y-13582952D01*
X15273190Y-13592476D01*
X15225571Y-13592476D01*
X15206524Y-13582952D01*
X15197000Y-13573428D01*
X15387476Y-13392476D02*
X15387476Y-13430571D01*
X15463667Y-13392476D02*
X15463667Y-13430571D01*
X15758905Y-13668667D02*
X15749381Y-13659143D01*
X15730333Y-13630571D01*
X15720809Y-13611524D01*
X15711286Y-13582952D01*
X15701762Y-13535333D01*
X15701762Y-13497238D01*
X15711286Y-13449619D01*
X15720809Y-13421048D01*
X15730333Y-13402000D01*
X15749381Y-13373428D01*
X15758905Y-13363905D01*
X15825571Y-13411524D02*
X15835095Y-13402000D01*
X15854143Y-13392476D01*
X15901762Y-13392476D01*
X15920809Y-13402000D01*
X15930333Y-13411524D01*
X15939857Y-13430571D01*
X15939857Y-13449619D01*
X15930333Y-13478190D01*
X15816048Y-13592476D01*
X15939857Y-13592476D01*
X16177952Y-13592476D02*
X16177952Y-13392476D01*
X16263667Y-13592476D02*
X16263667Y-13487714D01*
X16254143Y-13468667D01*
X16235095Y-13459143D01*
X16206524Y-13459143D01*
X16187476Y-13468667D01*
X16177952Y-13478190D01*
X16387476Y-13592476D02*
X16368428Y-13582952D01*
X16358905Y-13573428D01*
X16349381Y-13554381D01*
X16349381Y-13497238D01*
X16358905Y-13478190D01*
X16368428Y-13468667D01*
X16387476Y-13459143D01*
X16416048Y-13459143D01*
X16435095Y-13468667D01*
X16444619Y-13478190D01*
X16454143Y-13497238D01*
X16454143Y-13554381D01*
X16444619Y-13573428D01*
X16435095Y-13582952D01*
X16416048Y-13592476D01*
X16387476Y-13592476D01*
X16568428Y-13592476D02*
X16549381Y-13582952D01*
X16539857Y-13563905D01*
X16539857Y-13392476D01*
X16720809Y-13582952D02*
X16701762Y-13592476D01*
X16663667Y-13592476D01*
X16644619Y-13582952D01*
X16635095Y-13563905D01*
X16635095Y-13487714D01*
X16644619Y-13468667D01*
X16663667Y-13459143D01*
X16701762Y-13459143D01*
X16720809Y-13468667D01*
X16730333Y-13487714D01*
X16730333Y-13506762D01*
X16635095Y-13525809D01*
X16806524Y-13582952D02*
X16825571Y-13592476D01*
X16863667Y-13592476D01*
X16882714Y-13582952D01*
X16892238Y-13563905D01*
X16892238Y-13554381D01*
X16882714Y-13535333D01*
X16863667Y-13525809D01*
X16835095Y-13525809D01*
X16816048Y-13516286D01*
X16806524Y-13497238D01*
X16806524Y-13487714D01*
X16816048Y-13468667D01*
X16835095Y-13459143D01*
X16863667Y-13459143D01*
X16882714Y-13468667D01*
X16958905Y-13668667D02*
X16968429Y-13659143D01*
X16987476Y-13630571D01*
X16997000Y-13611524D01*
X17006524Y-13582952D01*
X17016048Y-13535333D01*
X17016048Y-13497238D01*
X17006524Y-13449619D01*
X16997000Y-13421048D01*
X16987476Y-13402000D01*
X16968429Y-13373428D01*
X16958905Y-13363905D01*
M02*
